SplineFontDB: 3.0
FontName: MeeraTamil
FullName: Meera Tamil
FamilyName: Meera Tamil
Weight: Medium
Copyright: Digitized data copyright 2012-2014 Meera Tamil project contributors.\n\nDesigned by Hussain KH (Typography), Santhosh Thottingal (Featuring), Anilan NG (Calligraphy) and AKM Kutty (Linguistics).\n\nDedicated to Wikipedia and Tamil People (Tamil Pesum Nallulakam).\n\nLicensed under the SIL Open Font License 1.1 (see file OFL.txt)
UComments: "2012-6-9: Created."
Version: 1.0
ItalicAngle: 0
UnderlinePosition: -204
UnderlineWidth: 102
Ascent: 1638
Descent: 410
InvalidEm: 0
LayerCount: 2
Layer: 0 0 "Back" 1
Layer: 1 0 "Fore" 0
XUID: [1021 393 960756424 6214922]
FSType: 0
OS2Version: 0
OS2_WeightWidthSlopeOnly: 0
OS2_UseTypoMetrics: 1
CreationTime: 1339233494
ModificationTime: 1449309464
OS2TypoAscent: 0
OS2TypoAOffset: 1
OS2TypoDescent: 0
OS2TypoDOffset: 1
OS2TypoLinegap: 184
OS2WinAscent: 0
OS2WinAOffset: 1
OS2WinDescent: 0
OS2WinDOffset: 1
HheadAscent: 0
HheadAOffset: 1
HheadDescent: 0
HheadDOffset: 1
OS2Vendor: 'PfEd'
MarkAttachClasses: 1
DEI: 91125

StartChar: ta_a
Encoding: 2949 2949 0
Width: 2446
VWidth: 2096
GlyphClass: 2
Flags: HMW
LayerCount: 2
Fore
SplineSet
1024 678 m 0
 1024 953 1220 1088 1504 1088 c 0
 1664 1088 1800 1028 1910 906 c 0
 2020 784 2074 632 2074 452 c 0
 2074 406 2070 360 2060 316 c 1
 2270 318 l 1
 2270 1064 l 1
 2446 1064 l 1
 2446 -402 l 1
 2270 -402 l 1
 2270 156 l 1
 2024 156 l 1
 1968 16 1856 -100 1686 -192 c 1
 1504 -288 1284 -336 1034 -336 c 0
 650 -336 200 -231 200 98 c 0
 200 154 220 202 260 248 c 0
 300 294 348 316 406 316 c 2
 1882 316 l 1
 1894 360 1902 406 1902 444 c 0
 1902 576 1862 686 1780 780 c 0
 1698 874 1594 920 1472 920 c 0
 1368 920 1292 894 1244 842 c 1
 1266 862 1296 872 1334 872 c 0
 1465 872 1574 773 1574 640 c 0
 1574 483 1459 376 1304 376 c 0
 1138 376 1024 510 1024 678 c 0
1406 648 m 0
 1406 711 1355 760 1294 760 c 0
 1224 760 1192 724 1192 650 c 0
 1192 576 1228 534 1300 534 c 0
 1370 534 1406 574 1406 648 c 0
370 84 m 0
 370 -95 789 -188 1002 -188 c 0
 1368 -188 1694 -66 1828 156 c 1
 436 156 l 2
 392 156 370 132 370 84 c 0
EndSplineSet
EndChar

StartChar: ta_aa
Encoding: 2950 2950 1
Width: 3128
VWidth: 2096
GlyphClass: 2
Flags: HMW
LayerCount: 2
Fore
SplineSet
1022 676 m 0
 1022 948 1219 1086 1502 1086 c 0
 1670 1086 1808 1022 1918 892 c 0
 2022 770 2072 622 2072 450 c 0
 2072 402 2068 358 2060 314 c 1
 2320 314 l 1
 2320 1062 l 1
 2498 1062 l 1
 2498 102 l 1
 2570 188 2658 232 2758 232 c 0
 2864 232 2952 200 3022 130 c 0
 3092 60 3128 -26 3128 -132 c 0
 3128 -338 3018 -498 2794 -608 c 1
 2618 -692 2418 -734 2192 -734 c 0
 1912 -734 1524 -656 1524 -426 c 0
 1524 -295 1685 -238 1832 -238 c 0
 2016 -238 2150 -288 2230 -384 c 1
 2124 -488 l 1
 2056 -418 1960 -384 1836 -384 c 0
 1744 -384 1700 -398 1700 -432 c 0
 1700 -542 2019 -590 2164 -590 c 0
 2344 -590 2510 -556 2656 -492 c 0
 2850 -408 2950 -286 2950 -126 c 0
 2950 -14 2858 48 2746 48 c 0
 2611 48 2498 -41 2498 -170 c 2
 2498 -402 l 1
 2320 -402 l 1
 2320 154 l 1
 2024 154 l 1
 1956 -12 1818 -140 1606 -228 c 0
 1430 -302 1238 -338 1030 -338 c 0
 830 -338 658 -312 512 -260 c 0
 304 -186 200 -68 200 96 c 0
 200 152 222 200 262 246 c 0
 302 292 348 314 404 314 c 2
 1880 314 l 1
 1894 352 1900 398 1900 442 c 0
 1900 570 1864 678 1784 772 c 0
 1700 870 1596 918 1468 918 c 0
 1368 918 1292 892 1244 840 c 1
 1264 860 1292 870 1330 870 c 0
 1460 870 1572 768 1572 638 c 0
 1572 482 1459 374 1304 374 c 0
 1135 374 1022 507 1022 676 c 0
1190 648 m 0
 1190 583 1233 532 1298 532 c 0
 1368 532 1404 572 1404 646 c 0
 1404 707 1354 758 1294 758 c 0
 1235 758 1190 707 1190 648 c 0
1824 154 m 1
 434 154 l 2
 390 154 370 130 370 82 c 0
 370 -2 454 -72 626 -128 c 1
 758 -168 882 -190 998 -190 c 0
 1364 -190 1693 -68 1824 154 c 1
EndSplineSet
EndChar

StartChar: ta_i
Encoding: 2951 2951 2
Width: 2064
VWidth: 2096
GlyphClass: 2
Flags: HMW
LayerCount: 2
Fore
SplineSet
1266 1738 m 0
 1767 1738 2064 1412 2064 910 c 2
 2064 148 l 1
 1884 148 l 1
 1884 868 l 2
 1884 1068 1832 1230 1734 1354 c 1
 1628 1486 1480 1552 1290 1552 c 0
 1072 1552 896 1480 760 1334 c 0
 624 1188 556 1006 556 792 c 0
 556 600 596 410 680 226 c 1
 834 290 1008 324 1202 324 c 0
 1286 324 1380 314 1476 290 c 1
 1502 400 1514 486 1514 554 c 0
 1514 818 1418 950 1228 950 c 0
 1134 950 1062 922 1012 864 c 1
 1040 884 1072 892 1104 892 c 0
 1231 892 1336 795 1336 668 c 0
 1336 520 1222 418 1074 418 c 0
 992 418 924 444 872 502 c 0
 820 560 796 628 796 712 c 0
 796 828 836 924 920 1000 c 0
 1004 1076 1102 1116 1218 1116 c 0
 1362 1116 1478 1068 1566 970 c 0
 1654 872 1698 748 1698 600 c 0
 1698 456 1676 332 1638 226 c 1
 1786 156 1932 -8 1932 -212 c 0
 1932 -328 1888 -416 1800 -478 c 1
 1726 -534 1626 -556 1504 -556 c 0
 1340 -556 1194 -518 1060 -444 c 1
 892 -540 726 -588 566 -588 c 0
 366 -588 200 -509 200 -320 c 0
 200 -134 376 53 512 134 c 1
 414 360 366 576 366 780 c 0
 366 1052 446 1276 604 1454 c 0
 772 1644 994 1738 1266 1738 c 0
1170 670 m 0
 1170 727 1120 770 1064 770 c 0
 996 770 964 738 964 670 c 0
 964 602 1000 568 1070 568 c 0
 1138 568 1170 602 1170 670 c 0
1756 -196 m 0
 1756 -72 1662 27 1576 72 c 1
 1490 -86 1376 -218 1244 -326 c 1
 1328 -366 1418 -388 1514 -388 c 0
 1678 -388 1756 -324 1756 -196 c 0
1416 134 m 1
 1336 154 1260 164 1180 164 c 0
 1026 164 888 138 760 82 c 1
 842 -52 948 -160 1080 -244 c 1
 1222 -146 1334 -22 1416 134 c 1
882 -336 m 1
 766 -248 666 -140 584 -12 c 1
 456 -100 392 -188 392 -280 c 0
 392 -372 460 -418 596 -418 c 0
 670 -418 766 -392 882 -336 c 1
EndSplineSet
EndChar

StartChar: ta_ii
Encoding: 2952 2952 3
Width: 1434
VWidth: 2096
GlyphClass: 2
Flags: HMW
LayerCount: 2
Fore
SplineSet
1230 638 m 0
 1307 638 1360 580 1360 504 c 0
 1360 427 1308 368 1230 368 c 0
 1152 368 1100 427 1100 504 c 0
 1100 578 1155 638 1230 638 c 0
1434 914 m 1
 1008 914 l 1
 1008 0 l 1
 836 0 l 1
 836 914 l 1
 376 914 l 1
 376 0 l 1
 200 0 l 1
 200 1082 l 1
 1434 1082 l 1
 1434 914 l 1
604 638 m 0
 681 638 734 580 734 504 c 0
 734 427 682 368 604 368 c 0
 526 368 474 427 474 504 c 0
 474 578 529 638 604 638 c 0
EndSplineSet
EndChar

StartChar: ta_u
Encoding: 2953 2953 4
Width: 2014
VWidth: 2096
GlyphClass: 2
Flags: HMW
LayerCount: 2
Fore
SplineSet
476 454 m 0
 320 454 214 577 214 734 c 0
 214 854 262 948 358 1018 c 1
 444 1078 550 1108 674 1108 c 0
 818 1108 942 1070 1042 994 c 1
 1148 910 1200 794 1200 652 c 0
 1200 534 1162 438 1082 364 c 0
 1002 290 902 250 782 250 c 2
 454 250 l 2
 410 250 388 236 388 204 c 0
 388 168 410 148 454 148 c 2
 2014 148 l 1
 2014 -2 l 1
 410 -2 l 2
 354 -2 308 20 264 58 c 0
 220 96 200 144 200 200 c 0
 200 309 299 398 410 398 c 2
 784 398 l 2
 927 398 1032 503 1032 646 c 0
 1032 844 848 950 638 950 c 0
 532 950 458 928 420 880 c 1
 448 896 476 904 504 904 c 0
 622 904 730 810 730 692 c 0
 730 552 617 454 476 454 c 0
568 694 m 0
 568 746 518 790 466 790 c 0
 402 790 370 758 370 696 c 0
 370 632 402 600 470 600 c 0
 534 600 568 632 568 694 c 0
EndSplineSet
EndChar

StartChar: ta_uu
Encoding: 2954 2954 5
Width: 2824
VWidth: 2096
GlyphClass: 2
Flags: HMW
LayerCount: 2
Fore
SplineSet
1942 432 m 0
 1942 290 1843 190 1702 190 c 0
 1592 190 1500 234 1432 322 c 1
 1372 402 1344 498 1344 614 c 0
 1344 746 1384 856 1460 944 c 0
 1536 1032 1638 1072 1766 1072 c 0
 1888 1072 1978 1030 2036 946 c 1
 2036 1052 l 1
 2794 1052 l 1
 2794 914 l 1
 2568 914 l 1
 2568 214 l 1
 2422 214 l 1
 2422 914 l 1
 2176 914 l 1
 2176 214 l 1
 2036 214 l 1
 2036 720 l 2
 2036 784 2012 838 1956 878 c 1
 1908 914 1848 932 1780 932 c 0
 1692 932 1620 900 1562 832 c 0
 1504 764 1478 690 1478 598 c 0
 1478 542 1492 490 1520 442 c 1
 1518 452 1516 462 1516 466 c 0
 1516 585 1598 676 1718 676 c 0
 1854 676 1942 567 1942 432 c 0
476 454 m 0
 320 454 214 577 214 734 c 0
 214 854 262 948 358 1018 c 1
 444 1078 550 1108 674 1108 c 0
 818 1108 942 1070 1042 994 c 1
 1148 910 1200 794 1200 652 c 0
 1200 534 1162 438 1082 364 c 0
 1002 290 902 250 782 250 c 2
 454 250 l 2
 410 250 388 230 388 192 c 0
 388 156 410 136 454 136 c 2
 2824 136 l 1
 2824 -2 l 1
 410 -2 l 2
 354 -2 308 20 264 58 c 0
 220 96 200 144 200 200 c 0
 200 309 299 398 410 398 c 2
 784 398 l 2
 927 398 1032 503 1032 646 c 0
 1032 844 848 950 638 950 c 0
 532 950 458 928 420 880 c 1
 448 896 476 904 504 904 c 0
 622 904 730 810 730 692 c 0
 730 552 617 454 476 454 c 0
1802 440 m 0
 1802 510 1770 544 1708 544 c 0
 1648 544 1618 510 1618 440 c 0
 1618 368 1648 332 1708 332 c 0
 1770 332 1802 368 1802 440 c 0
568 694 m 0
 568 746 518 790 466 790 c 0
 402 790 370 758 370 696 c 0
 370 632 402 600 470 600 c 0
 534 600 568 632 568 694 c 0
EndSplineSet
EndChar

StartChar: ta_e
Encoding: 2958 2958 6
Width: 1786
VWidth: 2096
GlyphClass: 2
Flags: HMW
LayerCount: 2
Fore
SplineSet
200 512 m 0
 200 860 457 1080 810 1080 c 2
 1786 1080 l 1
 1786 912 l 1
 1398 912 l 1
 1398 2 l 1
 1224 2 l 1
 1224 912 l 1
 776 912 l 2
 539 912 366 742 366 506 c 0
 366 412 390 334 438 264 c 1
 434 292 430 310 430 322 c 0
 430 475 532 588 684 588 c 0
 856 588 970 450 970 278 c 0
 970 97 843 -26 662 -26 c 0
 522 -26 410 30 322 142 c 1
 242 246 200 370 200 512 c 0
674 140 m 0
 748 140 802 209 802 288 c 0
 802 369 754 432 674 432 c 0
 591 432 546 371 546 288 c 0
 546 207 597 140 674 140 c 0
EndSplineSet
EndChar

StartChar: ta_ee
Encoding: 2959 2959 7
Width: 1786
VWidth: 2096
GlyphClass: 2
Flags: HMW
LayerCount: 2
Fore
SplineSet
200 508 m 0
 200 858 457 1080 810 1080 c 2
 1786 1080 l 1
 1786 910 l 1
 1422 910 l 1
 1422 -2 l 1
 1204 -70 1042 -225 966 -434 c 1
 816 -334 l 1
 900 -132 1052 22 1250 106 c 1
 1250 910 l 1
 776 910 l 2
 536 910 368 741 368 502 c 0
 368 414 392 334 440 264 c 1
 432 296 430 314 430 322 c 0
 430 475 532 588 684 588 c 0
 856 588 970 450 970 278 c 0
 970 97 843 -26 662 -26 c 0
 522 -26 410 30 324 140 c 0
 242 244 200 366 200 508 c 0
674 140 m 0
 748 140 802 209 802 288 c 0
 802 369 754 432 674 432 c 0
 595 432 546 367 546 288 c 0
 546 207 593 140 674 140 c 0
EndSplineSet
EndChar

StartChar: ta_ai
Encoding: 2960 2960 8
Width: 1788
VWidth: 2096
GlyphClass: 2
Flags: HMW
LayerCount: 2
Fore
SplineSet
1126 -178 m 2
 1126 -321 1234 -424 1376 -424 c 0
 1438 -424 1494 -408 1544 -372 c 0
 1594 -336 1618 -286 1618 -226 c 0
 1618 -120 1568 -58 1464 -36 c 1
 1544 112 l 1
 1708 54 1788 -58 1788 -230 c 0
 1788 -336 1746 -422 1664 -490 c 0
 1582 -558 1486 -592 1380 -592 c 0
 1214 -592 1102 -538 1040 -428 c 1
 944 -538 814 -592 648 -592 c 0
 524 -592 418 -548 332 -456 c 0
 246 -364 200 -258 200 -130 c 0
 200 -2 248 104 344 190 c 0
 440 276 550 320 680 320 c 2
 1284 320 l 2
 1475 320 1616 453 1616 644 c 0
 1616 804 1519 928 1364 928 c 0
 1206 928 1126 856 1126 710 c 2
 1126 408 l 1
 944 408 l 1
 944 710 l 2
 944 858 850 934 662 934 c 0
 562 934 488 902 432 842 c 1
 464 862 494 868 528 868 c 0
 662 868 772 768 772 634 c 0
 772 477 653 376 494 376 c 0
 326 376 204 515 204 684 c 0
 204 924 413 1100 662 1100 c 0
 826 1100 946 1054 1022 968 c 1
 1092 1056 1206 1102 1352 1102 c 0
 1476 1102 1580 1056 1664 968 c 0
 1748 880 1788 772 1788 648 c 0
 1788 367 1606 148 1330 148 c 2
 676 148 l 2
 592 148 520 122 460 64 c 0
 400 6 370 -60 370 -142 c 0
 370 -222 398 -288 458 -344 c 0
 518 -400 588 -424 668 -424 c 0
 742 -424 806 -398 862 -346 c 0
 918 -294 944 -226 944 -152 c 2
 944 80 l 1
 1126 80 l 1
 1126 -178 l 2
490 532 m 0
 546 532 596 577 596 636 c 0
 596 692 540 742 484 742 c 0
 422 742 380 699 380 636 c 0
 380 575 428 532 490 532 c 0
EndSplineSet
EndChar

StartChar: ta_o
Encoding: 2962 2962 9
Width: 1836
VWidth: 2096
GlyphClass: 2
Flags: HMW
LayerCount: 2
Fore
SplineSet
590 2 m 0
 357 2 200 196 200 436 c 0
 200 648 288 814 464 936 c 0
 620 1044 808 1100 1026 1100 c 0
 1242 1100 1428 1046 1580 940 c 1
 1750 820 1836 658 1836 452 c 0
 1836 354 1814 272 1766 208 c 1
 1710 138 1636 104 1540 104 c 0
 1460 104 1394 128 1334 180 c 0
 1274 232 1246 296 1244 376 c 1
 1206 336 1184 288 1184 240 c 0
 1184 115 1284 0 1408 0 c 2
 1670 0 l 1
 1670 -188 l 1
 1374 -188 l 2
 1324 -188 1284 -232 1256 -320 c 0
 1222 -424 1180 -496 1132 -536 c 1
 1076 -580 992 -602 880 -602 c 0
 665 -602 488 -513 488 -312 c 0
 488 -152 632 -16 792 -16 c 0
 814 -16 834 -20 858 -24 c 1
 858 -192 l 1
 842 -184 826 -182 806 -182 c 0
 730 -182 662 -234 662 -310 c 0
 662 -397 780 -434 882 -434 c 0
 964 -434 1022 -412 1056 -364 c 0
 1060 -360 1080 -302 1124 -194 c 1
 1144 -148 1166 -110 1194 -82 c 1
 1078 -34 1020 70 1020 228 c 0
 1020 328 1052 416 1122 490 c 0
 1192 564 1276 602 1376 602 c 0
 1416 602 1458 596 1496 584 c 1
 1436 550 1408 490 1408 398 c 0
 1408 326 1468 268 1540 268 c 0
 1628 268 1674 351 1674 444 c 0
 1674 600 1602 722 1460 808 c 1
 1340 882 1200 920 1034 920 c 0
 862 920 712 882 588 802 c 0
 444 710 372 584 372 420 c 0
 372 406 376 390 384 374 c 1
 384 444 404 500 448 540 c 0
 492 580 548 602 612 602 c 0
 781 602 902 464 902 296 c 0
 902 119 766 2 590 2 c 0
600 168 m 0
 669 168 714 231 714 300 c 0
 714 370 670 434 600 434 c 0
 532 434 484 366 484 300 c 0
 484 234 533 168 600 168 c 0
EndSplineSet
EndChar

StartChar: ta_oo
Encoding: 2963 2963 10
Width: 1836
VWidth: 2096
GlyphClass: 2
Flags: HMW
LayerCount: 2
Fore
SplineSet
902 296 m 0
 902 123 764 2 590 2 c 0
 474 2 378 46 304 134 c 0
 234 218 200 318 200 436 c 0
 200 644 290 814 468 936 c 0
 624 1044 808 1100 1026 1100 c 0
 1242 1100 1428 1046 1580 940 c 1
 1750 820 1836 658 1836 452 c 0
 1836 356 1812 272 1764 208 c 1
 1708 138 1634 104 1540 104 c 0
 1460 104 1394 128 1334 180 c 0
 1274 232 1246 296 1244 376 c 1
 1206 336 1184 288 1184 240 c 0
 1184 115 1284 0 1408 0 c 2
 1670 0 l 1
 1670 -188 l 1
 1386 -188 l 2
 1342 -188 1310 -214 1288 -266 c 1
 1274 -310 1258 -352 1244 -396 c 1
 1182 -536 1052 -604 858 -604 c 0
 649 -604 472 -491 472 -292 c 0
 472 -149 565 -40 708 -40 c 0
 843 -40 950 -145 950 -280 c 0
 950 -360 918 -422 856 -466 c 1
 960 -466 1034 -418 1080 -324 c 1
 1108 -235 1137 -124 1206 -82 c 1
 1082 -30 1020 74 1020 228 c 0
 1020 328 1054 416 1124 490 c 0
 1194 564 1278 602 1376 602 c 0
 1416 602 1458 596 1496 584 c 1
 1436 550 1408 486 1408 398 c 0
 1408 331 1473 268 1540 268 c 0
 1628 268 1674 351 1674 444 c 0
 1674 600 1602 722 1460 808 c 0
 1338 882 1198 920 1034 920 c 0
 862 920 712 882 588 802 c 0
 444 710 372 584 372 420 c 0
 372 406 376 390 384 374 c 1
 384 507 481 602 612 602 c 0
 781 602 902 464 902 296 c 0
600 178 m 0
 662 178 714 239 714 302 c 0
 714 363 661 428 600 428 c 0
 538 428 484 364 484 302 c 0
 484 238 537 178 600 178 c 0
830 -302 m 0
 830 -247 781 -202 726 -202 c 0
 700 -202 676 -210 654 -230 c 0
 632 -250 626 -274 626 -302 c 0
 626 -366 658 -400 726 -400 c 0
 796 -400 830 -366 830 -302 c 0
EndSplineSet
EndChar

StartChar: ta_au
Encoding: 2964 2964 11
Width: 3676
VWidth: 2096
GlyphClass: 2
Flags: HMW
LayerCount: 2
Fore
SplineSet
1984 584 m 0
 1984 883 2177 1114 2474 1114 c 0
 2626 1114 2732 1062 2796 958 c 1
 2796 1088 l 1
 3676 1088 l 1
 3676 936 l 1
 3412 936 l 1
 3412 120 l 1
 3248 120 l 1
 3248 936 l 1
 2952 936 l 1
 2952 120 l 1
 2796 120 l 1
 2796 706 l 2
 2796 858 2650 956 2492 956 c 0
 2281 956 2132 772 2132 562 c 0
 2132 488 2156 422 2196 364 c 1
 2191 375 2186 398 2186 410 c 0
 2186 550 2278 650 2418 650 c 0
 2498 650 2560 628 2608 572 c 0
 2656 516 2680 452 2680 372 c 0
 2680 209 2564 94 2400 94 c 0
 2270 94 2166 144 2090 244 c 0
 2020 336 1984 452 1984 584 c 0
902 296 m 0
 902 123 764 2 590 2 c 0
 474 2 378 46 304 134 c 0
 234 218 200 318 200 436 c 0
 200 644 290 814 468 936 c 0
 624 1044 808 1100 1026 1100 c 0
 1242 1100 1428 1046 1580 940 c 1
 1750 820 1836 658 1836 452 c 0
 1836 356 1812 272 1764 208 c 1
 1708 138 1634 104 1540 104 c 0
 1460 104 1394 128 1334 180 c 0
 1274 232 1246 296 1244 376 c 1
 1206 336 1184 288 1184 240 c 0
 1184 115 1284 0 1408 0 c 2
 1670 0 l 1
 1670 -188 l 1
 1386 -188 l 2
 1342 -188 1310 -214 1288 -266 c 1
 1274 -310 1258 -352 1244 -396 c 1
 1182 -536 1052 -604 858 -604 c 0
 649 -604 472 -491 472 -292 c 0
 472 -149 565 -40 708 -40 c 0
 843 -40 950 -145 950 -280 c 0
 950 -360 918 -422 856 -466 c 1
 960 -466 1034 -418 1080 -324 c 1
 1108 -235 1137 -124 1206 -82 c 1
 1082 -30 1020 74 1020 228 c 0
 1020 328 1054 416 1124 490 c 0
 1194 564 1278 602 1376 602 c 0
 1416 602 1458 596 1496 584 c 1
 1436 550 1408 486 1408 398 c 0
 1408 331 1473 268 1540 268 c 0
 1628 268 1674 351 1674 444 c 0
 1674 600 1602 722 1460 808 c 0
 1338 882 1198 920 1034 920 c 0
 862 920 712 882 588 802 c 0
 444 710 372 584 372 420 c 0
 372 406 376 390 384 374 c 1
 384 507 481 602 612 602 c 0
 781 602 902 464 902 296 c 0
2408 252 m 0
 2477 252 2520 311 2520 380 c 0
 2520 450 2478 506 2408 506 c 0
 2339 506 2298 449 2298 380 c 0
 2298 312 2340 252 2408 252 c 0
600 178 m 0
 662 178 714 239 714 302 c 0
 714 363 661 428 600 428 c 0
 538 428 484 364 484 302 c 0
 484 238 537 178 600 178 c 0
830 -302 m 0
 830 -247 781 -202 726 -202 c 0
 700 -202 676 -210 654 -230 c 0
 632 -250 626 -274 626 -302 c 0
 626 -366 658 -400 726 -400 c 0
 796 -400 830 -366 830 -302 c 0
EndSplineSet
EndChar

StartChar: ta_ka
Encoding: 2965 2965 12
Width: 1484
VWidth: 2096
GlyphClass: 2
Flags: HMW
LayerCount: 2
Fore
SplineSet
370 352 m 0
 370 229 529 130 660 130 c 0
 802 130 878 192 886 320 c 1
 886 365 886 411 886 456 c 1
 522 456 l 2
 422 456 370 422 370 352 c 0
886 632 m 1
 886 908 l 1
 644 908 l 1
 644 632 l 1
 886 632 l 1
1194 632 m 2
 1384 632 1484 496 1484 300 c 0
 1484 82 1390 -28 1206 -28 c 0
 1148 -28 1098 -20 1052 2 c 1
 1114 146 l 1
 1142 130 1170 122 1198 122 c 0
 1278 122 1316 180 1316 292 c 0
 1316 402 1274 456 1182 456 c 2
 1052 456 l 1
 1052 326 l 2
 1052 94 897 -28 660 -28 c 0
 548 -28 446 8 352 80 c 0
 252 156 200 248 200 356 c 0
 200 538 290 632 468 632 c 0
 470 632 472 632 474 632 c 1
 474 1078 l 1
 1366 1078 l 1
 1366 908 l 1
 1052 908 l 1
 1052 632 l 1
 1194 632 l 2
EndSplineSet
EndChar

StartChar: ta_nga
Encoding: 2969 2969 13
Width: 1666
VWidth: 2096
GlyphClass: 2
Flags: HMW
LayerCount: 2
Fore
SplineSet
986 676 m 0
 1172 676 1296 548 1296 364 c 0
 1296 284 1268 218 1208 158 c 1
 1490 158 l 1
 1490 1072 l 1
 1666 1072 l 1
 1666 0 l 1
 636 0 l 1
 636 158 l 1
 928 158 l 2
 1024 158 1112 248 1112 344 c 0
 1112 433 1046 506 956 506 c 0
 884 506 804 447 804 376 c 2
 804 254 l 1
 636 254 l 1
 636 900 l 1
 372 900 l 1
 372 0 l 1
 200 0 l 1
 200 1078 l 1
 1192 1078 l 1
 1192 900 l 1
 804 900 l 1
 804 596 l 1
 850 652 912 676 986 676 c 0
EndSplineSet
EndChar

StartChar: ta_cha
Encoding: 2970 2970 14
Width: 1364
VWidth: 2096
GlyphClass: 2
Flags: HMW
LayerCount: 2
Fore
SplineSet
370 352 m 0
 370 228 518 130 648 130 c 0
 790 130 866 192 874 320 c 1
 874 365 874 411 874 456 c 1
 508 456 l 2
 416 456 370 422 370 352 c 0
874 632 m 1
 874 908 l 1
 632 908 l 1
 632 632 l 1
 874 632 l 1
1040 326 m 2
 1040 94 885 -28 648 -28 c 0
 536 -28 436 8 344 80 c 0
 248 154 200 246 200 356 c 0
 200 538 288 632 457 632 c 0
 459 632 460 632 462 632 c 1
 462 1078 l 1
 1342 1078 l 1
 1342 908 l 1
 1040 908 l 1
 1040 632 l 1
 1364 632 l 1
 1364 456 l 1
 1040 456 l 1
 1040 326 l 2
EndSplineSet
EndChar

StartChar: ta_ja
Encoding: 2972 2972 15
Width: 1788
VWidth: 2096
GlyphClass: 2
Flags: HMW
LayerCount: 2
Fore
SplineSet
1788 648 m 0
 1788 369 1603 148 1330 148 c 2
 662 148 l 2
 582 148 514 122 456 64 c 0
 398 6 370 -60 370 -140 c 0
 370 -220 396 -288 452 -344 c 0
 508 -400 576 -424 658 -424 c 0
 758 -424 840 -380 910 -284 c 1
 1004 -152 1002 -148 1096 -16 c 1
 1188 80 1308 124 1456 124 c 0
 1548 124 1626 92 1690 22 c 0
 1754 -48 1788 -130 1788 -226 c 0
 1788 -416 1658 -592 1472 -592 c 0
 1293 -592 1128 -471 1128 -302 c 1
 1304 -302 l 1
 1304 -338 1316 -368 1348 -392 c 0
 1380 -416 1416 -428 1456 -428 c 0
 1555 -428 1620 -333 1620 -232 c 0
 1620 -141 1546 -38 1456 -38 c 0
 1340 -38 1246 -86 1172 -182 c 1
 1112 -270 1048 -356 988 -448 c 1
 906 -544 798 -592 658 -592 c 0
 530 -592 422 -548 334 -456 c 0
 246 -364 200 -260 200 -132 c 0
 200 -8 246 100 334 188 c 0
 422 276 532 320 656 320 c 2
 1284 320 l 2
 1475 320 1616 453 1616 644 c 0
 1616 804 1519 928 1364 928 c 0
 1206 928 1126 856 1126 710 c 2
 1126 408 l 1
 944 408 l 1
 944 710 l 2
 944 858 850 934 662 934 c 0
 562 934 488 902 432 842 c 1
 464 862 494 868 528 868 c 0
 662 868 772 768 772 634 c 0
 772 477 653 376 494 376 c 0
 326 376 204 515 204 684 c 0
 204 924 413 1100 662 1100 c 0
 826 1100 946 1054 1022 968 c 1
 1092 1056 1206 1102 1352 1102 c 0
 1476 1102 1580 1056 1664 968 c 0
 1748 880 1788 772 1788 648 c 0
490 532 m 0
 546 532 596 577 596 636 c 0
 596 692 540 742 484 742 c 0
 422 742 380 699 380 636 c 0
 380 575 428 532 490 532 c 0
EndSplineSet
EndChar

StartChar: ta_nja
Encoding: 2974 2974 16
Width: 2292
VWidth: 2096
GlyphClass: 2
Flags: HMW
LayerCount: 2
Fore
SplineSet
1896 672 m 0
 2140 672 2292 444 2292 188 c 0
 2292 76 2264 -34 2214 -140 c 0
 2076 -438 1754 -610 1320 -610 c 0
 1004 -610 738 -516 530 -334 c 0
 312 -144 200 108 200 422 c 0
 200 734 284 962 444 1104 c 1
 560 992 l 1
 428 870 362 680 362 430 c 0
 362 162 454 -54 642 -220 c 0
 822 -378 1048 -458 1320 -458 c 0
 1676 -458 1916 -336 2046 -86 c 1
 2092 6 2116 96 2116 190 c 0
 2116 356 2032 500 1874 500 c 0
 1807 500 1728 456 1728 388 c 2
 1728 14 l 1
 1562 14 l 1
 1562 910 l 1
 1120 910 l 2
 890 910 720 731 720 500 c 0
 720 416 740 338 784 264 c 1
 782 284 780 302 780 322 c 0
 780 474 885 588 1036 588 c 0
 1204 588 1320 447 1320 278 c 0
 1320 100 1191 -26 1012 -26 c 0
 870 -26 758 26 672 136 c 1
 592 236 554 362 554 506 c 0
 554 674 604 814 710 920 c 0
 816 1026 952 1080 1122 1080 c 2
 2174 1080 l 1
 2174 910 l 1
 1728 910 l 1
 1728 580 l 1
 1762 640 1816 672 1896 672 c 0
1024 140 m 0
 1102 140 1154 210 1154 288 c 0
 1154 364 1100 432 1024 432 c 0
 944 432 894 368 894 288 c 0
 894 210 946 140 1024 140 c 0
EndSplineSet
EndChar

StartChar: ta_ta
Encoding: 2975 2975 17
Width: 1486
VWidth: 2096
GlyphClass: 2
Flags: HMW
LayerCount: 2
Fore
SplineSet
1486 -2 m 1
 200 -2 l 1
 200 1082 l 1
 372 1082 l 1
 372 170 l 1
 1486 170 l 1
 1486 -2 l 1
EndSplineSet
EndChar

StartChar: ta_nna
Encoding: 2979 2979 18
Width: 3118
VWidth: 2096
GlyphClass: 2
Flags: HMW
LayerCount: 2
Fore
SplineSet
942 278 m 0
 942 97 815 -26 634 -26 c 0
 502 -26 398 22 316 122 c 1
 242 214 200 330 200 464 c 0
 200 664 268 818 404 936 c 1
 536 1046 702 1104 904 1104 c 0
 1056 1104 1192 1064 1314 984 c 1
 1436 1066 1566 1106 1706 1106 c 0
 1852 1106 1986 1068 2104 988 c 1
 2106 988 l 1
 2188 1050 2284 1082 2394 1082 c 2
 3118 1082 l 1
 3118 914 l 1
 2782 914 l 1
 2782 -2 l 1
 2602 -2 l 1
 2602 914 l 1
 2394 914 l 2
 2332 914 2282 898 2246 866 c 1
 2364 738 2422 588 2422 406 c 0
 2422 118 2326 -26 2126 -26 c 0
 2014 -26 1928 24 1870 128 c 1
 1826 210 1804 310 1804 432 c 0
 1804 612 1862 760 1974 876 c 1
 1906 922 1820 944 1720 944 c 0
 1610 944 1528 916 1472 866 c 1
 1596 730 1660 578 1660 406 c 0
 1660 168 1569 -26 1352 -26 c 0
 1240 -26 1154 24 1098 128 c 1
 1052 210 1030 310 1030 432 c 0
 1030 602 1084 746 1192 868 c 1
 1106 914 1010 938 904 938 c 0
 762 938 640 898 536 818 c 0
 426 734 370 622 370 482 c 0
 370 396 388 328 422 272 c 1
 412 300 404 324 404 346 c 0
 404 485 517 588 656 588 c 0
 824 588 942 446 942 278 c 0
2238 418 m 0
 2238 570 2194 692 2110 780 c 1
 2018 700 1976 582 1976 418 c 0
 1976 240 2018 152 2110 152 c 0
 2194 152 2238 240 2238 418 c 0
1478 418 m 0
 1478 554 1428 676 1330 780 c 1
 1246 706 1202 584 1202 418 c 0
 1202 240 1246 152 1338 152 c 0
 1432 152 1478 240 1478 418 c 0
646 140 m 0
 723 140 774 212 774 288 c 0
 774 363 721 432 646 432 c 0
 568 432 518 367 518 288 c 0
 518 207 566 140 646 140 c 0
EndSplineSet
EndChar

StartChar: ta_tha
Encoding: 2980 2980 19
Width: 1516
VWidth: 2096
GlyphClass: 2
Flags: HMW
LayerCount: 2
Fore
SplineSet
1068 326 m 2
 1068 93 909 -28 676 -28 c 0
 564 -28 464 8 372 80 c 0
 276 156 228 248 228 356 c 0
 228 538 316 632 485 632 c 0
 487 632 488 632 490 632 c 1
 490 1078 l 1
 1382 1078 l 1
 1382 908 l 1
 1068 908 l 1
 1068 632 l 1
 1148 632 l 2
 1258 632 1350 590 1420 506 c 1
 1484 426 1516 330 1516 214 c 0
 1516 68 1462 -50 1356 -142 c 1
 1256 -226 1132 -272 984 -272 c 2
 478 -272 l 2
 418 -272 372 -313 372 -374 c 0
 372 -418 390 -444 428 -456 c 1
 314 -568 l 1
 238 -520 200 -452 200 -360 c 0
 200 -221 319 -112 458 -112 c 2
 988 -112 l 2
 1084 -112 1166 -80 1236 -16 c 0
 1306 48 1340 128 1340 224 c 0
 1340 366 1247 456 1104 456 c 1
 1096 458 1088 458 1068 456 c 1
 1068 326 l 2
902 632 m 1
 902 908 l 1
 660 908 l 1
 660 632 l 1
 902 632 l 1
398 352 m 0
 398 228 546 130 676 130 c 0
 818 130 894 192 902 320 c 1
 902 365 902 411 902 456 c 1
 536 456 l 2
 444 456 398 422 398 352 c 0
EndSplineSet
EndChar

StartChar: ta_na
Encoding: 2984 2984 20
Width: 1424
VWidth: 2096
GlyphClass: 2
Flags: HMW
LayerCount: 2
Fore
SplineSet
1010 500 m 0
 939 500 862 459 862 388 c 2
 862 8 l 1
 694 8 l 1
 694 908 l 1
 436 908 l 1
 436 8 l 1
 260 8 l 1
 260 1084 l 1
 1284 1084 l 1
 1284 908 l 1
 862 908 l 1
 862 586 l 1
 900 644 960 672 1040 672 c 0
 1150 672 1244 626 1316 532 c 0
 1388 438 1424 330 1424 206 c 0
 1424 -77 1179 -272 886 -272 c 2
 478 -272 l 2
 418 -272 372 -313 372 -374 c 0
 372 -418 390 -444 428 -456 c 1
 314 -568 l 1
 238 -520 200 -452 200 -360 c 0
 200 -222 318 -112 456 -112 c 2
 890 -112 l 2
 982 -112 1064 -80 1136 -16 c 0
 1208 48 1244 122 1244 214 c 0
 1244 363 1153 500 1010 500 c 0
EndSplineSet
EndChar

StartChar: ta_nnna
Encoding: 2985 2985 21
Width: 2260
VWidth: 2096
GlyphClass: 2
Flags: HMW
LayerCount: 2
Fore
SplineSet
646 140 m 0
 723 140 774 212 774 288 c 0
 774 363 721 432 646 432 c 0
 568 432 518 367 518 288 c 0
 518 207 566 140 646 140 c 0
1478 418 m 0
 1478 560 1434 680 1342 776 c 1
 1248 696 1202 576 1202 418 c 0
 1202 240 1246 152 1338 152 c 0
 1432 152 1478 240 1478 418 c 0
200 464 m 0
 200 858 502 1104 904 1104 c 0
 1056 1104 1192 1066 1314 986 c 1
 1398 1046 1494 1078 1600 1080 c 1
 1820 1080 2040 1080 2260 1080 c 1
 2260 914 l 1
 2008 914 l 1
 2008 8 l 1
 1830 8 l 1
 1830 914 l 1
 1618 914 l 2
 1560 914 1518 898 1484 866 c 1
 1602 737 1660 634 1660 406 c 0
 1660 168 1569 -26 1352 -26 c 0
 1240 -26 1154 24 1098 128 c 1
 1052 210 1030 310 1030 432 c 0
 1030 602 1084 746 1192 868 c 1
 1104 914 1008 938 904 938 c 0
 752 938 624 894 524 808 c 0
 424 722 370 614 370 482 c 0
 370 398 388 328 422 272 c 1
 414 298 409 325 409 351 c 0
 409 412 431 472 472 514 c 0
 520 564 582 588 656 588 c 0
 824 588 942 446 942 278 c 0
 942 97 815 -26 634 -26 c 0
 502 -26 396 22 316 122 c 0
 242 216 200 332 200 464 c 0
EndSplineSet
EndChar

StartChar: ta_pa
Encoding: 2986 2986 22
Width: 1396
VWidth: 2096
GlyphClass: 2
Flags: HMW
LayerCount: 2
Fore
SplineSet
1396 -2 m 1
 200 -2 l 1
 200 1082 l 1
 372 1082 l 1
 372 170 l 1
 1224 170 l 1
 1224 1082 l 1
 1396 1082 l 1
 1396 -2 l 1
EndSplineSet
EndChar

StartChar: ta_ma
Encoding: 2990 2990 23
Width: 1690
VWidth: 2096
GlyphClass: 2
Flags: HMW
LayerCount: 2
Fore
SplineSet
810 780 m 2
 810 962 955 1108 1136 1108 c 0
 1296 1108 1430 1036 1538 892 c 0
 1638 760 1690 610 1690 444 c 0
 1690 178 1533 0 1266 0 c 2
 200 0 l 1
 200 1078 l 1
 378 1078 l 1
 378 178 l 1
 810 178 l 1
 810 780 l 2
1146 934 m 0
 1067 934 998 867 998 788 c 2
 998 178 l 1
 1302 178 l 2
 1430 178 1490 262 1490 430 c 0
 1490 540 1462 646 1402 752 c 0
 1332 874 1250 934 1146 934 c 0
EndSplineSet
EndChar

StartChar: ta_ya
Encoding: 2991 2991 24
Width: 1480
VWidth: 2096
GlyphClass: 2
Flags: HMW
LayerCount: 2
Fore
SplineSet
380 302 m 2
 380 223 436 144 514 144 c 0
 558 144 594 160 620 196 c 0
 646 232 658 270 658 314 c 2
 658 1080 l 1
 836 1080 l 1
 836 146 l 1
 1312 146 l 1
 1312 1080 l 1
 1480 1080 l 1
 1480 -8 l 1
 682 -8 l 1
 682 86 l 1
 644 12 590 -24 520 -24 c 0
 306 -24 200 76 200 278 c 2
 200 1080 l 1
 380 1080 l 1
 380 302 l 2
EndSplineSet
EndChar

StartChar: ta_ra
Encoding: 2992 2992 25
Width: 1262
VWidth: 2096
GlyphClass: 2
Flags: HMW
LayerCount: 2
Fore
SplineSet
874 -2 m 1
 656 -70 494 -225 418 -434 c 1
 268 -334 l 1
 312 -228 376 -136 452 -62 c 1
 526 8 606 66 700 106 c 1
 700 914 l 1
 374 914 l 1
 374 2 l 1
 200 2 l 1
 200 1084 l 1
 1262 1084 l 1
 1262 914 l 1
 874 914 l 1
 874 -2 l 1
EndSplineSet
EndChar

StartChar: ta_rra
Encoding: 2993 2993 26
Width: 1500
VWidth: 2096
GlyphClass: 2
Flags: HMW
LayerCount: 2
Fore
SplineSet
260 792 m 2
 260 965 411 1108 584 1108 c 0
 676 1108 752 1074 812 1004 c 1
 872 1074 954 1108 1060 1108 c 0
 1218 1108 1336 1034 1410 886 c 1
 1470 770 1500 624 1500 452 c 0
 1500 63 1292 -272 924 -272 c 2
 480 -272 l 2
 420 -272 372 -314 372 -374 c 0
 372 -418 394 -444 432 -456 c 1
 316 -572 l 1
 240 -524 200 -454 200 -360 c 0
 200 -222 320 -110 458 -110 c 2
 928 -110 l 2
 1062 -110 1166 -46 1240 84 c 1
 1300 192 1332 320 1332 466 c 0
 1332 689 1254 934 1058 934 c 0
 975 934 904 863 904 780 c 2
 904 -2 l 1
 720 -2 l 1
 720 780 l 2
 720 859 658 934 578 934 c 0
 503 934 446 855 446 780 c 2
 446 -2 l 1
 260 -2 l 1
 260 792 l 2
EndSplineSet
EndChar

StartChar: ta_la
Encoding: 2994 2994 27
Width: 1868
VWidth: 2096
GlyphClass: 2
Flags: HMW
LayerCount: 2
Fore
SplineSet
1426 124 m 0
 1609 124 1684 333 1684 538 c 0
 1684 764 1610 922 1458 1018 c 1
 1572 1140 l 1
 1768 1012 1868 820 1868 566 c 0
 1868 242 1737 -26 1436 -26 c 0
 1330 -26 1244 8 1180 80 c 0
 1116 152 1080 238 1080 344 c 2
 1080 706 l 2
 1080 780 1052 840 996 884 c 1
 946 922 880 938 804 938 c 0
 558 938 366 751 366 504 c 0
 366 408 390 326 438 262 c 1
 430 286 428 306 428 322 c 0
 428 475 530 588 682 588 c 0
 850 588 968 446 968 278 c 0
 968 97 841 -26 660 -26 c 0
 518 -26 406 26 320 136 c 1
 240 236 200 362 200 506 c 0
 200 682 260 826 372 938 c 0
 484 1050 628 1106 804 1106 c 0
 1044 1106 1252 964 1252 736 c 2
 1252 370 l 2
 1252 244 1311 124 1426 124 c 0
672 140 m 0
 749 140 800 212 800 288 c 0
 800 363 747 432 672 432 c 0
 597 432 544 363 544 288 c 0
 544 212 595 140 672 140 c 0
EndSplineSet
EndChar

StartChar: ta_lla
Encoding: 2995 2995 28
Width: 2082
VWidth: 2096
GlyphClass: 2
Flags: HMW
LayerCount: 2
Fore
SplineSet
968 278 m 0
 968 97 841 -26 660 -26 c 0
 516 -26 402 30 318 140 c 1
 242 244 200 370 200 516 c 0
 200 684 248 822 344 932 c 0
 444 1048 578 1106 744 1106 c 0
 916 1106 1036 1044 1104 920 c 1
 1104 1078 l 1
 2082 1078 l 1
 2082 914 l 1
 1786 914 l 1
 1786 2 l 1
 1612 2 l 1
 1612 914 l 1
 1276 914 l 1
 1276 2 l 1
 1104 2 l 1
 1104 652 l 2
 1104 823 943 936 764 936 c 0
 646 936 548 892 474 804 c 0
 400 716 360 614 360 494 c 0
 360 398 386 318 442 250 c 1
 432 294 428 320 428 322 c 0
 428 475 530 588 682 588 c 0
 850 588 968 446 968 278 c 0
672 140 m 0
 750 140 800 209 800 288 c 0
 800 369 752 432 672 432 c 0
 593 432 544 367 544 288 c 0
 544 207 596 140 672 140 c 0
EndSplineSet
EndChar

StartChar: ta_zha
Encoding: 2996 2996 29
Width: 1720
VWidth: 2096
GlyphClass: 2
Flags: HMW
LayerCount: 2
Fore
SplineSet
840 780 m 2
 840 962 985 1108 1166 1108 c 0
 1326 1108 1460 1036 1568 892 c 0
 1668 760 1720 610 1720 444 c 0
 1720 178 1562 0 1296 0 c 2
 1032 0 l 1
 1032 -26 l 2
 1032 -96 1084 -130 1190 -130 c 2
 1444 -130 l 1
 1444 -316 l 1
 1256 -316 l 2
 1204 -316 1148 -350 1088 -418 c 0
 994 -524 936 -588 912 -608 c 0
 826 -676 722 -708 604 -708 c 0
 504 -708 416 -682 336 -626 c 1
 244 -566 200 -490 200 -394 c 0
 200 -310 226 -236 282 -184 c 0
 338 -132 410 -106 494 -106 c 2
 700 -106 l 1
 700 -276 l 1
 486 -276 l 2
 414 -276 378 -308 378 -376 c 0
 378 -482 494 -542 608 -542 c 0
 678 -542 738 -526 786 -490 c 1
 810 -470 848 -430 896 -368 c 0
 942 -310 986 -266 1024 -240 c 1
 902 -226 842 -146 842 0 c 1
 230 0 l 1
 230 1078 l 1
 408 1078 l 1
 408 178 l 1
 840 178 l 1
 840 780 l 2
1176 934 m 0
 1097 934 1028 867 1028 788 c 2
 1028 178 l 1
 1332 178 l 2
 1460 178 1520 262 1520 430 c 0
 1520 540 1492 648 1432 752 c 0
 1362 874 1280 934 1176 934 c 0
EndSplineSet
EndChar

StartChar: ta_va
Encoding: 2997 2997 30
Width: 1938
VWidth: 2096
GlyphClass: 2
Flags: HMW
LayerCount: 2
Fore
SplineSet
972 278 m 0
 972 100 843 -26 664 -26 c 0
 524 -26 412 30 326 140 c 0
 244 244 200 366 200 508 c 0
 200 684 262 828 374 938 c 0
 486 1048 630 1104 808 1104 c 0
 986 1104 1132 1048 1250 936 c 0
 1368 824 1424 680 1424 502 c 0
 1424 384 1388 272 1314 166 c 1
 1770 166 l 1
 1770 1078 l 1
 1938 1078 l 1
 1938 -2 l 1
 1094 -2 l 1
 1084 112 l 1
 1196 210 1254 336 1254 484 c 0
 1254 744 1064 938 806 938 c 0
 684 938 580 896 496 812 c 0
 412 728 368 624 368 502 c 0
 368 418 392 338 436 264 c 1
 434 284 432 302 432 322 c 0
 432 398 452 464 500 514 c 0
 548 564 612 588 686 588 c 0
 856 588 972 448 972 278 c 0
676 140 m 0
 750 140 804 209 804 288 c 0
 804 369 756 432 676 432 c 0
 594 432 546 370 546 288 c 0
 546 208 599 140 676 140 c 0
EndSplineSet
EndChar

StartChar: ta_ssa
Encoding: 2998 2998 31
Width: 1804
GlyphClass: 2
Flags: HMW
LayerCount: 2
Fore
SplineSet
536 144 m 0
 632 144 694 254 694 356 c 2
 694 1054 l 1
 1804 1054 l 1
 1804 276 l 2
 1804 106 1665 -16 1494 -16 c 0
 1305 -16 1172 123 1172 312 c 2
 1172 888 l 1
 868 888 l 1
 868 312 l 2
 868 124 720 -16 532 -16 c 0
 357 -16 200 108 200 276 c 2
 200 1054 l 1
 376 1054 l 1
 376 296 l 2
 376 212 452 144 536 144 c 0
1492 144 m 0
 1575 144 1630 213 1630 296 c 2
 1630 888 l 1
 1348 888 l 1
 1348 356 l 2
 1348 249 1395 144 1492 144 c 0
EndSplineSet
EndChar

StartChar: ta_sha
Encoding: 2999 2999 32
Width: 2538
VWidth: 2096
GlyphClass: 2
Flags: HMW
LayerCount: 2
Fore
SplineSet
2148 500 m 1
 2270 522 2400 605 2400 734 c 1
 2538 734 l 1
 2538 -2 l 1
 2148 -2 l 1
 2148 -544 l 1
 1972 -544 l 1
 1972 -2 l 1
 1070 -2 l 1
 1058 118 l 1
 1174 214 1228 340 1228 496 c 0
 1228 761 1082 936 818 936 c 0
 694 936 588 894 500 812 c 0
 412 730 368 626 368 502 c 0
 368 418 392 338 436 264 c 1
 434 284 432 302 432 322 c 0
 432 398 452 464 500 514 c 0
 548 564 612 588 686 588 c 0
 856 588 972 448 972 278 c 0
 972 100 843 -26 664 -26 c 0
 524 -26 412 30 326 140 c 0
 244 244 200 366 200 508 c 0
 200 684 260 828 380 938 c 0
 500 1048 648 1104 820 1104 c 0
 988 1104 1130 1048 1238 938 c 0
 1346 828 1398 686 1398 514 c 0
 1398 392 1362 278 1290 170 c 1
 1972 170 l 1
 1972 320 l 1
 1836 320 1716 358 1620 434 c 1
 1514 516 1464 624 1464 758 c 0
 1464 971 1623 1104 1836 1104 c 0
 1928 1104 2000 1074 2060 1022 c 0
 2120 970 2148 900 2148 808 c 2
 2148 500 l 1
2360 170 m 1
 2360 420 l 1
 2296 360 2228 328 2148 324 c 1
 2148 170 l 1
 2360 170 l 1
1820 932 m 0
 1710 932 1634 864 1634 754 c 0
 1634 672 1670 604 1742 554 c 0
 1806 510 1886 490 1972 490 c 1
 1972 796 l 2
 1972 878 1902 932 1820 932 c 0
676 140 m 0
 750 140 804 209 804 288 c 0
 804 369 756 432 676 432 c 0
 598 432 546 366 546 288 c 0
 546 208 596 140 676 140 c 0
EndSplineSet
EndChar

StartChar: ta_sa
Encoding: 3000 3000 33
Width: 2334
VWidth: 2096
GlyphClass: 2
Flags: HMW
LayerCount: 2
Fore
SplineSet
1904 124 m 0
 2091 124 2160 328 2160 538 c 0
 2160 764 2084 922 1932 1018 c 1
 2050 1140 l 1
 2240 1016 2334 826 2334 566 c 0
 2334 236 2213 -26 1910 -26 c 0
 1806 -26 1724 8 1656 80 c 0
 1588 152 1558 238 1558 344 c 2
 1558 814 l 2
 1558 885 1491 940 1418 940 c 1
 1416 940 1414 940 1412 940 c 0
 1316 940 1270 892 1270 790 c 2
 1270 0 l 1
 1100 0 l 1
 1100 694 l 2
 1100 860 1000 940 798 940 c 0
 678 940 576 898 492 812 c 0
 408 726 368 624 368 502 c 0
 368 418 390 338 434 264 c 1
 430 284 428 302 428 322 c 0
 428 476 530 588 684 588 c 0
 852 588 970 446 970 278 c 0
 970 96 842 -26 660 -26 c 0
 524 -26 410 30 322 140 c 1
 242 244 200 366 200 508 c 0
 200 666 254 806 360 922 c 0
 472 1044 612 1104 776 1106 c 1
 781 1106 787 1106 792 1106 c 0
 947 1106 1104 1050 1152 948 c 1
 1172 1040 1301 1106 1414 1106 c 0
 1572 1106 1728 1005 1728 850 c 2
 1728 344 l 2
 1728 198 1788 124 1904 124 c 0
672 140 m 0
 748 140 800 207 800 288 c 0
 800 369 752 432 672 432 c 0
 593 432 546 366 546 288 c 0
 546 208 591 140 672 140 c 0
EndSplineSet
EndChar

StartChar: ta_ha
Encoding: 3001 3001 34
Width: 2876
VWidth: 2096
GlyphClass: 2
Flags: HMW
LayerCount: 2
Fore
SplineSet
1638 792 m 2
 1638 964 1788 1108 1960 1108 c 0
 2052 1108 2130 1074 2190 1004 c 1
 2250 1074 2332 1108 2438 1108 c 0
 2596 1108 2712 1034 2786 886 c 1
 2846 770 2876 624 2876 452 c 0
 2876 256 2832 92 2740 -40 c 0
 2634 -192 2488 -272 2300 -272 c 2
 480 -272 l 2
 421 -272 374 -315 374 -374 c 0
 374 -418 394 -444 432 -456 c 1
 316 -572 l 1
 240 -524 200 -454 200 -360 c 0
 200 -221 321 -110 460 -110 c 2
 2306 -110 l 2
 2440 -110 2544 -46 2618 84 c 1
 2678 192 2708 320 2708 466 c 0
 2708 691 2633 934 2436 934 c 0
 2351 934 2280 866 2280 780 c 2
 2280 -2 l 1
 2096 -2 l 1
 2096 780 l 2
 2096 860 2037 934 1956 934 c 0
 1881 934 1824 855 1824 780 c 2
 1824 -2 l 1
 1094 -2 l 1
 1082 118 l 1
 1198 214 1252 340 1252 496 c 0
 1252 761 1106 936 842 936 c 0
 718 936 612 894 524 812 c 0
 436 730 392 626 392 502 c 0
 392 418 416 338 460 264 c 1
 458 284 456 302 456 322 c 0
 456 398 476 464 524 514 c 0
 572 564 636 588 710 588 c 0
 880 588 996 448 996 278 c 0
 996 100 867 -26 688 -26 c 0
 548 -26 436 30 350 140 c 0
 268 244 224 366 224 508 c 0
 224 684 284 828 404 938 c 0
 524 1048 672 1104 844 1104 c 0
 1012 1104 1154 1048 1262 938 c 0
 1370 828 1422 686 1422 514 c 0
 1422 392 1386 278 1314 170 c 1
 1363 171 1414 172 1468 172 c 0
 1522 172 1579 171 1638 170 c 1
 1638 792 l 2
700 140 m 0
 774 140 828 209 828 288 c 0
 828 369 780 432 700 432 c 0
 622 432 570 366 570 288 c 0
 570 208 620 140 700 140 c 0
EndSplineSet
EndChar

StartChar: ta_aa_sign
Encoding: 3006 3006 35
Width: 1176
GlyphClass: 2
Flags: HMW
LayerCount: 2
Fore
SplineSet
1176 892 m 1
 846 892 l 1
 846 -2 l 1
 678 -2 l 1
 678 892 l 1
 370 892 l 1
 370 2 l 1
 200 2 l 1
 200 1058 l 1
 1176 1058 l 1
 1176 892 l 1
EndSplineSet
EndChar

StartChar: ta_i_sign
Encoding: 3007 3007 36
Width: 1128
GlyphClass: 2
Flags: HMW
LayerCount: 2
Fore
SplineSet
662 1700 m 0
 786 1700 896 1658 988 1576 c 0
 1080 1494 1128 1394 1128 1272 c 2
 1128 0 l 1
 948 0 l 1
 948 1260 l 2
 948 1408 810 1520 662 1520 c 0
 496 1520 368 1448 368 1292 c 0
 368 1190 438 1092 512 1060 c 1
 528 1056 508 1054 508 1054 c 1
 508 1054 271 1057 271 1066 c 0
 271 1067 276 1068 288 1070 c 1
 228 1134 200 1210 200 1300 c 0
 200 1552 402 1700 662 1700 c 0
EndSplineSet
EndChar

StartChar: ta_ii_sign
Encoding: 3008 3008 37
Width: 1016
GlyphClass: 2
Flags: HMW
LayerCount: 2
Fore
SplineSet
676 1744 m 0
 870 1744 1016 1632 1016 1440 c 0
 1016 1276 913 1148 750 1148 c 0
 598 1148 484 1264 484 1416 c 0
 484 1460 492 1500 506 1536 c 1
 414 1484 368 1408 368 1304 c 0
 368 1260 382 1214 410 1164 c 1
 470 1049 494 1044 499 1044 c 1
 495 1043 476 1040 449 1040 c 0
 363 1040 200 1072 200 1312 c 0
 200 1444 248 1550 342 1632 c 0
 430 1708 542 1744 676 1744 c 0
734 1296 m 0
 798 1296 844 1366 844 1430 c 0
 844 1492 797 1562 734 1562 c 0
 669 1562 624 1494 624 1430 c 0
 624 1364 668 1296 734 1296 c 0
EndSplineSet
EndChar

StartChar: ta_u_sign
Encoding: 3009 3009 38
Width: 1438
GlyphClass: 2
Flags: HMW
LayerCount: 2
Fore
SplineSet
1080 1078 m 2
 1276 1078 1438 916 1438 720 c 0
 1438 522 1278 362 1080 362 c 0
 883 362 724 523 724 720 c 0
 724 780 738 836 766 888 c 1
 200 888 l 1
 200 1078 l 1
 1080 1078 l 2
1080 532 m 0
 1182 532 1266 617 1266 720 c 0
 1266 822 1182 904 1080 904 c 0
 978 904 894 822 894 720 c 0
 894 617 978 532 1080 532 c 0
EndSplineSet
EndChar

StartChar: ta_uu_sign
Encoding: 3010 3010 39
Width: 2194
GlyphClass: 2
Flags: HMW
LayerCount: 2
Fore
SplineSet
1570 864 m 0
 1570 668 1433 506 1238 506 c 0
 1142 506 1062 544 998 618 c 0
 934 692 902 778 902 876 c 2
 902 996 l 1
 200 1006 l 1
 202 1170 l 1
 902 1174 l 1
 902 1358 958 1510 1072 1634 c 0
 1186 1758 1336 1820 1518 1820 c 0
 1724 1820 1892 1740 2018 1578 c 1
 2136 1430 2194 1252 2194 1040 c 0
 2194 800 2118 596 1962 426 c 0
 1802 252 1602 164 1366 164 c 0
 1146 164 958 244 800 404 c 1
 898 536 l 1
 1026 404 1180 338 1360 338 c 0
 1552 338 1712 408 1840 548 c 1
 1966 682 2030 846 2030 1038 c 0
 2030 1202 1986 1342 1898 1458 c 1
 1802 1588 1674 1652 1518 1652 c 0
 1386 1652 1278 1606 1196 1514 c 0
 1114 1422 1072 1308 1072 1174 c 1
 1262 1174 l 2
 1446 1174 1570 1048 1570 864 c 0
1238 678 m 0
 1338 678 1398 764 1398 864 c 0
 1398 946 1338 986 1214 986 c 2
 1072 986 l 1
 1072 876 l 2
 1072 771 1139 678 1238 678 c 0
EndSplineSet
EndChar

StartChar: ta_e_sign
Encoding: 3014 3014 40
Width: 1588
GlyphClass: 2
Flags: HMW
LayerCount: 2
Fore
SplineSet
1342 332 m 0
 1342 107 1174 -26 948 -26 c 0
 716 -26 532 64 392 244 c 0
 264 408 200 612 200 850 c 0
 200 1084 272 1280 416 1438 c 1
 564 1602 754 1684 982 1684 c 0
 1152 1684 1292 1636 1406 1538 c 1
 1528 1436 1588 1302 1588 1136 c 2
 1588 2 l 1
 1424 2 l 1
 1424 1120 l 2
 1424 1358 1222 1516 974 1516 c 0
 794 1516 650 1454 538 1330 c 0
 426 1206 370 1052 370 872 c 0
 370 553 504 279 720 184 c 1
 674 240 650 306 650 380 c 0
 650 560 815 700 998 700 c 0
 1210 700 1342 544 1342 332 c 0
998 136 m 0
 1096 136 1176 239 1176 338 c 0
 1176 438 1098 540 998 540 c 0
 896 540 818 439 818 338 c 0
 818 238 898 136 998 136 c 0
EndSplineSet
EndChar

StartChar: ta_ee_sign
Encoding: 3015 3015 41
Width: 1492
GlyphClass: 2
Flags: HMW
LayerCount: 2
Fore
SplineSet
1482 408 m 0
 1482 145 1247 0 970 0 c 0
 734 0 546 84 404 248 c 0
 268 404 200 602 200 842 c 0
 200 1078 268 1276 400 1436 c 0
 542 1608 728 1692 958 1692 c 0
 1100 1692 1220 1660 1320 1596 c 1
 1434 1520 1492 1416 1492 1280 c 0
 1492 1095 1358 940 1174 940 c 0
 983 940 852 1094 852 1286 c 0
 852 1378 894 1458 976 1522 c 1
 794 1522 648 1454 540 1320 c 1
 442 1196 394 1042 394 856 c 0
 394 676 438 524 528 394 c 1
 628 246 764 170 934 170 c 0
 948 170 950 170 964 170 c 1
 882 222 840 302 840 406 c 0
 840 598 971 752 1162 752 c 0
 1347 752 1482 593 1482 408 c 0
1172 1116 m 0
 1258 1116 1320 1201 1320 1286 c 0
 1320 1371 1258 1456 1172 1456 c 0
 1088 1456 1026 1370 1026 1286 c 0
 1026 1202 1088 1116 1172 1116 c 0
1160 232 m 0
 1246 232 1308 320 1308 406 c 0
 1308 491 1246 576 1160 576 c 0
 1076 576 1014 490 1014 406 c 0
 1014 321 1076 232 1160 232 c 0
EndSplineSet
EndChar

StartChar: ta_ai_sign
Encoding: 3016 3016 42
Width: 2024
GlyphClass: 2
Flags: HMW
LayerCount: 2
Fore
SplineSet
894 302 m 0
 894 140 768 16 606 16 c 0
 484 16 384 64 308 158 c 1
 234 246 200 352 200 476 c 0
 200 656 264 802 396 918 c 0
 522 1030 676 1086 858 1086 c 0
 1000 1086 1130 1050 1238 980 c 1
 1334 1054 1428 1090 1520 1090 c 0
 1676 1090 1804 1034 1896 918 c 0
 1982 810 2024 676 2024 514 c 0
 2024 304 1966 140 1848 16 c 1
 1720 116 l 1
 1816 212 1864 344 1864 516 c 0
 1864 737 1742 932 1528 932 c 0
 1482 932 1430 922 1376 894 c 1
 1502 786 1566 626 1566 422 c 0
 1566 206 1480 16 1278 16 c 0
 1071 16 976 219 976 446 c 0
 976 622 1024 766 1112 874 c 1
 1044 906 956 922 858 922 c 0
 724 922 608 886 512 812 c 0
 408 732 360 626 360 494 c 0
 360 404 376 336 406 294 c 1
 396 316 392 340 392 366 c 0
 392 496 496 592 626 592 c 0
 784 592 894 459 894 302 c 0
1396 434 m 0
 1396 582 1348 700 1252 788 c 1
 1176 700 1136 582 1136 434 c 0
 1136 270 1180 184 1264 184 c 0
 1352 184 1396 270 1396 434 c 0
616 174 m 0
 690 174 736 237 736 310 c 0
 736 383 690 446 616 446 c 0
 543 446 494 382 494 310 c 0
 494 238 543 174 616 174 c 0
EndSplineSet
EndChar

StartChar: ta_o_sign
Encoding: 3018 3018 43
Width: 3728
GlyphClass: 2
Flags: HMW
LayerCount: 2
Fore
SplineSet
3728 892 m 1
 3396 892 l 1
 3396 -2 l 1
 3228 -2 l 1
 3228 892 l 1
 2920 892 l 1
 2920 2 l 1
 2750 2 l 1
 2750 1058 l 1
 3728 1058 l 1
 3728 892 l 1
2512 938 m 1
 2452 878 l 1
 2400 934 2328 970 2236 988 c 1
 2240 1076 l 1
 2352 1058 2442 1012 2512 938 c 1
2678 584 m 1
 2594 584 l 1
 2584 664 2564 730 2528 784 c 1
 2588 848 l 1
 2646 764 2674 676 2678 584 c 1
2116 988 m 1
 2032 970 1964 938 1910 890 c 1
 1850 950 l 1
 1920 1024 2008 1066 2114 1076 c 1
 2116 988 l 1
2678 468 m 1
 2672 370 2642 286 2590 212 c 1
 2528 272 l 1
 2570 336 2590 400 2594 468 c 1
 2678 468 l 1
1832 796 m 1
 1790 728 1764 658 1756 584 c 1
 1672 584 l 1
 1680 680 1712 770 1768 856 c 1
 1832 796 l 1
2512 116 m 1
 2442 42 2350 -4 2236 -22 c 1
 2236 64 l 1
 2320 76 2392 114 2452 176 c 1
 2512 116 l 1
1832 256 m 1
 1772 196 l 1
 1712 272 1678 362 1672 468 c 1
 1756 468 l 1
 1762 386 1788 316 1832 256 c 1
2116 64 m 1
 2114 -22 l 1
 2014 -8 1924 36 1848 106 c 1
 1908 166 l 1
 1956 112 2024 76 2116 64 c 1
1342 332 m 0
 1342 107 1174 -26 948 -26 c 0
 716 -26 532 64 392 244 c 0
 264 408 200 612 200 850 c 0
 200 1084 272 1280 416 1438 c 1
 564 1602 754 1684 982 1684 c 0
 1152 1684 1292 1636 1406 1538 c 1
 1528 1436 1588 1302 1588 1136 c 2
 1588 2 l 1
 1424 2 l 1
 1424 1120 l 2
 1424 1358 1222 1516 974 1516 c 0
 794 1516 650 1454 538 1330 c 0
 426 1206 370 1052 370 872 c 0
 370 553 504 279 720 184 c 1
 674 240 650 306 650 380 c 0
 650 560 815 700 998 700 c 0
 1210 700 1342 544 1342 332 c 0
998 136 m 0
 1096 136 1176 239 1176 338 c 0
 1176 438 1098 540 998 540 c 0
 896 540 818 439 818 338 c 0
 818 238 898 136 998 136 c 0
EndSplineSet
EndChar

StartChar: ta_anuswara
Encoding: 2946 2946 44
Width: 1206
GlyphClass: 2
Flags: HMW
LayerCount: 2
Fore
SplineSet
700 1750 m 0
 871 1750 1002 1609 1002 1438 c 0
 1002 1358 974 1290 914 1232 c 0
 854 1174 784 1144 702 1144 c 0
 628 1144 560 1174 496 1234 c 0
 432 1294 400 1362 400 1436 c 0
 400 1610 526 1750 700 1750 c 0
1040 938 m 1
 980 878 l 1
 928 934 856 970 764 988 c 1
 768 1076 l 1
 880 1058 970 1012 1040 938 c 1
1206 584 m 1
 1122 584 l 1
 1112 664 1092 730 1056 784 c 1
 1116 848 l 1
 1174 764 1202 676 1206 584 c 1
644 988 m 1
 560 970 492 938 438 890 c 1
 378 950 l 1
 448 1024 536 1066 642 1076 c 1
 644 988 l 1
1206 468 m 1
 1200 370 1170 286 1118 212 c 1
 1056 272 l 1
 1098 336 1118 400 1122 468 c 1
 1206 468 l 1
360 796 m 1
 318 728 292 658 284 584 c 1
 200 584 l 1
 208 680 240 770 296 856 c 1
 360 796 l 1
1040 116 m 1
 970 42 878 -4 764 -22 c 1
 764 64 l 1
 848 76 920 114 980 176 c 1
 1040 116 l 1
360 256 m 1
 300 196 l 1
 240 272 206 362 200 468 c 1
 284 468 l 1
 290 386 316 316 360 256 c 1
644 64 m 1
 642 -22 l 1
 542 -8 452 36 376 106 c 1
 436 166 l 1
 484 112 552 76 644 64 c 1
702 1304 m 0
 779 1304 848 1363 848 1440 c 0
 848 1523 787 1598 704 1598 c 0
 626 1598 558 1525 558 1448 c 0
 558 1370 623 1304 702 1304 c 0
EndSplineSet
EndChar

StartChar: ta_visarga
Encoding: 2947 2947 45
Width: 1710
GlyphClass: 2
Flags: HMW
LayerCount: 2
Fore
SplineSet
672 1352 m 0
 672 1519 783 1666 950 1666 c 0
 1034 1666 1102 1636 1154 1574 c 0
 1206 1512 1232 1438 1232 1354 c 0
 1232 1198 1109 1060 954 1060 c 0
 884 1060 820 1092 760 1152 c 0
 700 1212 672 1280 672 1352 c 0
1148 260 m 0
 1148 425 1262 574 1428 574 c 0
 1512 574 1580 544 1632 482 c 0
 1684 420 1710 346 1710 262 c 0
 1710 107 1585 -32 1430 -32 c 0
 1290 -32 1148 119 1148 260 c 0
200 260 m 0
 200 425 314 574 480 574 c 0
 564 574 632 544 684 482 c 0
 736 420 762 346 762 262 c 0
 762 107 637 -32 482 -32 c 0
 342 -32 200 119 200 260 c 0
952 1228 m 0
 1018 1228 1076 1289 1076 1356 c 0
 1076 1430 1028 1502 954 1502 c 0
 884 1502 830 1434 830 1364 c 0
 830 1296 885 1228 952 1228 c 0
1428 136 m 0
 1495 136 1552 197 1552 264 c 0
 1552 334 1503 410 1432 410 c 0
 1361 410 1304 342 1304 272 c 0
 1304 203 1360 136 1428 136 c 0
480 136 m 0
 547 136 604 197 604 264 c 0
 604 334 555 410 484 410 c 0
 413 410 356 342 356 272 c 0
 356 203 412 136 480 136 c 0
EndSplineSet
EndChar

StartChar: ta_oo_sign
Encoding: 3019 3019 46
Width: 3616
GlyphClass: 2
Flags: HMW
LayerCount: 2
Fore
SplineSet
3616 892 m 1
 3284 892 l 1
 3284 -2 l 1
 3116 -2 l 1
 3116 892 l 1
 2808 892 l 1
 2808 2 l 1
 2638 2 l 1
 2638 1058 l 1
 3616 1058 l 1
 3616 892 l 1
2400 938 m 1
 2340 878 l 1
 2288 934 2216 970 2124 988 c 1
 2128 1076 l 1
 2240 1058 2330 1012 2400 938 c 1
2566 584 m 1
 2482 584 l 1
 2472 664 2452 730 2416 784 c 1
 2476 848 l 1
 2534 764 2562 676 2566 584 c 1
2004 988 m 1
 1920 970 1852 938 1798 890 c 1
 1738 950 l 1
 1808 1024 1896 1066 2002 1076 c 1
 2004 988 l 1
2566 468 m 1
 2560 370 2530 286 2478 212 c 1
 2416 272 l 1
 2458 336 2478 400 2482 468 c 1
 2566 468 l 1
1720 796 m 1
 1678 728 1652 658 1644 584 c 1
 1560 584 l 1
 1568 680 1600 770 1656 856 c 1
 1720 796 l 1
2400 116 m 1
 2330 42 2238 -4 2124 -22 c 1
 2124 64 l 1
 2208 76 2280 114 2340 176 c 1
 2400 116 l 1
1720 256 m 1
 1660 196 l 1
 1600 272 1566 362 1560 468 c 1
 1644 468 l 1
 1650 386 1676 316 1720 256 c 1
2004 64 m 1
 2002 -22 l 1
 1902 -8 1812 36 1736 106 c 1
 1796 166 l 1
 1844 112 1912 76 2004 64 c 1
1482 408 m 0
 1482 145 1247 0 970 0 c 0
 734 0 546 84 404 248 c 0
 268 404 200 602 200 842 c 0
 200 1078 268 1276 400 1436 c 0
 542 1608 728 1692 958 1692 c 0
 1100 1692 1220 1660 1320 1596 c 1
 1434 1520 1492 1416 1492 1280 c 0
 1492 1095 1358 940 1174 940 c 0
 983 940 852 1094 852 1286 c 0
 852 1378 894 1458 976 1522 c 1
 794 1522 648 1454 540 1320 c 1
 442 1196 394 1042 394 856 c 0
 394 676 438 524 528 394 c 1
 628 246 764 170 934 170 c 0
 948 170 950 170 964 170 c 1
 882 222 840 302 840 406 c 0
 840 598 971 752 1162 752 c 0
 1347 752 1482 593 1482 408 c 0
1172 1116 m 0
 1258 1116 1320 1201 1320 1286 c 0
 1320 1371 1258 1456 1172 1456 c 0
 1088 1456 1026 1370 1026 1286 c 0
 1026 1202 1088 1116 1172 1116 c 0
1160 232 m 0
 1246 232 1308 320 1308 406 c 0
 1308 491 1246 576 1160 576 c 0
 1076 576 1014 490 1014 406 c 0
 1014 321 1076 232 1160 232 c 0
EndSplineSet
EndChar

StartChar: ta_au_sign
Encoding: 3020 3020 47
Width: 4178
GlyphClass: 2
Flags: HMW
LayerCount: 2
Fore
SplineSet
3112 184 m 0
 2898 184 2762 378 2762 600 c 0
 2762 726 2800 834 2876 920 c 0
 2952 1006 3052 1048 3176 1048 c 0
 3296 1048 3384 1008 3440 924 c 1
 3440 1028 l 1
 4178 1028 l 1
 4178 892 l 1
 3958 892 l 1
 3958 208 l 1
 3816 208 l 1
 3816 892 l 1
 3576 892 l 1
 3576 208 l 1
 3440 208 l 1
 3440 704 l 2
 3440 827 3319 910 3190 910 c 0
 3019 910 2894 756 2894 584 c 0
 2894 530 2908 478 2936 432 c 1
 2934 442 2932 450 2932 454 c 0
 2932 573 3010 660 3130 660 c 0
 3260 660 3348 552 3348 422 c 0
 3348 283 3250 184 3112 184 c 0
2512 938 m 1
 2452 878 l 1
 2400 934 2328 970 2236 988 c 1
 2240 1076 l 1
 2352 1058 2442 1012 2512 938 c 1
2678 584 m 1
 2594 584 l 1
 2584 664 2564 730 2528 784 c 1
 2588 848 l 1
 2646 764 2674 676 2678 584 c 1
2116 988 m 1
 2032 970 1964 938 1910 890 c 1
 1850 950 l 1
 1920 1024 2008 1066 2114 1076 c 1
 2116 988 l 1
2678 468 m 1
 2672 370 2642 286 2590 212 c 1
 2528 272 l 1
 2570 336 2590 400 2594 468 c 1
 2678 468 l 1
1832 796 m 1
 1790 728 1764 658 1756 584 c 1
 1672 584 l 1
 1680 680 1712 770 1768 856 c 1
 1832 796 l 1
2512 116 m 1
 2442 42 2350 -4 2236 -22 c 1
 2236 64 l 1
 2320 76 2392 114 2452 176 c 1
 2512 116 l 1
1832 256 m 1
 1772 196 l 1
 1712 272 1678 362 1672 468 c 1
 1756 468 l 1
 1762 386 1788 316 1832 256 c 1
2116 64 m 1
 2114 -22 l 1
 2014 -8 1924 36 1848 106 c 1
 1908 166 l 1
 1956 112 2024 76 2116 64 c 1
1342 332 m 0
 1342 107 1174 -26 948 -26 c 0
 716 -26 532 64 392 244 c 0
 264 408 200 612 200 850 c 0
 200 1084 272 1280 416 1438 c 1
 564 1602 754 1684 982 1684 c 0
 1152 1684 1292 1636 1406 1538 c 1
 1528 1436 1588 1302 1588 1136 c 2
 1588 2 l 1
 1424 2 l 1
 1424 1120 l 2
 1424 1358 1222 1516 974 1516 c 0
 794 1516 650 1454 538 1330 c 0
 426 1206 370 1052 370 872 c 0
 370 553 504 279 720 184 c 1
 674 240 650 306 650 380 c 0
 650 560 815 700 998 700 c 0
 1210 700 1342 544 1342 332 c 0
3212 430 m 0
 3212 498 3180 532 3120 532 c 0
 3060 532 3032 498 3032 430 c 0
 3032 360 3060 324 3120 324 c 0
 3180 324 3212 360 3212 430 c 0
998 136 m 0
 1096 136 1176 239 1176 338 c 0
 1176 438 1098 540 998 540 c 0
 896 540 818 439 818 338 c 0
 818 238 898 136 998 136 c 0
EndSplineSet
EndChar

StartChar: ta_virama
Encoding: 3021 3021 48
Width: 524
GlyphClass: 2
Flags: HMW
LayerCount: 2
Fore
SplineSet
360 1592 m 0
 455 1592 524 1496 524 1402 c 0
 524 1303 454 1210 360 1210 c 0
 269 1210 200 1305 200 1402 c 0
 200 1494 268 1592 360 1592 c 0
EndSplineSet
EndChar

StartChar: ta_zero
Encoding: 3046 3046 49
Width: 1064
GlyphClass: 2
Flags: HMW
LayerCount: 2
Fore
SplineSet
1064 760 m 0
 1064 564 1038 398 986 264 c 0
 912 72 796 -24 634 -24 c 0
 470 -24 350 72 276 264 c 0
 224 398 200 564 200 760 c 0
 200 956 226 1124 278 1258 c 0
 352 1452 470 1548 634 1548 c 0
 796 1548 912 1452 986 1258 c 0
 1038 1124 1064 956 1064 760 c 0
950 760 m 0
 950 900 930 1028 888 1140 c 1
 832 1296 748 1372 632 1372 c 0
 518 1372 432 1296 374 1140 c 1
 330 1026 310 900 310 760 c 0
 310 622 330 498 374 384 c 1
 432 228 518 152 634 152 c 0
 748 152 832 228 888 384 c 1
 930 496 950 620 950 760 c 0
EndSplineSet
EndChar

StartChar: ta_one
Encoding: 3047 3047 50
Width: 1464
GlyphClass: 2
Flags: HMW
LayerCount: 2
Fore
SplineSet
1008 454 m 2
 1008 179 898 -22 638 -22 c 0
 586 -22 532 -6 476 22 c 0
 321 101 200 271 200 494 c 0
 200 738 293 862 478 862 c 0
 479 862 481 862 482 862 c 1
 482 1516 l 1
 1236 1516 l 1
 1236 1340 l 1
 1008 1340 l 1
 1008 862 l 1
 1164 862 l 2
 1364 862 1464 712 1464 412 c 0
 1464 194 1393 -22 1202 -22 c 0
 1158 -22 1118 -12 1082 8 c 1
 1128 152 l 1
 1148 140 1170 134 1192 134 c 0
 1288 134 1336 224 1336 404 c 0
 1336 537 1283 676 1164 676 c 2
 1008 676 l 1
 1008 454 l 2
904 862 m 1
 904 1340 l 1
 588 1340 l 1
 588 862 l 1
 904 862 l 1
638 144 m 0
 800 144 904 256 904 418 c 2
 904 676 l 1
 506 676 l 2
 397 676 316 601 316 492 c 0
 316 402 348 322 412 250 c 0
 476 178 550 144 638 144 c 0
EndSplineSet
EndChar

StartChar: ta_two
Encoding: 3048 3048 51
Width: 1348
GlyphClass: 2
Flags: HMW
LayerCount: 2
Fore
SplineSet
514 324 m 1
 428 316 302 318 302 236 c 0
 302 182 334 154 402 154 c 2
 1348 154 l 1
 1348 -4 l 1
 358 -4 l 2
 250 -4 200 112 200 230 c 0
 200 330 252 406 356 460 c 1
 264 600 220 752 220 916 c 0
 220 1127 291 1305 394 1418 c 0
 470 1500 556 1540 650 1540 c 0
 852 1540 990 1341 1040 1164 c 1
 1064 1086 1076 1002 1076 916 c 0
 1076 704 1008 529 902 416 c 1
 828 334 744 292 650 292 c 0
 606 292 560 304 514 324 c 1
970 920 m 0
 970 1028 944 1124 892 1210 c 1
 830 1310 746 1360 646 1360 c 0
 546 1360 466 1310 404 1210 c 1
 352 1124 326 1028 326 920 c 0
 326 812 352 714 404 628 c 1
 466 528 546 478 646 478 c 0
 746 478 830 528 892 628 c 1
 944 714 970 812 970 920 c 0
EndSplineSet
EndChar

StartChar: ta_three
Encoding: 3049 3049 52
Width: 1484
GlyphClass: 2
Flags: HMW
LayerCount: 2
Fore
SplineSet
916 1078 m 0
 1133 1078 1248 856 1248 622 c 0
 1248 436 1192 290 1084 184 c 1
 1484 184 l 1
 1484 24 l 1
 458 24 l 1
 458 156 l 1
 564 156 l 2
 928 156 1112 300 1112 586 c 0
 1112 745 1047 908 904 908 c 0
 777 908 704 762 704 626 c 2
 704 554 l 1
 598 554 l 1
 598 1344 l 1
 308 1344 l 1
 308 430 l 1
 200 430 l 1
 200 1516 l 1
 974 1516 l 1
 974 1344 l 1
 704 1344 l 1
 704 946 l 1
 762 1034 832 1078 916 1078 c 0
EndSplineSet
EndChar

StartChar: ta_four
Encoding: 3050 3050 53
Width: 1508
GlyphClass: 2
Flags: HMW
LayerCount: 2
Fore
SplineSet
1004 454 m 2
 1004 178 887 -22 624 -22 c 0
 570 -22 516 -6 460 24 c 0
 314 102 200 274 200 494 c 0
 200 738 289 862 469 862 c 0
 472 862 475 862 478 862 c 1
 478 1520 l 1
 1232 1520 l 1
 1232 1342 l 1
 1004 1342 l 1
 1004 862 l 1
 1392 862 l 1
 1392 1466 l 1
 1508 1466 l 1
 1508 676 l 1
 1004 676 l 1
 1004 454 l 2
900 862 m 1
 900 1342 l 1
 584 1342 l 1
 584 862 l 1
 900 862 l 1
624 144 m 0
 787 144 900 255 900 418 c 2
 900 676 l 1
 502 676 l 2
 393 676 318 600 318 492 c 0
 318 402 346 322 404 254 c 1
 464 180 538 144 624 144 c 0
EndSplineSet
EndChar

StartChar: ta_five
Encoding: 3051 3051 54
Width: 1604
GlyphClass: 2
Flags: HMW
LayerCount: 2
Fore
SplineSet
1280 1078 m 0
 1489 1078 1604 888 1604 668 c 0
 1604 476 1538 314 1406 186 c 0
 1274 58 1114 -8 924 -8 c 0
 816 -8 716 16 624 62 c 0
 362 193 200 497 200 890 c 0
 200 1098 258 1288 372 1460 c 1
 492 1384 l 1
 380 1238 324 1074 324 888 c 0
 324 546 440 314 674 196 c 0
 756 154 844 134 936 134 c 0
 1082 134 1206 182 1312 278 c 0
 1418 374 1470 494 1470 638 c 0
 1470 779 1398 908 1268 908 c 0
 1145 908 1068 760 1068 626 c 2
 1068 530 l 1
 962 530 l 1
 962 1344 l 1
 684 1344 l 1
 684 530 l 1
 576 530 l 1
 576 1516 l 1
 1338 1516 l 1
 1338 1344 l 1
 1068 1344 l 1
 1068 946 l 1
 1120 1034 1190 1078 1280 1078 c 0
EndSplineSet
EndChar

StartChar: ta_six
Encoding: 3052 3052 55
Width: 1846
GlyphClass: 2
Flags: HMW
LayerCount: 2
Fore
SplineSet
1846 680 m 1
 1652 680 l 1
 1652 0 l 1
 1544 0 l 1
 1544 680 l 1
 1340 680 l 1
 1340 0 l 1
 1232 0 l 1
 1232 458 l 2
 1232 604 1176 676 1068 676 c 2
 1008 676 l 1
 1008 454 l 2
 1008 138 884 -22 638 -22 c 0
 584 -22 528 -6 470 24 c 0
 320 103 200 277 200 494 c 0
 200 738 293 862 478 862 c 0
 479 862 481 862 482 862 c 1
 482 1516 l 1
 1236 1516 l 1
 1236 1340 l 1
 1008 1340 l 1
 1008 862 l 1
 1118 862 1198 842 1244 802 c 1
 1244 856 l 1
 1846 856 l 1
 1846 680 l 1
904 862 m 1
 904 1340 l 1
 588 1340 l 1
 588 862 l 1
 904 862 l 1
638 144 m 0
 800 144 904 256 904 418 c 2
 904 676 l 1
 506 676 l 2
 397 676 316 601 316 492 c 0
 316 402 348 322 412 250 c 0
 476 178 550 144 638 144 c 0
EndSplineSet
EndChar

StartChar: ta_seven
Encoding: 3053 3053 56
Width: 1498
GlyphClass: 2
Flags: HMW
LayerCount: 2
Fore
SplineSet
650 812 m 0
 845 812 958 622 958 416 c 0
 958 306 936 210 890 130 c 1
 832 34 750 -14 646 -14 c 0
 496 -14 380 74 298 250 c 1
 232 388 200 540 200 712 c 0
 200 924 248 1106 340 1256 c 0
 448 1432 602 1520 802 1520 c 2
 1498 1520 l 1
 1498 1344 l 1
 1378 1344 l 1
 1378 28 l 1
 1258 28 l 1
 1258 1344 l 1
 766 1344 l 2
 618 1344 506 1276 422 1140 c 1
 354 1024 318 888 318 732 c 0
 318 614 334 514 366 434 c 1
 362 460 358 484 358 508 c 0
 358 673 486 812 650 812 c 0
498 400 m 0
 498 273 550 144 666 144 c 0
 724 144 768 172 798 230 c 1
 824 278 836 334 836 394 c 0
 836 528 775 668 652 668 c 0
 544 668 498 524 498 400 c 0
EndSplineSet
EndChar

StartChar: ta_eight
Encoding: 3054 3054 57
Width: 2240
GlyphClass: 2
Flags: HMW
LayerCount: 2
Fore
SplineSet
1384 1538 m 0
 1737 1538 1910 1286 1910 920 c 0
 1910 838 1902 754 1884 670 c 1
 2114 670 l 1
 2114 1524 l 1
 2240 1524 l 1
 2240 0 l 1
 2114 0 l 1
 2114 532 l 1
 1848 532 l 1
 1784 348 1660 208 1480 110 c 1
 1318 20 1134 -24 926 -24 c 0
 602 -24 380 72 262 260 c 0
 220 328 200 392 200 458 c 0
 200 574 271 670 386 670 c 2
 1020 670 l 1
 918 786 866 914 866 1056 c 0
 866 1340 1094 1538 1384 1538 c 0
1372 1358 m 0
 1163 1358 984 1233 984 1030 c 0
 984 946 1020 864 1092 786 c 0
 1164 708 1240 670 1324 670 c 2
 1752 670 l 1
 1778 762 1790 848 1790 932 c 0
 1790 1202 1641 1358 1372 1358 c 0
1712 532 m 1
 432 532 l 2
 364 532 328 502 328 440 c 0
 328 398 348 356 386 312 c 0
 490 192 670 132 922 132 c 0
 1292 132 1579 287 1712 532 c 1
EndSplineSet
EndChar

StartChar: ta_nine
Encoding: 3055 3055 58
Width: 1904
GlyphClass: 2
Flags: HMW
LayerCount: 2
Fore
SplineSet
1498 862 m 2
 1741 862 1904 678 1904 434 c 0
 1904 190 1738 3 1516 -24 c 1
 1516 148 l 1
 1675 148 1788 288 1788 452 c 0
 1788 586 1696 692 1562 692 c 1
 1590 636 1606 584 1606 540 c 0
 1606 377 1502 218 1348 218 c 0
 1272 218 1212 254 1162 324 c 1
 1116 386 1092 456 1092 532 c 0
 1092 586 1104 634 1128 676 c 1
 1008 676 l 1
 1008 466 l 2
 1008 191 895 -22 638 -22 c 0
 514 -22 410 38 322 154 c 0
 240 262 200 380 200 506 c 0
 200 742 292 862 477 862 c 0
 479 862 480 862 482 862 c 1
 482 1516 l 1
 1320 1516 l 1
 1320 1340 l 1
 1008 1340 l 1
 1008 862 l 1
 1498 862 l 2
1348 384 m 0
 1427 384 1486 464 1486 542 c 0
 1486 621 1427 704 1348 704 c 0
 1272 704 1214 619 1214 542 c 0
 1214 466 1272 384 1348 384 c 0
904 862 m 1
 904 1340 l 1
 588 1340 l 1
 588 862 l 1
 904 862 l 1
638 144 m 0
 800 144 904 268 904 430 c 2
 904 676 l 1
 506 676 l 2
 397 676 316 614 316 504 c 0
 316 327 465 144 638 144 c 0
EndSplineSet
EndChar

StartChar: ta_ten
Encoding: 3056 3056 59
Width: 1590
GlyphClass: 2
Flags: HMW
LayerCount: 2
Fore
SplineSet
852 364 m 2
 852 216 981 152 1138 152 c 0
 1262 152 1350 244 1404 428 c 0
 1440 550 1458 692 1458 856 c 0
 1458 1020 1434 1168 1388 1298 c 1
 1322 1478 1222 1568 1088 1568 c 0
 1044 1568 1000 1560 954 1548 c 1
 950 1726 l 1
 994 1736 1042 1740 1086 1740 c 0
 1264 1740 1396 1628 1486 1402 c 1
 1554 1234 1590 1046 1590 836 c 0
 1590 622 1562 442 1510 296 c 0
 1434 84 1310 -24 1138 -24 c 0
 974 -24 858 36 788 154 c 1
 760 36 660 -24 488 -24 c 0
 255 -24 200 162 200 424 c 2
 200 1430 l 1
 308 1430 l 1
 308 424 l 2
 308 248 330 152 486 152 c 0
 640 152 716 222 716 364 c 2
 716 1430 l 1
 852 1430 l 1
 852 364 l 2
EndSplineSet
EndChar

StartChar: ta_hundred
Encoding: 3057 3057 60
Width: 1822
GlyphClass: 2
Flags: HMW
LayerCount: 2
Fore
SplineSet
538 1376 m 0
 420 1376 320 1270 320 1152 c 2
 320 -2 l 1
 200 -2 l 1
 200 1152 l 2
 200 1248 228 1336 288 1414 c 1
 354 1498 434 1540 526 1540 c 0
 614 1540 690 1514 754 1462 c 1
 754 1522 l 1
 1822 1522 l 1
 1822 1354 l 1
 1432 1354 l 1
 1432 0 l 1
 1306 0 l 1
 1306 1354 l 1
 838 1354 l 1
 874 1292 892 1224 892 1152 c 2
 892 -2 l 1
 764 -2 l 1
 764 1152 l 2
 764 1270 656 1376 538 1376 c 0
EndSplineSet
EndChar

StartChar: ta_thousand
Encoding: 3058 3058 61
Width: 2112
GlyphClass: 2
Flags: HMW
LayerCount: 2
Fore
SplineSet
1004 454 m 2
 1004 178 887 -22 624 -22 c 0
 453 -22 329 104 266 224 c 0
 222 308 200 398 200 494 c 0
 200 738 291 862 474 862 c 0
 475 862 477 862 478 862 c 1
 478 1520 l 1
 1232 1520 l 1
 1232 1342 l 1
 1004 1342 l 1
 1004 862 l 1
 2112 862 l 1
 2112 676 l 1
 1746 676 l 1
 1746 612 l 1
 1772 612 l 2
 1883 612 1956 504 1956 392 c 0
 1956 316 1932 248 1884 190 c 0
 1836 132 1776 104 1700 104 c 2
 1446 104 l 2
 1418 104 1402 90 1402 64 c 0
 1402 46 1416 36 1444 32 c 1
 1380 -44 l 1
 1336 -16 1314 22 1314 72 c 0
 1314 141 1377 212 1446 212 c 2
 1702 212 l 2
 1810 212 1866 272 1866 396 c 0
 1866 458 1808 494 1746 494 c 1
 1746 478 1746 478 1746 444 c 1
 1740 324 1672 264 1548 264 c 0
 1439 264 1326 348 1326 458 c 0
 1326 539 1385 612 1468 612 c 2
 1642 612 l 1
 1642 676 l 1
 1004 676 l 1
 1004 454 l 2
1404 456 m 0
 1404 403 1479 374 1536 374 c 0
 1608 374 1644 398 1644 442 c 1
 1642 494 l 1
 1464 494 l 2
 1424 494 1404 482 1404 456 c 0
900 862 m 1
 900 1342 l 1
 584 1342 l 1
 584 862 l 1
 900 862 l 1
624 144 m 0
 787 144 900 255 900 418 c 2
 900 676 l 1
 502 676 l 2
 393 676 318 600 318 492 c 0
 318 402 346 322 404 254 c 1
 464 180 538 144 624 144 c 0
EndSplineSet
EndChar

StartChar: ta_day_sign
Encoding: 3059 3059 62
Width: 1668
GlyphClass: 2
Flags: HMW
LayerCount: 2
Fore
SplineSet
806 300 m 0
 806 123 691 -24 522 -24 c 0
 414 -24 332 28 272 134 c 0
 224 220 200 324 200 440 c 0
 200 616 246 764 338 884 c 0
 438 1016 570 1080 740 1080 c 0
 902 1080 1032 1020 1132 902 c 0
 1226 790 1274 652 1274 488 c 0
 1274 386 1258 276 1224 160 c 1
 1668 160 l 1
 1668 -2 l 1
 1004 -2 l 1
 1070 142 1104 296 1104 460 c 0
 1104 584 1076 692 1022 776 c 0
 958 876 866 924 746 924 c 0
 650 924 566 892 494 826 c 0
 422 760 384 680 372 584 c 1
 546 584 l 2
 706 584 806 459 806 300 c 0
516 124 m 0
 594 124 642 206 642 288 c 0
 642 378 598 422 512 422 c 2
 360 422 l 1
 360 285 401 124 516 124 c 0
EndSplineSet
EndChar

StartChar: ta_month_sign
Encoding: 3060 3060 63
Width: 2392
GlyphClass: 2
Flags: HMW
LayerCount: 2
Fore
SplineSet
796 760 m 2
 796 913 894 1032 1018 1068 c 1
 946 1142 910 1226 910 1324 c 0
 910 1456 954 1562 1042 1640 c 0
 1130 1718 1242 1756 1374 1756 c 0
 1416 1756 1464 1744 1518 1720 c 1
 1568 1740 1620 1752 1678 1752 c 0
 1770 1752 1852 1724 1928 1666 c 1
 1994 1724 2070 1752 2158 1752 c 0
 2248 1752 2326 1720 2392 1660 c 1
 2288 1512 l 1
 2264 1562 2224 1586 2164 1586 c 0
 2097 1586 2024 1536 2024 1468 c 2
 2024 1176 l 1
 1844 1176 l 1
 1844 1466 l 2
 1844 1536 1796 1576 1700 1582 c 1
 1718 1544 1726 1500 1726 1452 c 0
 1726 1288 1623 1160 1460 1160 c 0
 1308 1160 1194 1276 1194 1428 c 0
 1194 1472 1202 1512 1216 1548 c 1
 1124 1496 1078 1420 1078 1316 c 0
 1078 1216 1122 1134 1210 1070 c 1
 1342 1042 1452 960 1536 828 c 0
 1614 706 1654 574 1654 434 c 0
 1654 174 1500 0 1240 0 c 2
 200 0 l 1
 200 1052 l 1
 372 1052 l 1
 372 172 l 1
 796 172 l 1
 796 760 l 2
1444 1308 m 0
 1508 1308 1554 1378 1554 1442 c 0
 1554 1504 1507 1574 1444 1574 c 0
 1380 1574 1332 1505 1332 1442 c 0
 1332 1377 1379 1308 1444 1308 c 0
1122 912 m 0
 1042 912 980 848 980 768 c 2
 980 172 l 1
 1276 172 l 2
 1400 172 1460 256 1460 420 c 0
 1460 528 1432 634 1374 734 c 0
 1306 852 1222 912 1122 912 c 0
EndSplineSet
EndChar

StartChar: ta_year_sign
Encoding: 3061 3061 64
Width: 4176
GlyphClass: 2
Flags: HMW
LayerCount: 2
Fore
SplineSet
3724 168 m 0
 3899 168 3996 358 3996 544 c 0
 3996 764 3924 924 3782 1020 c 1
 3924 1140 l 1
 4092 1010 4176 818 4176 562 c 0
 4176 412 4138 284 4064 178 c 1
 3980 60 3866 0 3724 0 c 0
 3582 0 3466 60 3374 180 c 1
 3292 290 3252 418 3252 566 c 2
 3252 660 l 2
 3252 968 3080 1196 2738 1344 c 0
 2486 1454 2178 1510 1818 1510 c 0
 1432 1510 1112 1442 856 1304 c 0
 532 1130 372 866 372 516 c 0
 372 174 520 -84 820 -256 c 1
 1064 -398 1368 -470 1736 -470 c 0
 2016 -470 2268 -422 2490 -328 c 0
 2786 -204 2934 -22 2934 220 c 0
 2934 369 2833 478 2684 478 c 0
 2609 478 2538 440 2538 370 c 2
 2538 -2 l 1
 2372 -2 l 1
 2372 876 l 1
 2124 876 l 1
 2124 -2 l 1
 1896 -2 1668 -2 1440 -2 c 1
 1430 110 l 1
 1540 210 1596 330 1596 472 c 0
 1596 596 1554 702 1470 788 c 0
 1386 874 1282 916 1158 916 c 0
 1040 916 940 876 856 792 c 0
 772 708 732 608 732 490 c 0
 732 408 752 330 796 256 c 1
 792 276 792 294 792 314 c 0
 792 460 895 574 1040 574 c 0
 1201 574 1320 437 1320 272 c 0
 1320 101 1191 -26 1020 -26 c 0
 886 -26 774 28 688 136 c 0
 608 238 568 358 568 496 c 0
 568 666 624 806 736 914 c 0
 848 1022 988 1078 1160 1078 c 0
 1332 1078 1474 1022 1590 912 c 0
 1706 802 1764 662 1764 490 c 0
 1764 374 1728 262 1656 160 c 1
 1950 160 l 1
 1950 1048 l 1
 2880 1048 l 1
 2880 876 l 1
 2538 876 l 1
 2538 562 l 1
 2582 622 2642 650 2716 650 c 0
 2832 650 2928 606 3002 520 c 0
 3076 434 3112 332 3112 214 c 0
 3112 -86 2952 -312 2634 -460 c 1
 2390 -576 2098 -634 1758 -634 c 0
 1332 -634 980 -550 704 -380 c 1
 368 -176 200 128 200 526 c 0
 200 930 378 1234 732 1436 c 1
 1016 1600 1378 1680 1814 1680 c 0
 2222 1680 2570 1612 2856 1480 c 0
 3234 1306 3422 1040 3422 682 c 2
 3422 584 l 2
 3422 484 3446 392 3496 312 c 0
 3556 216 3632 168 3724 168 c 0
1032 136 m 0
 1101 136 1156 211 1156 280 c 0
 1156 352 1104 422 1032 422 c 0
 957 422 904 354 904 280 c 0
 904 209 960 136 1032 136 c 0
EndSplineSet
EndChar

StartChar: ta_debit_sign
Encoding: 3062 3062 65
Width: 1430
GlyphClass: 2
Flags: HMW
LayerCount: 2
Fore
SplineSet
638 152 m 0
 758 152 844 260 844 380 c 2
 844 1054 l 1
 1018 1054 l 1
 1018 -88 l 1
 1268 -88 l 1
 1268 686 l 1
 1430 686 l 1
 1430 -242 l 1
 1018 -242 l 1
 1018 -336 970 -416 874 -476 c 1
 792 -530 700 -556 600 -556 c 0
 504 -556 416 -536 340 -494 c 1
 246 -444 200 -376 200 -288 c 0
 200 -156 270 -88 410 -88 c 2
 842 -88 l 1
 842 40 l 1
 784 4 720 -12 644 -12 c 0
 550 -12 466 12 392 64 c 0
 308 124 266 198 266 288 c 2
 266 1054 l 1
 442 1054 l 1
 442 320 l 2
 442 231 548 152 638 152 c 0
424 -242 m 2
 372 -242 356 -245 356 -290 c 0
 356 -322 386 -350 448 -376 c 0
 500 -398 546 -410 584 -410 c 0
 650 -410 706 -398 754 -374 c 1
 814 -346 842 -302 842 -242 c 1
 424 -242 l 2
EndSplineSet
EndChar

StartChar: ta_credit_sign
Encoding: 3063 3063 66
Width: 2210
GlyphClass: 2
Flags: HMW
LayerCount: 2
Fore
SplineSet
1660 568 m 0
 1840 568 1964 436 1964 256 c 0
 1964 204 1950 152 1922 100 c 1
 2104 100 l 1
 2104 556 l 1
 2210 556 l 1
 2210 -4 l 1
 1784 -4 l 1
 1778 68 l 1
 1832 118 1860 178 1860 250 c 0
 1860 367 1776 464 1658 464 c 0
 1544 464 1464 371 1464 256 c 0
 1464 236 1466 220 1470 200 c 1
 1482 276 1526 312 1602 312 c 0
 1692 312 1748 236 1748 146 c 0
 1748 49 1688 -16 1590 -16 c 0
 1451 -16 1360 116 1360 262 c 0
 1360 438 1484 568 1660 568 c 0
200 500 m 0
 200 841 450 1054 796 1054 c 2
 1482 1054 l 1
 1482 890 l 1
 1308 890 l 1
 1308 2 l 1
 1140 2 l 1
 1140 890 l 1
 762 890 l 2
 646 890 550 852 474 778 c 0
 398 704 362 610 362 494 c 0
 362 402 386 324 432 256 c 1
 428 282 424 302 424 314 c 0
 424 462 527 574 674 574 c 0
 841 574 952 439 952 272 c 0
 952 96 828 -26 652 -26 c 0
 516 -26 404 30 318 140 c 0
 240 240 200 360 200 500 c 0
1658 152 m 0
 1658 200 1634 224 1586 224 c 0
 1538 224 1514 200 1514 152 c 0
 1514 104 1538 80 1586 80 c 0
 1634 80 1658 104 1658 152 c 0
664 136 m 0
 741 136 788 203 788 280 c 0
 788 360 744 422 664 422 c 0
 586 422 536 358 536 280 c 0
 536 202 590 136 664 136 c 0
EndSplineSet
EndChar

StartChar: ta_as_above
Encoding: 3064 3064 67
Width: 3398
GlyphClass: 2
Flags: HMW
LayerCount: 2
Fore
SplineSet
3028 484 m 1
 3148 506 3264 595 3272 718 c 1
 3398 718 l 1
 3398 -2 l 1
 3028 -2 l 1
 3028 -532 l 1
 2862 -532 l 1
 2862 -2 l 1
 2854 -2 2856 -2 1970 -2 c 1
 1960 116 l 1
 2054 192 2102 278 2102 376 c 0
 2102 497 2017 598 1918 624 c 1
 1918 268 l 2
 1918 116 1830 -32 1686 -32 c 0
 1600 -32 1530 12 1478 100 c 0
 1434 176 1410 260 1410 352 c 0
 1410 460 1440 554 1504 638 c 0
 1568 722 1652 772 1754 792 c 1
 1754 926 l 2
 1754 1092 1682 1232 1540 1342 c 0
 1410 1442 1258 1492 1086 1492 c 0
 870 1492 698 1424 566 1288 c 0
 434 1152 368 976 368 758 c 0
 368 495 468 277 642 196 c 1
 604 242 584 304 584 380 c 0
 584 568 745 698 934 698 c 0
 1138 698 1288 544 1288 340 c 0
 1288 113 1110 -26 878 -26 c 0
 592 -26 394 143 294 344 c 0
 232 468 200 608 200 766 c 0
 200 1030 282 1246 448 1416 c 0
 614 1586 830 1670 1094 1670 c 0
 1312 1670 1500 1604 1660 1472 c 1
 1832 1332 1918 1152 1918 940 c 2
 1918 792 l 1
 2018 778 2104 732 2168 654 c 0
 2232 576 2264 486 2264 382 c 0
 2264 296 2242 220 2198 158 c 1
 2218 158 2216 158 2862 158 c 1
 2862 312 l 1
 2730 312 2618 348 2522 424 c 0
 2418 506 2366 612 2366 742 c 0
 2366 941 2526 1078 2730 1078 c 0
 2901 1078 3028 962 3028 790 c 2
 3028 484 l 1
3236 158 m 1
 3236 410 l 1
 3172 354 3104 322 3028 316 c 1
 3028 158 l 1
 3236 158 l 1
2716 910 m 0
 2613 910 2534 840 2534 736 c 0
 2534 576 2698 482 2862 478 c 1
 2862 778 l 2
 2862 854 2792 910 2716 910 c 0
1760 624 m 1
 1649 594 1566 464 1566 328 c 0
 1566 290 1578 250 1598 208 c 0
 1622 158 1650 134 1682 134 c 0
 1734 134 1760 178 1760 268 c 2
 1760 624 l 1
932 136 m 0
 1038 136 1108 238 1108 344 c 0
 1108 453 1040 538 932 538 c 0
 823 538 752 447 752 338 c 0
 752 238 832 136 932 136 c 0
EndSplineSet
EndChar

StartChar: ta_rupee
Encoding: 3065 3065 68
Width: 2910
GlyphClass: 2
Flags: HMW
LayerCount: 2
Fore
SplineSet
2178 1684 m 0
 2437 1684 2602 1493 2602 1234 c 0
 2602 1158 2578 1094 2530 1048 c 1
 2910 1048 l 1
 2910 872 l 1
 2292 872 l 1
 2292 1000 l 1
 2378 1052 2422 1134 2422 1248 c 0
 2422 1398 2320 1510 2170 1510 c 0
 2020 1510 1944 1410 1944 1208 c 0
 1944 1180 1948 1068 1956 872 c 1
 1794 872 l 1
 1786 924 1782 964 1782 998 c 0
 1782 1138 1712 1244 1574 1316 c 1
 1464 1376 1334 1404 1184 1404 c 0
 655 1404 372 1020 372 476 c 0
 372 -18 615 -384 1088 -384 c 0
 1250 -384 1390 -334 1506 -232 c 0
 1622 -130 1680 0 1680 160 c 0
 1680 335 1585 478 1416 478 c 0
 1347 478 1272 440 1272 370 c 2
 1272 -2 l 1
 1106 -2 l 1
 1106 872 l 1
 858 872 l 1
 858 -2 l 1
 684 0 l 1
 684 1048 l 1
 1686 1048 l 1
 1686 872 l 1
 1272 872 l 1
 1272 562 l 1
 1312 618 1370 646 1446 646 c 0
 1719 646 1856 429 1856 142 c 0
 1856 -66 1784 -236 1640 -366 c 0
 1496 -496 1322 -562 1110 -562 c 0
 812 -562 582 -460 420 -256 c 1
 272 -68 200 176 200 484 c 0
 200 810 280 1070 442 1260 c 0
 616 1464 864 1568 1184 1568 c 0
 1412 1568 1616 1500 1796 1364 c 1
 1848 1578 1976 1684 2178 1684 c 0
EndSplineSet
EndChar

StartChar: ta_number_sign
Encoding: 3066 3066 69
Width: 2438
GlyphClass: 2
Flags: HMW
LayerCount: 2
Fore
SplineSet
1730 1684 m 0
 1988 1684 2130 1498 2130 1234 c 0
 2130 1158 2106 1094 2058 1048 c 1
 2438 1048 l 1
 2438 872 l 1
 1820 872 l 1
 1820 1000 l 1
 1906 1052 1950 1134 1950 1248 c 0
 1950 1401 1873 1510 1722 1510 c 0
 1564 1510 1484 1410 1484 1208 c 2
 1484 1016 l 1
 1322 1016 l 1
 1322 1154 l 2
 1322 1278 1250 1390 1132 1390 c 0
 1048 1390 992 1304 992 1220 c 0
 992 1146 1034 1058 1102 1058 c 2
 1154 1058 l 1
 1154 886 l 1
 848 886 l 1
 848 572 l 1
 884 628 944 656 1022 656 c 0
 1134 656 1226 606 1298 508 c 0
 1364 418 1396 318 1396 202 c 0
 1396 62 1344 -54 1238 -142 c 0
 1138 -224 1016 -264 870 -264 c 2
 472 -264 l 2
 414 -264 368 -307 368 -364 c 0
 368 -406 388 -434 424 -446 c 1
 314 -554 l 1
 238 -508 200 -440 200 -350 c 0
 200 -217 319 -110 452 -110 c 2
 874 -110 l 2
 1049 -110 1220 33 1220 208 c 0
 1220 356 1132 488 992 488 c 0
 923 488 848 450 848 380 c 2
 848 8 l 1
 682 8 l 1
 682 886 l 1
 434 886 l 1
 434 8 l 1
 260 8 l 1
 260 1058 l 1
 870 1058 l 1
 842 1108 830 1162 830 1220 c 0
 830 1394 960 1546 1134 1546 c 0
 1242 1546 1324 1498 1384 1400 c 1
 1418 1498 1458 1566 1506 1610 c 0
 1560 1660 1636 1684 1730 1684 c 0
EndSplineSet
EndChar

StartChar: ta_au_short_sign
Encoding: 3031 3031 70
Width: 1616
GlyphClass: 2
Flags: HMW
LayerCount: 2
Fore
SplineSet
550 184 m 0
 335 184 200 375 200 600 c 0
 200 726 236 834 312 920 c 0
 388 1006 488 1048 612 1048 c 0
 732 1048 820 1008 876 924 c 1
 876 1028 l 1
 1616 1028 l 1
 1616 892 l 1
 1396 892 l 1
 1396 208 l 1
 1254 208 l 1
 1254 892 l 1
 1014 892 l 1
 1014 208 l 1
 876 208 l 1
 876 704 l 2
 876 828 757 910 628 910 c 0
 455 910 332 758 332 584 c 0
 332 530 344 478 372 432 c 1
 370 442 370 450 370 454 c 0
 370 573 448 660 568 660 c 0
 698 660 786 552 786 422 c 0
 786 283 688 184 550 184 c 0
648 430 m 0
 648 498 618 532 558 532 c 0
 498 532 468 498 468 430 c 0
 468 360 498 324 558 324 c 0
 618 324 648 360 648 430 c 0
EndSplineSet
EndChar

StartChar: ta_om
Encoding: 3024 3024 71
Width: 1796
GlyphClass: 2
Flags: HMW
LayerCount: 2
Fore
SplineSet
580 14 m 0
 353 14 200 208 200 440 c 0
 200 644 284 804 452 920 c 1
 600 1024 780 1076 992 1076 c 0
 1204 1076 1386 1024 1536 920 c 1
 1708 804 1796 644 1796 442 c 0
 1796 254 1691 100 1508 100 c 0
 1432 100 1364 126 1306 178 c 0
 1248 230 1220 292 1218 368 c 1
 1196 342 1184 298 1184 236 c 0
 1184 170 1212 114 1272 68 c 0
 1332 22 1394 0 1462 0 c 2
 1668 0 l 1
 1668 -182 l 1
 1428 -182 l 2
 1259 -182 1182 -291 1126 -434 c 0
 1092 -522 1064 -580 1040 -608 c 0
 994 -660 922 -684 828 -684 c 2
 584 -684 l 2
 373 -684 274 -610 274 -404 c 2
 274 -158 l 2
 274 -77 331 -8 412 -8 c 0
 491 -8 558 -78 558 -156 c 2
 558 -370 l 1
 682 -370 l 1
 680 -328 680 -296 680 -276 c 0
 680 -162 720 -106 796 -106 c 0
 898 -106 976 -215 976 -316 c 0
 976 -400 919 -464 834 -464 c 2
 464 -464 l 1
 464 -152 l 2
 464 -122 452 -106 428 -106 c 0
 402 -106 390 -122 390 -152 c 2
 390 -410 l 2
 390 -500 442 -544 548 -544 c 2
 838 -544 l 2
 898 -544 942 -510 970 -442 c 0
 998 -374 1024 -308 1050 -240 c 1
 1088 -158 1148 -106 1230 -80 c 1
 1084 -8 1012 102 1012 248 c 0
 1012 436 1160 588 1348 588 c 0
 1388 588 1426 580 1464 568 c 1
 1406 536 1378 476 1378 388 c 0
 1378 322 1442 262 1508 262 c 0
 1592 262 1638 345 1638 434 c 0
 1638 586 1566 706 1422 790 c 0
 1298 862 1156 898 994 898 c 0
 830 898 688 862 572 788 c 1
 434 702 366 578 366 422 c 0
 366 406 370 390 378 376 c 1
 378 502 474 600 600 600 c 0
 765 600 884 465 884 300 c 0
 884 131 749 14 580 14 c 0
680 -76 m 0
 680 -114 664 -134 630 -134 c 0
 596 -134 580 -114 580 -76 c 0
 580 -40 596 -22 630 -22 c 0
 664 -22 680 -40 680 -76 c 0
588 176 m 0
 652 176 702 240 702 304 c 0
 702 371 654 436 588 436 c 0
 523 436 476 370 476 304 c 0
 476 241 525 176 588 176 c 0
874 -320 m 0
 874 -273 846 -200 798 -200 c 0
 786 -200 778 -206 778 -218 c 2
 778 -370 l 1
 844 -370 l 2
 864 -370 874 -354 874 -320 c 0
EndSplineSet
EndChar

StartChar: ta_k
Encoding: 65536 -1 72
Width: 1452
GlyphClass: 2
Flags: HMW
LayerCount: 2
Fore
SplineSet
962 1524 m 0
 1042 1524 1096 1445 1096 1366 c 0
 1096 1285 1044 1208 962 1208 c 0
 880 1208 828 1285 828 1366 c 0
 828 1445 882 1524 962 1524 c 0
1168 616 m 2
 1357 616 1452 485 1452 292 c 0
 1452 78 1364 -28 1184 -28 c 0
 1128 -28 1078 -20 1032 2 c 1
 1092 144 l 1
 1118 128 1148 120 1174 120 c 0
 1250 120 1288 176 1288 286 c 0
 1288 394 1246 446 1160 446 c 2
 1032 446 l 1
 1032 320 l 2
 1032 93 878 -28 648 -28 c 0
 540 -28 440 4 348 74 c 0
 250 148 200 240 200 348 c 0
 200 526 286 616 462 616 c 0
 464 616 466 616 468 616 c 1
 468 1052 l 1
 1340 1052 l 1
 1340 886 l 1
 1032 886 l 1
 1032 616 l 1
 1168 616 l 2
868 616 m 1
 868 886 l 1
 634 886 l 1
 634 616 l 1
 868 616 l 1
364 346 m 0
 364 226 523 128 648 128 c 0
 788 128 860 190 868 312 c 1
 868 357 868 401 868 446 c 1
 512 446 l 2
 414 446 364 414 364 346 c 0
EndSplineSet
LCarets2: 1 0
EndChar

StartChar: ta_ng
Encoding: 65537 -1 73
Width: 1630
GlyphClass: 3
Flags: HMW
LayerCount: 2
Fore
SplineSet
944 1524 m 0
 1024 1524 1078 1446 1078 1366 c 0
 1078 1284 1026 1208 944 1208 c 0
 864 1208 810 1286 810 1366 c 0
 810 1443 866 1524 944 1524 c 0
968 660 m 0
 1147 660 1270 536 1270 356 c 0
 1270 280 1242 212 1184 154 c 1
 1460 154 l 1
 1460 1048 l 1
 1630 1048 l 1
 1630 0 l 1
 626 0 l 1
 626 154 l 1
 910 154 l 2
 1006 154 1090 240 1090 336 c 0
 1090 425 1027 494 938 494 c 0
 868 494 790 439 790 368 c 2
 790 250 l 1
 626 250 l 1
 626 878 l 1
 368 878 l 1
 368 0 l 1
 200 0 l 1
 200 1052 l 1
 1170 1052 l 1
 1170 878 l 1
 790 878 l 1
 790 580 l 1
 834 632 894 660 968 660 c 0
EndSplineSet
EndChar

StartChar: ta_ch
Encoding: 65538 -1 74
Width: 1334
GlyphClass: 3
Flags: HMW
LayerCount: 2
Fore
SplineSet
974 1524 m 0
 1054 1524 1108 1446 1108 1366 c 0
 1108 1284 1056 1208 974 1208 c 0
 894 1208 840 1286 840 1366 c 0
 840 1443 896 1524 974 1524 c 0
1018 320 m 2
 1018 91 866 -28 636 -28 c 0
 526 -28 426 6 338 74 c 1
 246 150 200 240 200 348 c 0
 200 526 282 616 448 616 c 0
 450 616 452 616 454 616 c 1
 454 1052 l 1
 1312 1052 l 1
 1312 886 l 1
 1018 886 l 1
 1018 616 l 1
 1334 616 l 1
 1334 446 l 1
 1018 446 l 1
 1018 320 l 2
856 616 m 1
 856 886 l 1
 620 886 l 1
 620 616 l 1
 856 616 l 1
364 346 m 0
 364 225 510 128 636 128 c 0
 776 128 848 188 856 312 c 1
 856 357 856 401 856 446 c 1
 500 446 l 2
 410 446 364 414 364 346 c 0
EndSplineSet
LCarets2: 1 0
EndChar

StartChar: ta_j
Encoding: 65539 -1 75
Width: 1750
GlyphClass: 3
Flags: HMW
LayerCount: 2
Fore
SplineSet
1016 1524 m 0
 1096 1524 1150 1446 1150 1366 c 0
 1150 1284 1098 1208 1016 1208 c 0
 936 1208 882 1286 882 1366 c 0
 882 1443 938 1524 1016 1524 c 0
366 -136 m 0
 366 -292 489 -416 646 -416 c 0
 744 -416 826 -368 894 -276 c 1
 986 -146 984 -146 1076 -16 c 1
 1164 76 1280 122 1426 122 c 0
 1516 122 1592 88 1656 20 c 0
 1720 -48 1750 -128 1750 -220 c 0
 1750 -312 1722 -396 1666 -466 c 0
 1606 -542 1534 -578 1442 -578 c 0
 1270 -578 1108 -463 1108 -296 c 1
 1278 -296 l 1
 1278 -369 1353 -418 1426 -418 c 0
 1523 -418 1588 -326 1588 -228 c 0
 1588 -141 1513 -38 1426 -38 c 0
 1312 -38 1220 -86 1148 -178 c 1
 1088 -264 1030 -352 970 -440 c 1
 890 -532 782 -578 646 -578 c 0
 522 -578 420 -534 332 -446 c 0
 244 -358 200 -254 200 -130 c 0
 200 -8 244 96 332 182 c 0
 420 268 522 312 644 312 c 2
 1258 312 l 2
 1443 312 1582 443 1582 628 c 0
 1582 781 1489 908 1336 908 c 0
 1182 908 1106 836 1106 694 c 2
 1106 398 l 1
 926 398 l 1
 926 694 l 2
 926 840 834 912 652 912 c 0
 554 912 478 884 426 824 c 1
 454 842 486 850 520 850 c 0
 647 850 760 746 760 620 c 0
 760 467 641 368 488 368 c 0
 320 368 206 500 206 668 c 0
 206 788 250 886 340 962 c 1
 424 1036 528 1072 652 1072 c 0
 812 1072 928 1030 1004 946 c 1
 1072 1032 1180 1076 1324 1076 c 0
 1444 1076 1546 1032 1628 946 c 0
 1710 860 1750 756 1750 634 c 0
 1750 362 1571 146 1304 146 c 2
 652 146 l 2
 496 146 366 19 366 -136 c 0
484 520 m 0
 542 520 586 563 586 622 c 0
 586 679 534 724 478 724 c 0
 418 724 376 682 376 622 c 0
 376 563 425 520 484 520 c 0
EndSplineSet
EndChar

StartChar: ta_nj
Encoding: 65540 -1 76
Width: 2240
GlyphClass: 3
Flags: HMW
LayerCount: 2
Fore
SplineSet
1570 1524 m 0
 1650 1524 1704 1446 1704 1366 c 0
 1704 1284 1652 1208 1570 1208 c 0
 1490 1208 1436 1286 1436 1366 c 0
 1436 1443 1492 1524 1570 1524 c 0
1854 656 m 0
 2095 656 2240 435 2240 182 c 0
 2240 72 2216 -34 2166 -136 c 0
 2090 -294 1966 -414 1800 -494 c 1
 1656 -562 1488 -596 1292 -596 c 0
 982 -596 726 -506 522 -328 c 0
 308 -140 200 104 200 412 c 0
 200 714 280 938 436 1078 c 1
 550 968 l 1
 420 848 356 664 356 420 c 0
 356 158 448 -54 630 -216 c 0
 806 -372 1026 -448 1292 -448 c 0
 1638 -448 1874 -328 2002 -84 c 1
 2046 4 2070 92 2070 184 c 0
 2070 348 1987 488 1832 488 c 0
 1767 488 1690 446 1690 380 c 2
 1690 14 l 1
 1528 14 l 1
 1528 888 l 1
 1098 888 l 2
 870 888 706 717 706 488 c 0
 706 406 726 328 768 256 c 1
 764 276 764 294 764 314 c 0
 764 462 867 574 1014 574 c 0
 1181 574 1292 439 1292 272 c 0
 1292 96 1168 -26 992 -26 c 0
 854 -26 742 26 658 134 c 1
 582 234 544 354 544 494 c 0
 544 658 594 794 698 898 c 0
 802 1002 936 1054 1100 1054 c 2
 2124 1054 l 1
 2124 888 l 1
 1690 888 l 1
 1690 566 l 1
 1724 626 1778 656 1854 656 c 0
1004 136 m 0
 1077 136 1128 205 1128 280 c 0
 1128 355 1078 422 1004 422 c 0
 928 422 876 355 876 280 c 0
 876 205 929 136 1004 136 c 0
EndSplineSet
EndChar

StartChar: ta_t
Encoding: 65541 -1 77
Width: 1482
GlyphClass: 3
Flags: HMW
LayerCount: 2
Fore
SplineSet
932 1488 m 0
 1012 1488 1066 1410 1066 1330 c 0
 1066 1248 1014 1172 932 1172 c 0
 852 1172 798 1250 798 1330 c 0
 798 1407 854 1488 932 1488 c 0
1482 -2 m 1
 200 -2 l 1
 200 1056 l 1
 368 1056 l 1
 368 166 l 1
 1482 166 l 1
 1482 -2 l 1
EndSplineSet
LCarets2: 1 0
EndChar

StartChar: ta_nnn
Encoding: 65542 -1 78
Width: 3048
GlyphClass: 3
Flags: HMW
LayerCount: 2
Fore
SplineSet
1716 1524 m 0
 1796 1524 1850 1446 1850 1366 c 0
 1850 1284 1798 1208 1716 1208 c 0
 1636 1208 1582 1286 1582 1366 c 0
 1582 1443 1638 1524 1716 1524 c 0
922 272 m 0
 922 96 798 -26 622 -26 c 0
 494 -26 390 22 310 120 c 0
 236 212 200 322 200 452 c 0
 200 646 266 798 398 914 c 1
 526 1022 690 1078 886 1078 c 0
 1036 1078 1170 1038 1286 960 c 1
 1402 1040 1530 1080 1668 1080 c 0
 1814 1080 1944 1040 2058 964 c 1
 2060 964 l 1
 2140 1024 2232 1056 2340 1056 c 2
 3048 1056 l 1
 3048 892 l 1
 2720 892 l 1
 2720 -2 l 1
 2544 -2 l 1
 2544 892 l 1
 2340 892 l 2
 2280 892 2232 878 2196 848 c 1
 2312 724 2370 574 2370 396 c 0
 2370 114 2272 -26 2078 -26 c 0
 1968 -26 1886 22 1832 122 c 0
 1788 204 1764 304 1764 422 c 0
 1764 598 1820 742 1930 854 c 1
 1864 898 1782 922 1682 922 c 0
 1574 922 1492 898 1440 848 c 1
 1562 716 1622 564 1622 396 c 0
 1622 166 1535 -26 1322 -26 c 0
 1108 -26 1008 188 1008 422 c 0
 1008 588 1060 732 1166 850 c 1
 1082 894 988 916 886 916 c 0
 746 916 626 878 526 800 c 0
 418 716 366 606 366 470 c 0
 366 386 382 316 414 264 c 1
 404 292 398 316 398 338 c 0
 398 474 508 574 644 574 c 0
 811 574 922 439 922 272 c 0
2190 408 m 0
 2190 556 2148 674 2064 760 c 1
 1976 684 1932 566 1932 408 c 0
 1932 236 1976 148 2064 148 c 0
 2148 148 2190 236 2190 408 c 0
1446 408 m 0
 1446 542 1398 660 1302 760 c 1
 1218 686 1176 570 1176 408 c 0
 1176 236 1220 148 1308 148 c 0
 1400 148 1446 236 1446 408 c 0
634 136 m 0
 707 136 758 205 758 280 c 0
 758 355 708 422 634 422 c 0
 558 422 506 355 506 280 c 0
 506 205 559 136 634 136 c 0
EndSplineSet
EndChar

StartChar: ta_th
Encoding: 65543 -1 79
Width: 1486
GlyphClass: 3
Flags: HMW
LayerCount: 2
Fore
SplineSet
992 1524 m 0
 1072 1524 1126 1446 1126 1366 c 0
 1126 1284 1074 1208 992 1208 c 0
 912 1208 858 1286 858 1366 c 0
 858 1443 914 1524 992 1524 c 0
1048 320 m 2
 1048 90 895 -28 664 -28 c 0
 556 -28 456 6 368 76 c 0
 274 150 226 240 226 348 c 0
 226 526 310 616 478 616 c 0
 480 616 482 616 484 616 c 1
 484 1052 l 1
 1354 1052 l 1
 1354 886 l 1
 1048 886 l 1
 1048 616 l 1
 1124 616 l 2
 1234 616 1322 578 1388 498 c 0
 1454 418 1486 322 1486 208 c 0
 1486 64 1434 -52 1330 -140 c 0
 1232 -224 1112 -264 966 -264 c 2
 472 -264 l 2
 415 -264 366 -308 366 -364 c 0
 366 -406 386 -434 424 -446 c 1
 314 -554 l 1
 238 -508 200 -440 200 -350 c 0
 200 -215 318 -110 452 -110 c 2
 970 -110 l 2
 1064 -110 1146 -80 1212 -16 c 0
 1278 48 1312 126 1312 218 c 0
 1312 355 1221 446 1084 446 c 2
 1048 446 l 1
 1048 320 l 2
884 616 m 1
 884 886 l 1
 650 886 l 1
 650 616 l 1
 884 616 l 1
392 346 m 0
 392 225 538 128 664 128 c 0
 804 128 876 188 886 312 c 1
 884 314 l 1
 884 446 l 1
 526 446 l 2
 436 446 392 414 392 346 c 0
EndSplineSet
EndChar

StartChar: ta_n
Encoding: 65544 -1 80
Width: 1396
GlyphClass: 3
Flags: HMW
LayerCount: 2
Fore
SplineSet
800 1524 m 0
 880 1524 934 1446 934 1366 c 0
 934 1284 882 1208 800 1208 c 0
 720 1208 666 1286 666 1366 c 0
 666 1443 722 1524 800 1524 c 0
992 488 m 0
 923 488 848 450 848 380 c 2
 848 8 l 1
 682 8 l 1
 682 886 l 1
 434 886 l 1
 434 8 l 1
 260 8 l 1
 260 1058 l 1
 1262 1058 l 1
 1262 886 l 1
 848 886 l 1
 848 572 l 1
 884 628 944 656 1022 656 c 0
 1134 656 1226 606 1298 508 c 0
 1364 418 1396 318 1396 202 c 0
 1396 62 1344 -54 1238 -142 c 0
 1138 -224 1016 -264 870 -264 c 2
 472 -264 l 2
 414 -264 368 -307 368 -364 c 0
 368 -406 388 -434 424 -446 c 1
 314 -554 l 1
 238 -508 200 -440 200 -350 c 0
 200 -217 319 -110 452 -110 c 2
 874 -110 l 2
 1049 -110 1220 33 1220 208 c 0
 1220 356 1132 488 992 488 c 0
EndSplineSet
EndChar

StartChar: ta_nn
Encoding: 65545 -1 81
Width: 2208
GlyphClass: 3
Flags: HMW
LayerCount: 2
Fore
SplineSet
1296 1524 m 0
 1376 1524 1430 1446 1430 1366 c 0
 1430 1284 1378 1208 1296 1208 c 0
 1216 1208 1162 1286 1162 1366 c 0
 1162 1443 1218 1524 1296 1524 c 0
922 272 m 0
 922 96 798 -26 622 -26 c 0
 494 -26 390 22 310 120 c 0
 236 210 200 320 200 452 c 0
 200 646 266 798 398 914 c 1
 524 1022 688 1078 886 1078 c 0
 1034 1078 1168 1038 1286 962 c 1
 1378 1026 1472 1058 1566 1058 c 2
 2208 1058 l 1
 2208 892 l 1
 1964 892 l 1
 1964 8 l 1
 1790 8 l 1
 1790 892 l 1
 1584 892 l 2
 1528 892 1484 878 1452 848 c 1
 1566 724 1622 572 1622 396 c 0
 1622 166 1535 -26 1322 -26 c 0
 1212 -26 1130 24 1076 124 c 0
 1032 204 1008 304 1008 422 c 0
 1008 588 1060 732 1166 850 c 1
 1080 894 986 916 886 916 c 0
 746 916 626 878 526 800 c 0
 418 716 366 606 366 470 c 0
 366 386 382 318 414 264 c 1
 404 298 398 322 398 338 c 0
 398 474 508 574 644 574 c 0
 811 574 922 439 922 272 c 0
1446 408 m 0
 1446 548 1402 664 1314 756 c 1
 1222 678 1176 562 1176 408 c 0
 1176 236 1220 148 1308 148 c 0
 1400 148 1446 236 1446 408 c 0
634 136 m 0
 707 136 758 205 758 280 c 0
 758 355 708 422 634 422 c 0
 558 422 506 355 506 280 c 0
 506 205 559 136 634 136 c 0
EndSplineSet
EndChar

StartChar: ta_p
Encoding: 65546 -1 82
Width: 1370
GlyphClass: 3
Flags: HMW
LayerCount: 2
Fore
SplineSet
800 1524 m 0
 880 1524 934 1446 934 1366 c 0
 934 1284 882 1208 800 1208 c 0
 720 1208 666 1286 666 1366 c 0
 666 1443 722 1524 800 1524 c 0
1370 -2 m 1
 200 -2 l 1
 200 1056 l 1
 368 1056 l 1
 368 166 l 1
 1202 166 l 1
 1202 1056 l 1
 1370 1056 l 1
 1370 -2 l 1
EndSplineSet
EndChar

StartChar: ta_m
Encoding: 65547 -1 83
Width: 1656
GlyphClass: 3
Flags: HMW
LayerCount: 2
Fore
SplineSet
1086 1524 m 0
 1166 1524 1220 1446 1220 1366 c 0
 1220 1284 1168 1208 1086 1208 c 0
 1006 1208 952 1286 952 1366 c 0
 952 1443 1008 1524 1086 1524 c 0
1656 434 m 0
 1656 175 1499 0 1240 0 c 2
 200 0 l 1
 200 1052 l 1
 374 1052 l 1
 374 172 l 1
 796 172 l 1
 796 760 l 2
 796 848 828 924 888 988 c 0
 948 1052 1022 1082 1112 1082 c 0
 1268 1082 1400 1012 1506 872 c 1
 1606 742 1656 596 1656 434 c 0
1122 912 m 0
 1044 912 980 846 980 768 c 2
 980 172 l 1
 1276 172 l 2
 1400 172 1460 256 1460 420 c 0
 1460 528 1432 634 1374 734 c 0
 1306 852 1222 912 1122 912 c 0
EndSplineSet
EndChar

StartChar: ta_y
Encoding: 65548 -1 84
Width: 1450
GlyphClass: 3
Flags: HMW
LayerCount: 2
Fore
SplineSet
1052 1524 m 0
 1132 1524 1186 1446 1186 1366 c 0
 1186 1284 1134 1208 1052 1208 c 0
 972 1208 918 1286 918 1366 c 0
 918 1443 974 1524 1052 1524 c 0
508 142 m 0
 590 142 646 226 646 308 c 2
 646 1054 l 1
 820 1054 l 1
 820 144 l 1
 1288 144 l 1
 1288 1054 l 1
 1450 1054 l 1
 1450 -8 l 1
 670 -8 l 1
 670 84 l 1
 632 12 580 -24 512 -24 c 0
 304 -24 200 76 200 272 c 2
 200 1054 l 1
 376 1054 l 1
 376 296 l 2
 376 216 428 142 508 142 c 0
EndSplineSet
EndChar

StartChar: ta_r
Encoding: 65549 -1 85
Width: 1238
GlyphClass: 3
Flags: HMW
LayerCount: 2
Fore
SplineSet
788 1524 m 0
 868 1524 922 1446 922 1366 c 0
 922 1284 870 1208 788 1208 c 0
 708 1208 654 1286 654 1366 c 0
 654 1443 710 1524 788 1524 c 0
1238 892 m 1
 858 892 l 1
 858 -2 l 1
 772 -28 688 -82 604 -166 c 1
 528 -240 472 -324 436 -424 c 1
 292 -326 l 1
 336 -226 394 -136 470 -60 c 1
 562 28 584 56 690 104 c 1
 690 892 l 1
 370 892 l 1
 370 2 l 1
 200 2 l 1
 200 1058 l 1
 1238 1058 l 1
 1238 892 l 1
EndSplineSet
EndChar

StartChar: ta_rr
Encoding: 65550 -1 86
Width: 1470
GlyphClass: 3
Flags: HMW
LayerCount: 2
Fore
SplineSet
826 1524 m 0
 906 1524 960 1446 960 1366 c 0
 960 1284 908 1208 826 1208 c 0
 746 1208 692 1286 692 1366 c 0
 692 1443 748 1524 826 1524 c 0
260 772 m 2
 260 941 405 1082 574 1082 c 0
 664 1082 738 1048 798 980 c 1
 856 1048 936 1082 1040 1082 c 0
 1194 1082 1306 1010 1380 864 c 1
 1440 750 1470 610 1470 442 c 0
 1470 250 1426 90 1336 -40 c 1
 1232 -188 1088 -264 906 -264 c 2
 472 -264 l 2
 414 -264 368 -307 368 -364 c 0
 368 -406 388 -434 426 -446 c 1
 312 -556 l 1
 236 -510 200 -442 200 -350 c 0
 200 -216 318 -108 452 -108 c 2
 910 -108 l 2
 1042 -108 1144 -44 1216 82 c 0
 1276 188 1304 312 1304 454 c 0
 1304 676 1233 912 1038 912 c 0
 954 912 886 844 886 760 c 2
 886 -2 l 1
 706 -2 l 1
 706 760 l 2
 706 839 649 912 570 912 c 0
 495 912 440 834 440 760 c 2
 440 -2 l 1
 260 -2 l 1
 260 772 l 2
EndSplineSet
EndChar

StartChar: ta_l
Encoding: 65551 -1 87
Width: 1826
GlyphClass: 3
Flags: HMW
LayerCount: 2
Fore
SplineSet
1118 1524 m 0
 1198 1524 1252 1446 1252 1366 c 0
 1252 1284 1200 1208 1118 1208 c 0
 1038 1208 984 1286 984 1366 c 0
 984 1443 1040 1524 1118 1524 c 0
1396 122 m 0
 1577 122 1646 322 1646 526 c 0
 1646 746 1574 902 1426 994 c 1
 1538 1114 l 1
 1730 990 1826 802 1826 552 c 0
 1826 232 1700 -26 1404 -26 c 0
 1302 -26 1218 8 1154 78 c 0
 1090 148 1058 234 1058 336 c 2
 1058 688 l 2
 1058 834 942 916 790 916 c 0
 547 916 360 734 360 492 c 0
 360 398 384 318 430 254 c 1
 424 276 420 296 420 314 c 0
 420 462 523 574 670 574 c 0
 837 574 948 439 948 272 c 0
 948 96 824 -26 648 -26 c 0
 510 -26 398 26 314 134 c 1
 238 234 200 354 200 494 c 0
 200 666 254 806 366 916 c 0
 478 1026 618 1080 790 1080 c 0
 908 1080 1008 1048 1088 988 c 1
 1180 922 1224 834 1224 720 c 2
 1224 360 l 2
 1224 238 1284 122 1396 122 c 0
660 136 m 0
 733 136 784 205 784 280 c 0
 784 355 734 422 660 422 c 0
 584 422 532 355 532 280 c 0
 532 205 585 136 660 136 c 0
EndSplineSet
EndChar

StartChar: ta_ll
Encoding: 65552 -1 88
Width: 2036
GlyphClass: 3
Flags: HMW
LayerCount: 2
Fore
SplineSet
1442 1524 m 0
 1522 1524 1576 1446 1576 1366 c 0
 1576 1284 1524 1208 1442 1208 c 0
 1362 1208 1308 1286 1308 1366 c 0
 1308 1443 1364 1524 1442 1524 c 0
948 272 m 0
 948 96 824 -26 648 -26 c 0
 508 -26 396 28 312 136 c 1
 236 236 200 360 200 504 c 0
 200 668 246 802 340 910 c 0
 438 1024 568 1080 730 1080 c 0
 900 1080 1016 1020 1082 898 c 1
 1082 1052 l 1
 2036 1052 l 1
 2036 892 l 1
 1748 892 l 1
 1748 2 l 1
 1576 2 l 1
 1576 892 l 1
 1248 892 l 1
 1248 2 l 1
 1082 2 l 1
 1082 638 l 2
 1082 805 921 914 748 914 c 0
 632 914 540 872 466 786 c 0
 392 700 356 598 356 482 c 0
 356 390 382 310 434 244 c 1
 424 280 420 304 420 314 c 0
 420 462 523 574 670 574 c 0
 837 574 948 439 948 272 c 0
660 136 m 0
 733 136 784 205 784 280 c 0
 784 355 734 422 660 422 c 0
 582 422 532 358 532 280 c 0
 532 205 585 136 660 136 c 0
EndSplineSet
EndChar

StartChar: ta_zh
Encoding: 65553 -1 89
Width: 1684
GlyphClass: 3
Flags: HMW
LayerCount: 2
Fore
SplineSet
1126 1524 m 0
 1206 1524 1260 1446 1260 1366 c 0
 1260 1284 1208 1208 1126 1208 c 0
 1046 1208 992 1286 992 1366 c 0
 992 1443 1048 1524 1126 1524 c 0
372 -368 m 0
 372 -471 487 -530 598 -530 c 0
 666 -530 722 -514 768 -478 c 0
 794 -458 832 -418 880 -358 c 0
 924 -302 966 -262 1004 -236 c 1
 886 -224 826 -144 826 0 c 1
 228 0 l 1
 228 1052 l 1
 402 1052 l 1
 402 172 l 1
 824 172 l 1
 824 760 l 2
 824 848 856 924 916 988 c 0
 976 1052 1050 1082 1140 1082 c 0
 1296 1082 1428 1012 1534 872 c 1
 1634 742 1684 596 1684 434 c 0
 1684 175 1527 0 1268 0 c 2
 1012 0 l 1
 1012 -26 l 2
 1012 -94 1062 -128 1164 -128 c 2
 1414 -128 l 1
 1414 -310 l 1
 1232 -310 l 2
 1180 -310 1126 -342 1066 -408 c 1
 974 -512 918 -572 894 -592 c 0
 810 -658 710 -692 594 -692 c 0
 496 -692 408 -664 332 -612 c 0
 244 -552 200 -476 200 -384 c 0
 200 -218 320 -104 486 -104 c 2
 688 -104 l 1
 688 -268 l 1
 478 -268 l 2
 408 -268 372 -302 372 -368 c 0
1150 912 m 0
 1072 912 1008 846 1008 768 c 2
 1008 172 l 1
 1304 172 l 2
 1428 172 1488 256 1488 420 c 0
 1488 528 1460 634 1402 734 c 0
 1334 852 1250 912 1150 912 c 0
EndSplineSet
EndChar

StartChar: ta_v
Encoding: 65554 -1 90
Width: 1896
GlyphClass: 3
Flags: HMW
LayerCount: 2
Fore
SplineSet
1354 1524 m 0
 1434 1524 1488 1446 1488 1366 c 0
 1488 1284 1436 1208 1354 1208 c 0
 1274 1208 1220 1286 1220 1366 c 0
 1220 1443 1276 1524 1354 1524 c 0
952 272 m 0
 952 96 828 -26 652 -26 c 0
 516 -26 404 28 320 136 c 1
 240 236 200 356 200 496 c 0
 200 668 254 808 366 916 c 0
 478 1024 620 1078 792 1078 c 0
 964 1078 1110 1024 1224 914 c 0
 1338 804 1396 662 1396 490 c 0
 1396 374 1360 264 1288 160 c 1
 1732 160 l 1
 1732 1052 l 1
 1896 1052 l 1
 1896 -2 l 1
 1072 -2 l 1
 1062 110 l 1
 1172 206 1228 326 1228 472 c 0
 1228 725 1043 916 790 916 c 0
 670 916 568 876 486 794 c 0
 404 712 364 610 364 490 c 0
 364 408 384 330 428 256 c 1
 424 276 424 294 424 314 c 0
 424 463 524 574 672 574 c 0
 838 574 952 438 952 272 c 0
664 136 m 0
 739 136 788 205 788 280 c 0
 788 358 742 422 664 422 c 0
 585 422 536 360 536 280 c 0
 536 202 590 136 664 136 c 0
EndSplineSet
EndChar

StartChar: ta_sh
Encoding: 65555 -1 91
Width: 2482
GlyphClass: 3
Flags: HMW
LayerCount: 2
Fore
SplineSet
1402 1524 m 0
 1482 1524 1536 1446 1536 1366 c 0
 1536 1284 1484 1208 1402 1208 c 0
 1322 1208 1268 1286 1268 1366 c 0
 1268 1443 1324 1524 1402 1524 c 0
2100 488 m 1
 2222 510 2346 590 2346 718 c 1
 2482 718 l 1
 2482 -2 l 1
 2100 -2 l 1
 2100 -532 l 1
 1928 -532 l 1
 1928 -2 l 1
 1928 -2 1928 -2 1048 -2 c 1
 1036 116 l 1
 1148 210 1204 332 1204 484 c 0
 1204 744 1058 914 802 914 c 0
 680 914 578 874 492 794 c 0
 406 714 364 612 364 490 c 0
 364 408 384 330 428 256 c 1
 424 276 424 294 424 314 c 0
 424 463 524 574 672 574 c 0
 841 574 952 440 952 272 c 0
 952 96 828 -26 652 -26 c 0
 516 -26 404 28 320 136 c 1
 240 236 200 356 200 496 c 0
 200 666 258 806 374 914 c 0
 490 1022 632 1078 804 1078 c 0
 1135 1078 1368 833 1368 502 c 0
 1368 378 1334 266 1264 166 c 1
 1928 166 l 1
 1928 312 l 1
 1794 312 1678 348 1584 424 c 1
 1482 504 1432 610 1432 742 c 0
 1432 949 1589 1078 1796 1078 c 0
 1971 1078 2100 965 2100 790 c 2
 2100 488 l 1
2310 166 m 1
 2310 410 l 1
 2248 354 2176 322 2100 316 c 1
 2100 166 l 1
 2310 166 l 1
1782 910 m 0
 1677 910 1600 842 1600 736 c 0
 1600 656 1634 592 1704 542 c 1
 1768 498 1844 478 1928 478 c 1
 1928 778 l 2
 1928 857 1861 910 1782 910 c 0
664 136 m 0
 737 136 788 204 788 280 c 0
 788 358 742 422 664 422 c 0
 583 422 536 360 536 280 c 0
 536 202 588 136 664 136 c 0
EndSplineSet
EndChar

StartChar: ta_s
Encoding: 65556 -1 92
Width: 2284
GlyphClass: 3
Flags: HMW
LayerCount: 2
Fore
SplineSet
1134 1524 m 0
 1214 1524 1268 1446 1268 1366 c 0
 1268 1284 1216 1208 1134 1208 c 0
 1054 1208 1000 1286 1000 1366 c 0
 1000 1443 1056 1524 1134 1524 c 0
1864 122 m 0
 2046 122 2116 320 2116 526 c 0
 2116 746 2040 902 1892 994 c 1
 2008 1114 l 1
 2192 992 2284 804 2284 552 c 0
 2284 232 2168 -26 1872 -26 c 0
 1671 -26 1526 135 1526 336 c 2
 1526 794 l 2
 1526 861 1459 920 1392 920 c 0
 1294 920 1244 870 1244 770 c 2
 1244 0 l 1
 1080 0 l 1
 1080 676 l 2
 1080 838 980 920 784 920 c 0
 668 920 568 878 486 794 c 0
 404 710 364 608 364 490 c 0
 364 408 384 330 428 256 c 1
 424 276 422 294 422 314 c 0
 422 463 525 574 674 574 c 0
 841 574 952 439 952 272 c 0
 952 95 828 -26 650 -26 c 0
 516 -26 404 28 318 136 c 1
 240 236 200 356 200 496 c 0
 200 656 256 794 366 908 c 0
 476 1022 610 1080 770 1080 c 0
 960 1080 1080 1028 1130 926 c 1
 1142 974 1174 1014 1230 1042 c 1
 1278 1068 1330 1080 1386 1080 c 0
 1542 1080 1694 979 1694 830 c 2
 1694 336 l 2
 1694 216 1750 122 1864 122 c 0
662 136 m 0
 737 136 786 200 786 280 c 0
 786 358 740 422 662 422 c 0
 583 422 536 359 536 280 c 0
 536 201 588 136 662 136 c 0
EndSplineSet
EndChar

StartChar: ta_h
Encoding: 65557 -1 93
Width: 2814
GlyphClass: 3
Flags: HMW
LayerCount: 2
Fore
SplineSet
2122 1524 m 0
 2202 1524 2256 1446 2256 1366 c 0
 2256 1284 2204 1208 2122 1208 c 0
 2042 1208 1988 1286 1988 1366 c 0
 1988 1443 2044 1524 2122 1524 c 0
1604 772 m 2
 1604 941 1749 1082 1918 1082 c 0
 2008 1082 2082 1048 2142 980 c 1
 2200 1048 2280 1082 2384 1082 c 0
 2538 1082 2650 1010 2724 864 c 1
 2784 750 2814 610 2814 442 c 0
 2814 250 2770 90 2680 -40 c 1
 2576 -188 2432 -264 2250 -264 c 2
 472 -264 l 2
 414 -264 368 -307 368 -364 c 0
 368 -406 388 -434 426 -446 c 1
 312 -556 l 1
 236 -510 200 -442 200 -350 c 0
 200 -216 318 -108 452 -108 c 2
 2254 -108 l 2
 2386 -108 2488 -44 2560 82 c 0
 2620 188 2648 312 2648 454 c 0
 2648 678 2577 912 2382 912 c 0
 2298 912 2230 844 2230 760 c 2
 2230 -2 l 1
 2050 -2 l 1
 2050 760 l 2
 2050 839 1993 912 1914 912 c 0
 1839 912 1784 834 1784 760 c 2
 1784 -2 l 1
 1072 -2 l 1
 1060 116 l 1
 1172 210 1228 332 1228 484 c 0
 1228 744 1082 914 826 914 c 0
 704 914 602 874 516 794 c 0
 430 714 388 612 388 490 c 0
 388 408 408 330 452 256 c 1
 448 276 448 294 448 314 c 0
 448 463 548 574 696 574 c 0
 865 574 976 440 976 272 c 0
 976 96 852 -26 676 -26 c 0
 540 -26 428 28 344 136 c 1
 264 236 224 356 224 496 c 0
 224 666 282 806 398 914 c 0
 514 1022 656 1078 828 1078 c 0
 1159 1078 1392 833 1392 502 c 0
 1392 384 1358 272 1288 166 c 1
 1336 167 1386 168 1438 168 c 0
 1490 168 1546 167 1604 166 c 1
 1604 772 l 2
688 136 m 0
 761 136 812 204 812 280 c 0
 812 358 766 422 688 422 c 0
 607 422 560 360 560 280 c 0
 560 202 612 136 688 136 c 0
EndSplineSet
LCarets2: 1 0
EndChar

StartChar: ta_ksh
Encoding: 65558 -1 94
Width: 3146
GlyphClass: 3
Flags: HMW
LayerCount: 2
Fore
SplineSet
2030 1524 m 0
 2110 1524 2164 1446 2164 1366 c 0
 2164 1284 2112 1208 2030 1208 c 0
 1950 1208 1896 1286 1896 1366 c 0
 1896 1443 1952 1524 2030 1524 c 0
2764 484 m 1
 2884 506 3010 591 3010 718 c 1
 3146 718 l 1
 3146 -2 l 1
 2764 -2 l 1
 2764 -532 l 1
 2592 -532 l 1
 2592 -2 l 1
 2592 -2 2592 -2 1700 -2 c 1
 1690 116 l 1
 1784 196 1832 282 1832 376 c 0
 1832 521 1720 634 1574 634 c 0
 1496 634 1444 614 1416 578 c 1
 1482 570 1540 532 1588 462 c 0
 1636 392 1660 322 1660 254 c 0
 1660 182 1642 118 1606 64 c 1
 1562 4 1506 -26 1436 -26 c 0
 1259 -26 1136 141 1132 320 c 1
 1132 360 l 2
 1132 390 1136 418 1144 446 c 1
 1032 446 l 1
 1032 320 l 2
 1032 90 879 -28 648 -28 c 0
 540 -28 440 6 348 74 c 1
 248 150 200 240 200 348 c 0
 200 526 286 616 462 616 c 0
 464 616 466 616 468 616 c 1
 468 1052 l 1
 1340 1052 l 1
 1340 886 l 1
 1032 886 l 1
 1032 616 l 1
 1214 616 l 1
 1290 738 1410 800 1574 800 c 0
 1801 800 1994 609 1994 382 c 0
 1994 304 1972 232 1928 166 c 1
 1928 166 1928 166 2592 166 c 1
 2592 312 l 1
 2460 312 2344 348 2248 424 c 0
 2146 504 2096 610 2096 742 c 0
 2096 943 2255 1078 2460 1078 c 0
 2635 1078 2764 965 2764 790 c 2
 2764 484 l 1
2974 166 m 1
 2974 410 l 1
 2910 354 2840 322 2764 316 c 1
 2764 166 l 1
 2974 166 l 1
2446 910 m 0
 2341 910 2264 842 2264 736 c 0
 2264 578 2424 478 2592 478 c 1
 2592 778 l 2
 2592 859 2527 910 2446 910 c 0
1420 118 m 0
 1477 118 1508 188 1508 250 c 0
 1508 313 1485 349 1436 390 c 0
 1398 422 1364 440 1330 440 c 0
 1324 440 1316 438 1312 436 c 1
 1300 408 1294 374 1294 336 c 0
 1294 259 1305 219 1344 166 c 0
 1368 134 1392 118 1420 118 c 0
868 616 m 1
 868 886 l 1
 634 886 l 1
 634 616 l 1
 868 616 l 1
868 312 m 1
 868 357 868 401 868 446 c 1
 512 446 l 2
 414 446 364 414 364 346 c 0
 364 284 398 232 464 188 c 0
 524 148 584 128 648 128 c 0
 788 128 860 188 868 312 c 1
EndSplineSet
EndChar

StartChar: ta_ksha
Encoding: 65559 -1 95
Width: 3220
VWidth: 2096
GlyphClass: 3
Flags: HMW
LayerCount: 2
Fore
SplineSet
2828 496 m 1
 2950 518 3080 604 3080 734 c 1
 3220 734 l 1
 3220 -2 l 1
 2828 -2 l 1
 2828 -544 l 1
 2650 -544 l 1
 2650 -2 l 1
 2650 -2 2650 -2 1736 -2 c 1
 1726 118 l 1
 1822 200 1872 290 1872 386 c 0
 1872 537 1759 648 1608 648 c 0
 1526 648 1474 630 1448 592 c 1
 1516 584 1574 544 1624 472 c 0
 1674 400 1698 332 1698 262 c 0
 1698 113 1610 -26 1468 -26 c 0
 1380 -26 1304 10 1246 82 c 0
 1188 154 1160 234 1158 326 c 1
 1158 370 l 2
 1158 402 1162 428 1170 456 c 1
 1054 456 l 1
 1054 326 l 2
 1054 92 895 -28 660 -28 c 0
 550 -28 448 6 354 76 c 1
 254 152 200 246 200 356 c 0
 200 538 292 632 470 632 c 0
 472 632 474 632 476 632 c 1
 476 1078 l 1
 1368 1078 l 1
 1368 908 l 1
 1054 908 l 1
 1054 632 l 1
 1242 632 l 1
 1322 756 1440 818 1608 818 c 0
 1726 818 1830 778 1914 694 c 0
 1998 610 2038 510 2038 392 c 0
 2038 312 2018 240 1972 170 c 1
 2650 170 l 1
 2650 320 l 1
 2514 320 2398 358 2300 434 c 0
 2194 516 2142 624 2142 758 c 0
 2142 968 2307 1104 2516 1104 c 0
 2608 1104 2680 1074 2740 1022 c 0
 2800 970 2828 900 2828 808 c 2
 2828 496 l 1
3042 170 m 1
 3042 420 l 1
 2978 362 2904 332 2828 324 c 1
 2828 170 l 1
 3042 170 l 1
2502 932 m 0
 2394 932 2314 863 2314 754 c 0
 2314 672 2350 604 2424 554 c 0
 2488 510 2564 490 2650 490 c 1
 2650 796 l 2
 2650 880 2587 932 2502 932 c 0
1452 120 m 0
 1507 120 1542 192 1542 254 c 0
 1542 322 1517 354 1468 398 c 0
 1430 432 1394 448 1360 448 c 0
 1352 448 1346 448 1342 446 c 1
 1330 418 1320 382 1320 344 c 0
 1320 267 1335 226 1374 170 c 0
 1398 136 1424 120 1452 120 c 0
886 632 m 1
 886 908 l 1
 646 908 l 1
 646 632 l 1
 886 632 l 1
886 320 m 1
 886 365 886 411 886 456 c 1
 522 456 l 2
 422 456 370 422 370 352 c 0
 370 288 404 236 472 192 c 0
 532 152 596 130 660 130 c 0
 802 130 878 192 886 320 c 1
EndSplineSet
LCarets2: 2 0 0
EndChar

StartChar: ta_ku
Encoding: 65560 -1 96
Width: 1802
GlyphClass: 3
Flags: HMW
LayerCount: 2
Fore
SplineSet
1376 320 m 2
 1376 91 1224 -28 994 -28 c 0
 884 -28 784 6 692 74 c 1
 594 150 546 240 546 348 c 0
 546 526 631 616 801 616 c 0
 805 616 808 616 812 616 c 1
 812 1052 l 1
 1682 1052 l 1
 1682 886 l 1
 1376 886 l 1
 1376 616 l 1
 1514 616 l 2
 1610 616 1686 574 1738 488 c 0
 1782 416 1802 328 1802 226 c 0
 1802 10 1732 -166 1592 -302 c 0
 1452 -438 1272 -504 1056 -504 c 0
 920 -504 792 -476 674 -416 c 1
 516 -340 396 -224 312 -70 c 1
 236 72 200 236 200 422 c 0
 200 662 280 874 438 1054 c 1
 552 944 l 1
 420 792 356 616 356 418 c 0
 356 202 416 22 538 -118 c 1
 664 -266 832 -340 1044 -340 c 0
 1214 -340 1356 -290 1470 -190 c 0
 1590 -84 1650 52 1650 218 c 0
 1650 338 1599 446 1484 446 c 2
 1376 446 l 1
 1376 320 l 2
1214 616 m 1
 1214 886 l 1
 978 886 l 1
 978 616 l 1
 1214 616 l 1
858 446 m 2
 784 446 710 414 710 346 c 0
 710 284 742 232 806 188 c 1
 866 148 928 128 994 128 c 0
 1134 128 1208 188 1214 312 c 1
 1214 357 1214 401 1214 446 c 1
 858 446 l 2
EndSplineSet
EndChar

StartChar: ta_ngu
Encoding: 65561 -1 97
Width: 1630
GlyphClass: 3
Flags: HMW
LayerCount: 2
Fore
SplineSet
968 660 m 0
 1150 660 1270 536 1270 356 c 0
 1270 280 1242 212 1184 154 c 1
 1460 154 l 1
 1460 1048 l 1
 1630 1048 l 1
 1630 -514 l 1
 1456 -514 l 1
 1456 0 l 1
 626 0 l 1
 626 154 l 1
 910 154 l 2
 1006 154 1090 240 1090 336 c 0
 1090 425 1027 494 938 494 c 0
 870 494 790 435 790 368 c 2
 790 250 l 1
 626 250 l 1
 626 878 l 1
 368 878 l 1
 368 0 l 1
 200 0 l 1
 200 1052 l 1
 1170 1052 l 1
 1170 878 l 1
 790 878 l 1
 790 580 l 1
 834 632 894 660 968 660 c 0
EndSplineSet
EndChar

StartChar: ta_chu
Encoding: 65562 -1 98
Width: 1478
GlyphClass: 3
Flags: HMW
LayerCount: 2
Fore
SplineSet
1018 320 m 2
 1018 93 869 -28 636 -28 c 0
 526 -28 426 6 338 76 c 0
 246 150 200 240 200 348 c 0
 200 526 282 616 448 616 c 0
 450 616 452 616 454 616 c 1
 454 1052 l 1
 1312 1052 l 1
 1312 886 l 1
 1018 886 l 1
 1018 616 l 1
 1478 616 l 1
 1478 446 l 1
 1336 446 l 1
 1336 2 l 1
 1162 2 l 1
 1162 446 l 1
 1018 446 l 1
 1018 320 l 2
856 616 m 1
 856 886 l 1
 620 886 l 1
 620 616 l 1
 856 616 l 1
364 346 m 0
 364 225 508 128 636 128 c 0
 776 128 848 188 856 312 c 1
 856 357 856 401 856 446 c 1
 500 446 l 2
 410 446 364 414 364 346 c 0
EndSplineSet
EndChar

StartChar: ta_nju
Encoding: 65563 -1 99
Width: 2258
GlyphClass: 3
Flags: HMW
LayerCount: 2
Fore
SplineSet
984 272 m 0
 984 96 860 -26 684 -26 c 0
 546 -26 434 26 350 134 c 1
 274 234 236 354 236 494 c 0
 236 658 286 794 390 898 c 0
 494 1002 628 1054 792 1054 c 2
 1816 1054 l 1
 1816 888 l 1
 1382 888 l 1
 1382 566 l 1
 1416 626 1470 656 1546 656 c 0
 1668 656 1764 606 1836 506 c 0
 1900 416 1932 308 1932 182 c 0
 1932 94 1916 8 1884 -76 c 1
 2096 -76 l 1
 2096 1054 l 1
 2258 1054 l 1
 2258 -230 l 1
 1804 -230 l 1
 1632 -478 1332 -602 898 -602 c 0
 591 -602 200 -523 200 -264 c 0
 200 -167 277 -76 374 -76 c 2
 1696 -76 l 1
 1740 8 1762 94 1762 184 c 0
 1762 348 1679 488 1524 488 c 0
 1459 488 1382 446 1382 380 c 2
 1382 14 l 1
 1220 14 l 1
 1220 888 l 1
 790 888 l 2
 562 888 398 717 398 488 c 0
 398 406 418 328 460 256 c 1
 456 276 456 294 456 314 c 0
 456 462 559 574 706 574 c 0
 873 574 984 439 984 272 c 0
696 136 m 0
 769 136 820 205 820 280 c 0
 820 355 770 422 696 422 c 0
 620 422 568 355 568 280 c 0
 568 205 621 136 696 136 c 0
1588 -230 m 1
 396 -230 l 2
 376 -230 364 -242 364 -268 c 0
 364 -320 426 -364 550 -400 c 1
 660 -430 784 -446 924 -446 c 0
 1250 -446 1422 -392 1588 -230 c 1
EndSplineSet
EndChar

StartChar: ta_tu
Encoding: 65564 -1 100
Width: 1834
GlyphClass: 3
Flags: HMW
LayerCount: 2
Fore
SplineSet
1034 1692 m 0
 1619 1692 1834 1214 1834 580 c 2
 1834 -26 l 1
 1666 -26 l 1
 1666 592 l 2
 1666 1105 1498 1520 1030 1520 c 0
 810 1520 640 1416 522 1212 c 0
 424 1042 374 838 374 602 c 0
 374 374 420 168 510 -12 c 0
 624 -238 784 -350 990 -350 c 0
 1114 -350 1216 -300 1292 -200 c 0
 1362 -108 1398 2 1398 130 c 0
 1398 321 1296 488 1114 488 c 0
 1045 488 972 445 972 380 c 2
 972 2 l 1
 802 2 l 1
 802 1054 l 1
 974 1054 l 1
 972 566 l 1
 1012 626 1068 656 1136 656 c 0
 1406 656 1562 417 1562 134 c 0
 1562 -44 1512 -192 1410 -314 c 1
 1302 -446 1160 -512 986 -512 c 0
 728 -512 528 -386 382 -136 c 0
 260 72 200 314 200 592 c 0
 200 882 264 1130 394 1334 c 1
 548 1572 760 1692 1034 1692 c 0
EndSplineSet
EndChar

StartChar: ta_nnu
Encoding: 65565 -1 101
Width: 3182
GlyphClass: 3
Flags: HMW
LayerCount: 2
Fore
SplineSet
948 272 m 0
 948 101 819 -26 648 -26 c 0
 522 -26 418 22 336 120 c 1
 262 212 226 322 226 452 c 0
 226 646 294 798 428 914 c 0
 554 1022 716 1078 912 1078 c 0
 1068 1078 1206 1038 1324 956 c 1
 1446 1040 1570 1080 1694 1080 c 0
 1824 1080 1948 1048 2066 984 c 1
 2146 1046 2232 1078 2324 1078 c 0
 2488 1078 2618 1010 2714 872 c 1
 2800 752 2844 606 2844 434 c 0
 2844 252 2796 82 2702 -76 c 1
 3008 -76 l 1
 3008 1054 l 1
 3182 1054 l 1
 3182 -230 l 1
 2604 -230 l 1
 2319 -553 1954 -680 1346 -680 c 0
 582 -680 200 -540 200 -264 c 0
 200 -167 289 -76 386 -76 c 2
 2492 -76 l 1
 2614 82 2674 258 2674 454 c 0
 2674 574 2646 676 2592 760 c 0
 2528 860 2440 910 2324 910 c 0
 2290 910 2252 898 2212 878 c 1
 2334 742 2396 582 2396 396 c 0
 2396 114 2298 -26 2104 -26 c 0
 1888 -26 1800 185 1800 420 c 0
 1800 586 1848 734 1946 860 c 1
 1878 894 1804 910 1720 910 c 0
 1636 910 1552 890 1466 848 c 1
 1580 728 1636 576 1636 396 c 0
 1636 114 1540 -26 1348 -26 c 0
 1240 -26 1158 24 1102 124 c 1
 1058 206 1034 306 1034 422 c 0
 1034 578 1090 718 1200 842 c 1
 1108 892 1012 916 912 916 c 0
 774 916 654 878 554 800 c 0
 446 716 392 604 392 470 c 0
 392 390 408 322 440 264 c 1
 430 288 424 312 424 338 c 0
 424 473 536 574 670 574 c 0
 835 574 948 437 948 272 c 0
1968 428 m 0
 1968 311 2001 148 2102 148 c 0
 2186 148 2230 228 2230 386 c 0
 2230 550 2182 678 2084 764 c 1
 2008 672 1968 560 1968 428 c 0
1460 408 m 0
 1460 550 1420 664 1340 748 c 1
 1248 666 1202 554 1202 408 c 0
 1202 236 1246 148 1334 148 c 0
 1418 148 1460 236 1460 408 c 0
364 -268 m 0
 364 -464 981 -512 1272 -512 c 0
 1508 -512 1696 -498 1832 -470 c 1
 2044 -428 2218 -348 2356 -230 c 1
 408 -230 l 2
 380 -230 364 -242 364 -268 c 0
660 136 m 0
 733 136 784 205 784 280 c 0
 784 355 734 422 660 422 c 0
 584 422 532 355 532 280 c 0
 532 205 585 136 660 136 c 0
EndSplineSet
EndChar

StartChar: ta_thu
Encoding: 65566 -1 102
Width: 1874
GlyphClass: 3
Flags: HMW
LayerCount: 2
Fore
SplineSet
1116 320 m 2
 1116 90 963 -28 732 -28 c 0
 624 -28 524 6 436 76 c 0
 342 150 296 240 296 348 c 0
 296 526 378 616 546 616 c 0
 548 616 550 616 552 616 c 1
 552 1052 l 1
 1424 1052 l 1
 1424 886 l 1
 1116 886 l 1
 1116 616 l 1
 1150 616 l 2
 1270 616 1368 564 1444 460 c 1
 1514 366 1550 258 1550 134 c 0
 1550 68 1542 0 1522 -76 c 1
 1712 -76 l 1
 1712 1054 l 1
 1874 1054 l 1
 1874 -230 l 1
 1456 -230 l 1
 1308 -468 1076 -588 754 -588 c 0
 652 -588 556 -576 470 -548 c 0
 362 -512 286 -456 240 -386 c 0
 212 -344 200 -304 200 -264 c 0
 200 -167 277 -76 374 -76 c 2
 1346 -76 l 1
 1376 -6 1392 60 1392 120 c 0
 1392 198 1372 270 1332 334 c 1
 1286 410 1226 446 1152 446 c 2
 1116 446 l 1
 1116 320 l 2
952 616 m 1
 952 886 l 1
 718 886 l 1
 718 616 l 1
 952 616 l 1
460 346 m 0
 460 225 606 128 732 128 c 0
 872 128 944 188 952 312 c 1
 952 357 952 401 952 446 c 1
 596 446 l 2
 506 446 460 414 460 346 c 0
1256 -230 m 1
 396 -230 l 2
 376 -230 364 -242 364 -268 c 0
 364 -338 525 -398 602 -414 c 0
 650 -424 702 -430 756 -430 c 0
 966 -430 1132 -362 1256 -230 c 1
EndSplineSet
LCarets2: 1 0
EndChar

StartChar: ta_nu
Encoding: 65567 -1 103
Width: 1778
GlyphClass: 3
Flags: HMW
LayerCount: 2
Fore
SplineSet
1046 488 m 0
 977 488 902 450 902 380 c 2
 902 8 l 1
 736 8 l 1
 736 886 l 1
 488 886 l 1
 488 8 l 1
 314 8 l 1
 314 1058 l 1
 1316 1058 l 1
 1316 886 l 1
 902 886 l 1
 902 572 l 1
 938 628 998 656 1076 656 c 0
 1186 656 1278 606 1352 508 c 1
 1418 418 1450 318 1450 202 c 0
 1450 104 1434 12 1406 -76 c 1
 1616 -76 l 1
 1616 1054 l 1
 1778 1054 l 1
 1778 -230 l 1
 1334 -230 l 1
 1196 -468 992 -588 716 -588 c 0
 546 -588 396 -532 300 -454 c 0
 232 -398 200 -334 200 -264 c 0
 200 -167 277 -76 374 -76 c 2
 1216 -76 l 1
 1254 16 1274 108 1274 208 c 0
 1274 355 1186 488 1046 488 c 0
1130 -230 m 1
 396 -230 l 2
 376 -230 364 -242 364 -268 c 0
 364 -340 500 -393 576 -410 c 0
 620 -420 666 -424 710 -424 c 0
 890 -424 1030 -360 1130 -230 c 1
EndSplineSet
EndChar

StartChar: ta_pu
Encoding: 65568 -1 104
Width: 1370
GlyphClass: 3
Flags: HMW
LayerCount: 2
Fore
SplineSet
1370 -514 m 1
 1198 -514 l 1
 1198 -2 l 1
 200 -2 l 1
 200 1056 l 1
 368 1056 l 1
 368 166 l 1
 1198 166 l 1
 1198 1056 l 1
 1370 1056 l 1
 1370 -514 l 1
EndSplineSet
EndChar

StartChar: ta_mu
Encoding: 65569 -1 105
Width: 2104
GlyphClass: 3
Flags: HMW
LayerCount: 2
Fore
SplineSet
1424 0 m 1
 1424 -316 1218 -552 904 -552 c 0
 682 -552 504 -456 372 -268 c 0
 256 -102 200 98 200 332 c 0
 200 614 276 854 428 1054 c 1
 548 944 l 1
 424 766 364 558 364 320 c 0
 364 140 406 -20 492 -158 c 1
 592 -316 728 -396 898 -396 c 0
 1114 -396 1244 -228 1244 -10 c 0
 1244 -7 1244 -3 1244 0 c 1
 636 0 l 1
 636 1052 l 1
 810 1052 l 1
 810 172 l 1
 1244 172 l 1
 1244 760 l 2
 1244 848 1274 924 1336 988 c 0
 1398 1052 1472 1082 1560 1082 c 0
 1716 1082 1846 1012 1954 872 c 0
 2054 742 2104 596 2104 434 c 0
 2104 175 1947 0 1688 0 c 0
 1624 0 1624 0 1424 0 c 1
1570 912 m 0
 1492 912 1428 846 1428 768 c 2
 1428 172 l 1
 1724 172 l 2
 1848 172 1908 256 1908 420 c 0
 1908 528 1880 634 1822 734 c 0
 1754 852 1670 912 1570 912 c 0
EndSplineSet
EndChar

StartChar: ta_yu
Encoding: 65570 -1 106
Width: 1448
GlyphClass: 3
Flags: HMW
LayerCount: 2
Fore
SplineSet
508 142 m 0
 590 142 646 226 646 308 c 2
 646 1054 l 1
 820 1054 l 1
 820 144 l 1
 1288 144 l 1
 1288 1054 l 1
 1448 1054 l 1
 1448 -514 l 1
 1286 -514 l 1
 1286 -8 l 1
 670 -8 l 1
 670 84 l 1
 632 12 580 -24 512 -24 c 0
 304 -24 200 76 200 272 c 2
 200 1054 l 1
 376 1054 l 1
 376 296 l 2
 376 216 428 142 508 142 c 0
EndSplineSet
EndChar

StartChar: ta_ru
Encoding: 65571 -1 107
Width: 1820
GlyphClass: 3
Flags: HMW
LayerCount: 2
Fore
SplineSet
1376 488 m 0
 1307 488 1234 445 1234 380 c 2
 1234 2 l 1
 1072 2 l 1
 1072 888 l 1
 834 888 l 1
 834 2 l 1
 664 2 l 1
 664 1054 l 1
 1668 1054 l 1
 1668 888 l 1
 1234 888 l 1
 1234 566 l 1
 1272 626 1328 656 1398 656 c 0
 1532 656 1638 604 1714 500 c 1
 1784 406 1820 288 1820 148 c 0
 1820 -62 1750 -236 1606 -380 c 0
 1462 -524 1286 -596 1074 -596 c 0
 808 -596 592 -494 428 -290 c 0
 276 -102 200 130 200 404 c 0
 200 652 272 868 418 1054 c 1
 534 944 l 1
 418 792 358 608 358 396 c 0
 358 170 418 -20 536 -176 c 1
 668 -348 842 -434 1062 -434 c 0
 1232 -434 1372 -382 1484 -274 c 0
 1596 -166 1652 -28 1652 140 c 0
 1652 324 1551 488 1376 488 c 0
EndSplineSet
EndChar

StartChar: ta_rru
Encoding: 65572 -1 108
Width: 1828
GlyphClass: 3
Flags: HMW
LayerCount: 2
Fore
SplineSet
288 772 m 2
 288 941 433 1082 602 1082 c 0
 692 1082 766 1048 826 980 c 1
 884 1048 964 1082 1068 1082 c 0
 1222 1082 1336 1010 1412 864 c 0
 1470 752 1498 612 1498 442 c 0
 1498 262 1462 88 1392 -76 c 1
 1664 -76 l 1
 1664 1054 l 1
 1828 1054 l 1
 1828 -230 l 1
 1320 -230 l 1
 1172 -468 952 -588 664 -588 c 0
 560 -588 462 -564 370 -512 c 1
 256 -450 200 -366 200 -264 c 0
 200 -167 277 -76 374 -76 c 2
 1204 -76 l 1
 1288 88 1332 266 1332 454 c 0
 1332 682 1264 912 1066 912 c 0
 982 912 914 844 914 760 c 2
 914 -2 l 1
 734 -2 l 1
 734 760 l 2
 734 837 675 912 598 912 c 0
 523 912 468 834 468 760 c 2
 468 -2 l 1
 288 -2 l 1
 288 772 l 2
1114 -230 m 1
 396 -230 l 2
 376 -230 364 -242 364 -268 c 0
 364 -318 412 -360 506 -392 c 0
 578 -416 642 -428 694 -428 c 0
 857 -428 1036 -324 1114 -230 c 1
EndSplineSet
EndChar

StartChar: ta_nguu
Encoding: 65573 -1 109
Width: 2094
GlyphClass: 3
Flags: HMW
LayerCount: 2
Fore
SplineSet
1796 300 m 0
 1975 300 2094 172 2094 -8 c 0
 2094 -266 1962 -454 1694 -574 c 1
 1496 -664 1248 -708 954 -708 c 0
 454 -708 202 -584 202 -332 c 0
 202 -250 242 -186 320 -142 c 0
 386 -104 460 -84 544 -84 c 0
 730 -84 866 -144 952 -264 c 1
 826 -372 l 1
 740 -290 640 -250 524 -250 c 0
 502 -250 474 -258 438 -276 c 0
 398 -296 378 -316 378 -338 c 0
 378 -422 454 -482 608 -518 c 1
 704 -542 812 -554 928 -554 c 0
 1156 -554 1362 -518 1550 -444 c 0
 1798 -346 1922 -206 1922 -24 c 0
 1922 68 1874 116 1782 116 c 0
 1680 116 1628 68 1628 -26 c 2
 1628 -202 l 1
 1456 -202 l 1
 1456 0 l 1
 626 0 l 1
 626 154 l 1
 910 154 l 2
 1006 154 1090 240 1090 336 c 0
 1090 421 1023 492 938 492 c 0
 867 492 790 439 790 368 c 2
 790 250 l 1
 626 250 l 1
 626 878 l 1
 368 878 l 1
 368 0 l 1
 200 0 l 1
 200 1052 l 1
 1170 1052 l 1
 1170 878 l 1
 790 878 l 1
 790 580 l 1
 840 632 900 660 968 660 c 0
 1144 660 1270 532 1270 356 c 0
 1270 280 1242 212 1184 154 c 1
 1456 154 l 1
 1456 1054 l 1
 1628 1054 l 1
 1628 194 l 1
 1662 264 1718 300 1796 300 c 0
EndSplineSet
EndChar

StartChar: ta_chuu
Encoding: 65574 -1 110
Width: 1840
GlyphClass: 3
Flags: HMW
LayerCount: 2
Fore
SplineSet
1542 300 m 0
 1721 300 1840 171 1840 -8 c 0
 1840 -234 1728 -414 1506 -548 c 1
 1318 -660 1102 -716 860 -716 c 0
 688 -716 548 -692 434 -644 c 1
 278 -576 200 -468 200 -320 c 0
 200 -244 240 -184 320 -140 c 1
 388 -104 462 -84 542 -84 c 0
 728 -84 864 -144 950 -264 c 1
 824 -372 l 1
 740 -290 638 -250 522 -250 c 0
 472 -250 380 -282 380 -326 c 0
 380 -404 440 -464 556 -504 c 0
 640 -534 730 -550 830 -550 c 0
 1022 -550 1198 -510 1362 -430 c 0
 1566 -330 1668 -196 1668 -24 c 0
 1668 57 1609 116 1528 116 c 0
 1426 116 1374 68 1374 -24 c 2
 1374 -202 l 1
 1202 -202 l 1
 1202 446 l 1
 1022 446 l 1
 1022 320 l 2
 1022 91 870 -28 640 -28 c 0
 530 -28 430 6 342 74 c 1
 250 150 204 240 204 348 c 0
 204 526 284 616 447 616 c 0
 451 616 454 616 458 616 c 1
 458 1052 l 1
 1340 1052 l 1
 1340 886 l 1
 1022 886 l 1
 1022 616 l 1
 1542 616 l 1
 1542 446 l 1
 1376 446 l 1
 1376 350 1376 266 1374 194 c 1
 1410 264 1466 300 1542 300 c 0
860 616 m 1
 860 886 l 1
 624 886 l 1
 624 616 l 1
 860 616 l 1
368 346 m 0
 368 225 514 128 640 128 c 0
 780 128 852 188 860 312 c 1
 860 357 860 401 860 446 c 1
 504 446 l 2
 414 446 368 414 368 346 c 0
EndSplineSet
EndChar

StartChar: ta_vuu
Encoding: 65575 -1 111
Width: 2340
GlyphClass: 3
Flags: HMW
LayerCount: 2
Fore
SplineSet
2038 300 m 0
 2221 300 2340 173 2340 -10 c 0
 2340 -276 2186 -468 1878 -586 c 0
 1664 -668 1396 -708 1078 -708 c 0
 651 -708 220 -654 220 -314 c 0
 220 -240 256 -184 332 -140 c 1
 398 -104 472 -84 556 -84 c 0
 736 -84 868 -140 954 -252 c 1
 828 -352 l 1
 744 -276 648 -238 536 -238 c 0
 490 -238 390 -283 390 -322 c 0
 390 -501 821 -554 1062 -554 c 0
 1306 -554 1530 -522 1736 -454 c 0
 2024 -360 2168 -220 2168 -32 c 0
 2168 66 2120 116 2024 116 c 0
 1922 116 1870 68 1870 -26 c 2
 1870 -202 l 1
 1698 -202 l 1
 1698 -2 l 1
 1072 -2 l 1
 1062 110 l 1
 1172 206 1228 326 1228 472 c 0
 1228 724 1043 916 790 916 c 0
 670 916 568 876 486 794 c 0
 404 712 364 610 364 490 c 0
 364 408 384 330 428 256 c 1
 424 276 424 294 424 314 c 0
 424 463 524 574 672 574 c 0
 838 574 952 438 952 272 c 0
 952 96 828 -26 652 -26 c 0
 516 -26 404 28 320 136 c 1
 240 236 200 356 200 496 c 0
 200 668 254 808 366 916 c 0
 478 1024 620 1078 792 1078 c 0
 964 1078 1110 1024 1224 914 c 0
 1338 804 1396 662 1396 490 c 0
 1396 374 1360 264 1288 160 c 1
 1698 160 l 1
 1698 1054 l 1
 1870 1054 l 1
 1870 194 l 1
 1906 264 1962 300 2038 300 c 0
664 136 m 0
 737 136 788 205 788 280 c 0
 788 355 738 422 664 422 c 0
 587 422 536 357 536 280 c 0
 536 203 588 136 664 136 c 0
EndSplineSet
EndChar

StartChar: ta_zhuu
Encoding: 65576 -1 112
Width: 2434
GlyphClass: 3
Flags: HMW
LayerCount: 2
Fore
SplineSet
1900 -218 m 0
 1823 -218 1748 -256 1748 -328 c 2
 1748 -394 l 1
 1582 -394 l 1
 1582 0 l 1
 968 0 l 1
 968 1052 l 1
 1142 1052 l 1
 1142 172 l 1
 1576 172 l 1
 1576 760 l 2
 1576 844 1606 922 1670 986 c 0
 1734 1050 1808 1082 1892 1082 c 0
 2048 1082 2180 1012 2286 872 c 1
 2386 742 2434 596 2434 434 c 0
 2434 179 2275 0 2020 0 c 2
 1748 0 l 1
 1748 -130 l 1
 1778 -78 1834 -50 1914 -50 c 0
 2076 -50 2206 -158 2206 -316 c 0
 2206 -644 1879 -704 1490 -704 c 0
 1112 -704 806 -606 572 -410 c 1
 324 -206 200 76 200 434 c 0
 200 590 228 728 280 844 c 0
 348 998 450 1076 586 1076 c 0
 674 1076 748 1044 806 980 c 0
 864 916 892 842 892 756 c 0
 892 670 866 594 814 528 c 1
 760 456 690 420 606 420 c 0
 498 420 428 476 394 592 c 1
 380 532 374 452 374 346 c 0
 374 94 482 -116 700 -284 c 0
 918 -452 1186 -536 1502 -536 c 0
 1660 -536 1778 -524 1854 -504 c 0
 1970 -472 2030 -412 2030 -326 c 0
 2030 -266 1960 -218 1900 -218 c 0
2058 172 m 2
 2181 172 2242 286 2242 420 c 0
 2242 530 2214 636 2156 736 c 0
 2088 852 2004 912 1904 912 c 0
 1829 912 1762 844 1762 768 c 2
 1762 172 l 1
 2058 172 l 2
586 600 m 0
 654 600 702 675 702 744 c 0
 702 813 654 888 586 888 c 0
 519 888 472 812 472 744 c 0
 472 676 519 600 586 600 c 0
EndSplineSet
EndChar

StartChar: ta_lluu
Encoding: 65577 -1 113
Width: 3044
GlyphClass: 3
Flags: HMW
LayerCount: 2
Fore
SplineSet
2658 656 m 0
 2893 656 3044 451 3044 208 c 0
 3044 -86 2880 -308 2550 -460 c 0
 2298 -576 2004 -634 1668 -634 c 0
 1282 -634 958 -554 690 -398 c 0
 364 -208 200 68 200 428 c 0
 200 758 289 1088 574 1088 c 0
 743 1088 870 931 870 756 c 0
 870 670 844 594 792 528 c 1
 738 456 670 420 586 420 c 0
 478 420 408 476 372 592 c 1
 366 572 364 550 364 528 c 0
 364 180 500 -80 772 -252 c 1
 1000 -398 1296 -470 1664 -470 c 0
 1952 -470 2208 -422 2432 -328 c 0
 2728 -204 2876 -18 2876 228 c 0
 2876 373 2782 488 2636 488 c 0
 2567 488 2494 445 2494 380 c 2
 2494 14 l 1
 2332 14 l 1
 2328 892 l 1
 2000 892 l 1
 2000 2 l 1
 1834 2 l 1
 1834 638 l 2
 1834 720 1798 788 1726 842 c 1
 1660 890 1584 914 1500 914 c 0
 1386 914 1292 870 1218 784 c 0
 1144 698 1108 598 1108 482 c 0
 1108 394 1134 314 1186 244 c 1
 1176 266 1172 290 1172 314 c 0
 1172 461 1276 574 1422 574 c 0
 1584 574 1700 438 1700 272 c 0
 1700 101 1571 -26 1400 -26 c 0
 1262 -26 1150 30 1066 140 c 0
 990 240 952 362 952 504 c 0
 952 666 1000 802 1096 914 c 0
 1192 1026 1322 1080 1482 1080 c 0
 1646 1080 1762 1020 1834 898 c 1
 1834 1052 l 1
 2784 1052 l 1
 2784 892 l 1
 2500 892 l 1
 2496 838 2494 780 2494 720 c 2
 2494 566 l 1
 2534 626 2590 656 2658 656 c 0
1412 136 m 0
 1481 136 1536 211 1536 280 c 0
 1536 352 1484 422 1412 422 c 0
 1337 422 1284 354 1284 280 c 0
 1284 209 1340 136 1412 136 c 0
564 600 m 0
 634 600 680 675 680 744 c 0
 680 813 634 888 564 888 c 0
 497 888 450 812 450 744 c 0
 450 676 497 600 564 600 c 0
EndSplineSet
EndChar

StartChar: ta_rruu
Encoding: 65578 -1 114
Width: 2486
GlyphClass: 3
Flags: HMW
LayerCount: 2
Fore
SplineSet
288 772 m 2
 288 941 433 1082 602 1082 c 0
 692 1082 766 1048 826 980 c 1
 884 1048 964 1082 1068 1082 c 0
 1222 1082 1336 1010 1412 864 c 0
 1470 752 1498 612 1498 442 c 0
 1498 262 1462 88 1392 -76 c 1
 1664 -76 l 1
 1664 1054 l 1
 2486 1052 l 1
 2486 892 l 1
 2236 892 l 1
 2236 -228 l 1
 2068 -228 l 1
 2068 892 l 1
 1814 892 l 1
 1814 -230 l 1
 1320 -230 l 1
 1172 -468 952 -588 664 -588 c 0
 560 -588 462 -564 370 -512 c 1
 256 -450 200 -366 200 -264 c 0
 200 -167 277 -76 374 -76 c 2
 1204 -76 l 1
 1288 88 1332 266 1332 454 c 0
 1332 682 1264 912 1066 912 c 0
 982 912 914 844 914 760 c 2
 914 -2 l 1
 734 -2 l 1
 734 760 l 2
 734 837 675 912 598 912 c 0
 523 912 468 834 468 760 c 2
 468 -2 l 1
 288 -2 l 1
 288 772 l 2
1114 -230 m 1
 396 -230 l 2
 376 -230 364 -242 364 -268 c 0
 364 -318 412 -360 506 -392 c 0
 578 -416 642 -428 694 -428 c 0
 857 -428 1036 -324 1114 -230 c 1
EndSplineSet
EndChar

StartChar: ta_nnuu
Encoding: 65579 -1 115
Width: 3110
GlyphClass: 3
Flags: HMW
LayerCount: 2
Fore
SplineSet
948 272 m 0
 948 96 824 -26 648 -26 c 0
 520 -26 416 22 336 120 c 0
 262 210 226 320 226 452 c 0
 226 646 292 798 424 914 c 1
 552 1022 716 1078 912 1078 c 0
 1082 1078 1214 1042 1312 974 c 1
 1388 1042 1482 1078 1592 1078 c 0
 1764 1078 1900 1010 2000 874 c 0
 2090 750 2134 596 2134 412 c 0
 2134 226 2102 64 2038 -76 c 1
 2288 -76 l 1
 2288 1054 l 1
 3110 1052 l 1
 3110 892 l 1
 2860 892 l 1
 2860 -228 l 1
 2692 -228 l 1
 2692 892 l 1
 2438 892 l 1
 2438 -230 l 1
 1960 -230 l 1
 1762 -500 1434 -636 974 -636 c 0
 458 -636 200 -512 200 -264 c 0
 200 -166 298 -76 398 -76 c 2
 1844 -76 l 1
 1928 58 1968 220 1968 412 c 0
 1968 670 1839 908 1598 908 c 0
 1542 908 1498 898 1468 880 c 1
 1588 764 1648 604 1648 396 c 0
 1648 164 1562 -26 1348 -26 c 0
 1238 -26 1156 24 1102 124 c 0
 1058 204 1034 304 1034 422 c 0
 1034 602 1082 748 1180 864 c 1
 1096 900 1006 916 912 916 c 0
 772 916 652 878 552 800 c 0
 444 716 392 606 392 470 c 0
 392 386 408 316 440 264 c 1
 430 292 424 318 424 338 c 0
 424 474 534 574 670 574 c 0
 837 574 948 439 948 272 c 0
1472 408 m 0
 1472 592 1424 716 1330 776 c 1
 1246 684 1202 560 1202 408 c 0
 1202 236 1246 148 1334 148 c 0
 1426 148 1472 236 1472 408 c 0
660 136 m 0
 733 136 784 205 784 280 c 0
 784 355 734 422 660 422 c 0
 584 422 532 355 532 280 c 0
 532 205 585 136 660 136 c 0
1740 -230 m 1
 404 -230 l 2
 382 -230 370 -242 370 -268 c 0
 370 -340 458 -396 636 -434 c 0
 754 -460 866 -472 974 -472 c 0
 1271 -472 1584 -371 1740 -230 c 1
EndSplineSet
EndChar

StartChar: ta_suu
Encoding: 65580 -1 116
Width: 3708
GlyphClass: 3
Flags: HMW
LayerCount: 2
Fore
SplineSet
3104 1694 m 0
 3509 1694 3708 1392 3708 970 c 0
 3708 724 3644 520 3516 356 c 0
 3380 182 3196 94 2964 94 c 0
 2744 94 2554 174 2396 334 c 1
 2496 466 l 1
 2624 334 2776 268 2956 268 c 0
 3142 268 3286 338 3392 478 c 1
 3492 606 3542 770 3542 968 c 0
 3542 1294 3409 1526 3104 1526 c 0
 2853 1526 2668 1350 2668 1100 c 1
 2858 1100 l 2
 3042 1100 3168 977 3168 794 c 0
 3168 600 3028 436 2834 436 c 0
 2738 436 2658 474 2594 548 c 0
 2530 622 2498 708 2498 806 c 2
 2498 926 l 1
 2190 926 l 1
 2252 826 2284 700 2284 552 c 0
 2284 232 2168 -26 1872 -26 c 0
 1671 -26 1526 135 1526 336 c 2
 1526 794 l 2
 1526 861 1459 920 1392 920 c 0
 1294 920 1244 870 1244 770 c 2
 1244 0 l 1
 1080 0 l 1
 1080 676 l 2
 1080 838 980 920 784 920 c 0
 668 920 568 878 486 794 c 0
 404 710 364 608 364 490 c 0
 364 408 384 330 428 256 c 1
 424 276 422 294 422 314 c 0
 422 463 525 574 674 574 c 0
 841 574 952 439 952 272 c 0
 952 95 828 -26 650 -26 c 0
 516 -26 404 28 318 136 c 1
 240 236 200 356 200 496 c 0
 200 656 256 794 366 908 c 0
 476 1022 610 1080 770 1080 c 0
 958 1080 1078 1028 1130 926 c 1
 1142 974 1174 1014 1230 1042 c 1
 1278 1068 1330 1080 1386 1080 c 0
 1542 1080 1694 979 1694 830 c 2
 1694 336 l 2
 1694 216 1750 122 1864 122 c 0
 2046 122 2116 320 2116 526 c 0
 2116 746 2040 902 1892 994 c 1
 2008 1100 l 1
 2498 1100 l 1
 2498 1276 2556 1418 2670 1528 c 0
 2784 1638 2928 1694 3104 1694 c 0
2834 608 m 0
 2936 608 2994 692 2994 794 c 0
 2994 876 2934 916 2810 916 c 2
 2668 916 l 1
 2668 806 l 2
 2668 704 2737 608 2834 608 c 0
662 136 m 0
 737 136 786 200 786 280 c 0
 786 358 740 422 662 422 c 0
 583 422 536 359 536 280 c 0
 536 201 588 136 662 136 c 0
EndSplineSet
EndChar

StartChar: ta_juu
Encoding: 65581 -1 117
Width: 3254
GlyphClass: 3
Flags: HMW
LayerCount: 2
Fore
SplineSet
488 368 m 0
 320 368 206 500 206 668 c 0
 206 788 250 886 340 962 c 1
 424 1036 528 1072 652 1072 c 0
 812 1072 928 1030 1004 946 c 1
 1072 1032 1180 1076 1324 1076 c 0
 1416 1076 1496 1048 1570 996 c 1
 1570 1056 l 1
 1960 1056 l 1
 1960 1240 2018 1392 2132 1516 c 0
 2246 1640 2394 1702 2576 1702 c 0
 2782 1702 2950 1622 3076 1460 c 1
 3194 1312 3254 1134 3254 922 c 0
 3254 682 3176 478 3020 308 c 0
 2860 134 2662 46 2426 46 c 0
 2206 46 2016 126 1858 286 c 1
 1958 418 l 1
 2086 286 2238 220 2418 220 c 0
 2610 220 2770 290 2898 430 c 1
 3024 564 3088 728 3088 920 c 0
 3088 1084 3044 1224 2956 1340 c 1
 2860 1470 2732 1534 2576 1534 c 0
 2444 1534 2336 1488 2254 1396 c 0
 2172 1304 2130 1190 2130 1056 c 1
 2320 1056 l 2
 2504 1056 2630 929 2630 746 c 0
 2630 552 2490 388 2296 388 c 0
 2200 388 2120 426 2056 500 c 0
 1992 574 1960 660 1960 758 c 2
 1960 878 l 1
 1678 878 l 1
 1726 804 1750 724 1750 634 c 0
 1750 362 1571 146 1304 146 c 2
 652 146 l 2
 496 146 366 19 366 -136 c 0
 366 -292 489 -416 646 -416 c 0
 744 -416 826 -368 894 -276 c 1
 986 -146 984 -146 1076 -16 c 1
 1164 76 1280 122 1426 122 c 0
 1604 122 1750 -41 1750 -220 c 0
 1750 -406 1622 -578 1442 -578 c 0
 1352 -578 1274 -554 1210 -502 c 0
 1142 -446 1108 -378 1108 -296 c 1
 1278 -296 l 1
 1278 -368 1353 -418 1426 -418 c 0
 1523 -418 1588 -326 1588 -228 c 0
 1588 -140 1512 -38 1426 -38 c 0
 1312 -38 1220 -86 1148 -178 c 1
 1088 -264 1030 -352 970 -440 c 1
 890 -532 782 -578 646 -578 c 0
 522 -578 420 -534 332 -446 c 0
 244 -358 200 -254 200 -130 c 0
 200 -8 244 96 332 182 c 0
 420 268 522 312 644 312 c 2
 1258 312 l 2
 1443 312 1582 443 1582 628 c 0
 1582 786 1489 908 1336 908 c 0
 1182 908 1106 836 1106 694 c 2
 1106 398 l 1
 926 398 l 1
 926 694 l 2
 926 840 834 912 652 912 c 0
 554 912 478 884 426 824 c 1
 456 842 488 850 520 850 c 0
 649 850 760 749 760 620 c 0
 760 467 641 368 488 368 c 0
2260 560 m 0
 2362 560 2420 644 2420 746 c 0
 2420 828 2360 868 2236 868 c 2
 2094 868 l 1
 2094 758 l 2
 2094 656 2163 560 2260 560 c 0
484 520 m 0
 542 520 586 563 586 622 c 0
 586 679 534 724 478 724 c 0
 418 724 376 682 376 622 c 0
 376 563 425 520 484 520 c 0
EndSplineSet
EndChar

StartChar: ta_shuu
Encoding: 65582 -1 118
Width: 4000
GlyphClass: 3
Flags: HMW
LayerCount: 2
Fore
SplineSet
1432 742 m 0
 1432 949 1589 1078 1796 1078 c 0
 1912 1078 1996 1038 2052 956 c 1
 2052 1056 l 1
 2706 1056 l 1
 2706 1240 2764 1392 2878 1516 c 0
 2992 1640 3140 1702 3322 1702 c 0
 3528 1702 3696 1622 3822 1460 c 1
 3940 1312 4000 1134 4000 922 c 0
 4000 682 3922 478 3766 308 c 0
 3606 134 3408 46 3172 46 c 0
 2952 46 2762 126 2604 286 c 1
 2704 418 l 1
 2832 286 2984 220 3164 220 c 0
 3356 220 3516 290 3644 430 c 1
 3770 564 3834 728 3834 920 c 0
 3834 1084 3790 1224 3702 1340 c 1
 3606 1470 3478 1534 3322 1534 c 0
 3190 1534 3082 1488 3000 1396 c 0
 2918 1304 2876 1190 2876 1056 c 1
 3066 1056 l 2
 3250 1056 3376 929 3376 746 c 0
 3376 552 3236 388 3042 388 c 0
 2946 388 2866 426 2802 500 c 0
 2738 574 2706 660 2706 758 c 2
 2706 878 l 1
 2088 878 l 1
 2096 850 2100 822 2100 790 c 2
 2100 488 l 1
 2220 510 2346 591 2346 718 c 1
 2482 718 l 1
 2482 -2 l 1
 2100 -2 l 1
 2100 -532 l 1
 1928 -532 l 1
 1928 -2 l 1
 1928 -2 1928 -2 1048 -2 c 1
 1036 116 l 1
 1148 210 1204 332 1204 484 c 0
 1204 743 1060 914 802 914 c 0
 680 914 578 874 492 794 c 0
 406 714 364 612 364 490 c 0
 364 408 384 330 428 256 c 1
 424 276 424 294 424 314 c 0
 424 463 524 574 672 574 c 0
 841 574 952 440 952 272 c 0
 952 96 828 -26 652 -26 c 0
 516 -26 404 28 320 136 c 1
 240 236 200 356 200 496 c 0
 200 668 260 808 376 916 c 0
 492 1024 634 1078 804 1078 c 0
 968 1078 1104 1024 1210 916 c 0
 1316 808 1368 670 1368 502 c 0
 1368 384 1334 272 1264 166 c 1
 1264 166 1264 166 1928 166 c 1
 1928 312 l 1
 1794 312 1678 348 1584 424 c 1
 1482 504 1432 610 1432 742 c 0
3042 560 m 0
 3144 560 3202 644 3202 746 c 0
 3202 828 3142 868 3018 868 c 2
 2876 868 l 1
 2876 758 l 2
 2876 656 2945 560 3042 560 c 0
2310 166 m 1
 2310 410 l 1
 2248 352 2176 320 2100 316 c 1
 2100 166 l 1
 2310 166 l 1
1782 910 m 0
 1676 910 1600 842 1600 736 c 0
 1600 656 1634 592 1704 542 c 1
 1768 498 1844 478 1928 478 c 1
 1928 778 l 2
 1928 857 1861 910 1782 910 c 0
664 136 m 0
 737 136 788 204 788 280 c 0
 788 358 742 422 664 422 c 0
 585 422 536 357 536 280 c 0
 536 203 586 136 664 136 c 0
EndSplineSet
EndChar

StartChar: ta_huu
Encoding: 65583 -1 119
Width: 4336
GlyphClass: 3
Flags: HMW
LayerCount: 2
Fore
SplineSet
1604 772 m 2
 1604 941 1749 1082 1918 1082 c 0
 2008 1082 2082 1048 2142 980 c 1
 2200 1048 2280 1082 2384 1082 c 0
 2482 1082 2562 1054 2628 994 c 1
 2628 1056 l 1
 3042 1056 l 1
 3042 1240 3100 1392 3214 1516 c 0
 3328 1640 3476 1702 3658 1702 c 0
 3864 1702 4032 1622 4158 1460 c 1
 4276 1312 4336 1134 4336 922 c 0
 4336 682 4258 478 4102 308 c 0
 3942 134 3744 46 3508 46 c 0
 3288 46 3098 126 2940 286 c 1
 3040 418 l 1
 3168 286 3320 220 3500 220 c 0
 3692 220 3852 290 3980 430 c 1
 4106 564 4170 728 4170 920 c 0
 4170 1084 4126 1224 4038 1340 c 1
 3942 1470 3814 1534 3658 1534 c 0
 3526 1534 3418 1488 3336 1396 c 0
 3254 1304 3212 1190 3212 1056 c 1
 3402 1056 l 2
 3586 1056 3712 929 3712 746 c 0
 3712 552 3572 388 3378 388 c 0
 3282 388 3202 426 3138 500 c 0
 3074 574 3042 660 3042 758 c 2
 3042 878 l 1
 2718 878 l 1
 2782 762 2814 618 2814 442 c 0
 2814 250 2770 90 2680 -40 c 1
 2576 -188 2432 -264 2250 -264 c 2
 472 -264 l 2
 414 -264 368 -307 368 -364 c 0
 368 -406 388 -434 426 -446 c 1
 312 -556 l 1
 236 -510 200 -442 200 -350 c 0
 200 -216 318 -108 452 -108 c 2
 2254 -108 l 2
 2386 -108 2488 -44 2560 82 c 0
 2620 188 2648 312 2648 454 c 0
 2648 676 2577 912 2382 912 c 0
 2298 912 2230 844 2230 760 c 2
 2230 -2 l 1
 2050 -2 l 1
 2050 760 l 2
 2050 839 1993 912 1914 912 c 0
 1839 912 1784 834 1784 760 c 2
 1784 -2 l 1
 1072 -2 l 1
 1060 116 l 1
 1172 210 1228 332 1228 484 c 0
 1228 743 1084 914 826 914 c 0
 704 914 602 874 516 794 c 0
 430 714 388 612 388 490 c 0
 388 408 408 330 452 256 c 1
 448 276 448 294 448 314 c 0
 448 463 548 574 696 574 c 0
 865 574 976 440 976 272 c 0
 976 96 852 -26 676 -26 c 0
 540 -26 428 28 344 136 c 1
 264 236 224 356 224 496 c 0
 224 668 284 808 400 916 c 0
 516 1024 658 1078 828 1078 c 0
 992 1078 1128 1024 1234 916 c 0
 1340 808 1392 670 1392 502 c 0
 1392 384 1358 272 1288 166 c 1
 1336 167 1386 168 1438 168 c 0
 1490 168 1546 167 1604 166 c 1
 1604 772 l 2
3378 560 m 0
 3480 560 3538 644 3538 746 c 0
 3538 828 3478 868 3354 868 c 2
 3212 868 l 1
 3212 758 l 2
 3212 656 3281 560 3378 560 c 0
688 136 m 0
 761 136 812 204 812 280 c 0
 812 358 766 422 688 422 c 0
 609 422 560 357 560 280 c 0
 560 203 610 136 688 136 c 0
EndSplineSet
EndChar

StartChar: ta_kshuu
Encoding: 65584 -1 120
Width: 4688
GlyphClass: 3
Flags: HMW
LayerCount: 2
Fore
SplineSet
1574 800 m 0
 1801 800 1994 609 1994 382 c 0
 1994 306 1972 234 1928 166 c 1
 1928 166 1928 166 2592 166 c 1
 2592 312 l 1
 2460 312 2344 348 2248 424 c 0
 2146 504 2096 610 2096 742 c 0
 2096 844 2130 926 2200 986 c 0
 2270 1046 2356 1078 2460 1078 c 0
 2576 1078 2660 1038 2716 958 c 1
 2716 1056 l 1
 3394 1056 l 1
 3394 1240 3452 1392 3566 1516 c 0
 3680 1640 3828 1702 4010 1702 c 0
 4216 1702 4384 1622 4510 1460 c 1
 4628 1312 4688 1134 4688 922 c 0
 4688 682 4610 478 4454 308 c 0
 4294 134 4096 46 3860 46 c 0
 3640 46 3450 126 3292 286 c 1
 3392 418 l 1
 3520 286 3672 220 3852 220 c 0
 4044 220 4204 290 4332 430 c 1
 4458 564 4522 728 4522 920 c 0
 4522 1084 4478 1224 4390 1340 c 1
 4294 1470 4166 1534 4010 1534 c 0
 3878 1534 3770 1488 3688 1396 c 0
 3606 1304 3564 1190 3564 1056 c 1
 3754 1056 l 2
 3938 1056 4064 929 4064 746 c 0
 4064 552 3924 388 3730 388 c 0
 3634 388 3554 426 3490 500 c 0
 3426 574 3394 660 3394 758 c 2
 3394 878 l 1
 2752 878 l 1
 2760 850 2764 822 2764 790 c 2
 2764 484 l 1
 2884 506 3010 590 3010 718 c 1
 3146 718 l 1
 3146 -2 l 1
 2764 -2 l 1
 2764 -532 l 1
 2592 -532 l 1
 2592 -2 l 1
 2592 -2 2592 -2 1700 -2 c 1
 1690 116 l 1
 1784 196 1832 282 1832 376 c 0
 1832 522 1720 634 1574 634 c 0
 1494 634 1442 614 1416 578 c 1
 1482 570 1540 530 1588 460 c 0
 1636 390 1660 322 1660 254 c 0
 1660 182 1642 118 1606 64 c 1
 1562 4 1506 -26 1436 -26 c 0
 1350 -26 1276 10 1220 80 c 0
 1164 150 1134 230 1132 320 c 1
 1132 360 l 2
 1132 390 1136 418 1144 446 c 1
 1032 446 l 1
 1032 320 l 2
 1032 90 879 -28 648 -28 c 0
 540 -28 440 6 348 74 c 1
 248 150 200 240 200 348 c 0
 200 526 286 616 462 616 c 0
 464 616 466 616 468 616 c 1
 468 1052 l 1
 1340 1052 l 1
 1340 886 l 1
 1032 886 l 1
 1032 616 l 1
 1214 616 l 1
 1290 738 1410 800 1574 800 c 0
3730 560 m 0
 3832 560 3890 644 3890 746 c 0
 3890 828 3830 868 3706 868 c 2
 3564 868 l 1
 3564 758 l 2
 3564 656 3633 560 3730 560 c 0
2974 166 m 1
 2974 410 l 1
 2910 354 2840 322 2764 316 c 1
 2764 166 l 1
 2974 166 l 1
2446 910 m 0
 2341 910 2264 842 2264 736 c 0
 2264 578 2424 478 2592 478 c 1
 2592 778 l 2
 2592 859 2527 910 2446 910 c 0
1420 118 m 0
 1477 118 1508 188 1508 250 c 0
 1508 313 1485 349 1436 390 c 0
 1398 422 1364 440 1330 440 c 0
 1324 440 1316 438 1312 436 c 1
 1300 408 1294 374 1294 336 c 0
 1294 259 1304 219 1344 166 c 0
 1368 134 1392 118 1420 118 c 0
868 616 m 1
 868 886 l 1
 634 886 l 1
 634 616 l 1
 868 616 l 1
868 312 m 1
 868 357 868 401 868 446 c 1
 512 446 l 2
 414 446 364 414 364 346 c 0
 364 284 398 232 464 188 c 0
 524 148 584 128 648 128 c 0
 788 128 860 188 868 312 c 1
EndSplineSet
EndChar

StartChar: ta_lu
Encoding: 65585 -1 121
Width: 2186
GlyphClass: 3
Flags: HMW
LayerCount: 2
Fore
SplineSet
1420 122 m 0
 1601 122 1670 322 1670 526 c 0
 1670 746 1598 902 1450 994 c 1
 1562 1114 l 1
 1754 990 1850 802 1850 552 c 0
 1850 264 1770 84 1610 12 c 1
 1610 4 l 2
 1610 -2 1606 -32 1598 -88 c 1
 2024 -88 l 1
 2024 1046 l 1
 2186 1046 l 1
 2186 -242 l 1
 1568 -242 l 1
 1458 -480 1194 -600 778 -600 c 0
 672 -600 574 -588 482 -560 c 0
 366 -524 286 -468 240 -398 c 0
 212 -356 200 -316 200 -276 c 0
 200 -179 277 -88 374 -88 c 2
 1420 -88 l 1
 1426 -60 1430 -42 1430 -34 c 0
 1430 -30 1430 -28 1428 -26 c 1
 1416 -26 l 1
 1414 -26 1411 -26 1409 -26 c 0
 1217 -26 1082 138 1082 336 c 2
 1082 688 l 2
 1082 834 966 916 814 916 c 0
 571 916 384 734 384 492 c 0
 384 398 408 318 454 254 c 1
 448 276 444 296 444 314 c 0
 444 462 547 574 694 574 c 0
 861 574 972 439 972 272 c 0
 972 96 848 -26 672 -26 c 0
 534 -26 422 26 338 134 c 1
 262 234 224 354 224 494 c 0
 224 666 278 806 390 916 c 0
 502 1026 642 1080 814 1080 c 0
 932 1080 1032 1048 1112 988 c 1
 1204 922 1248 834 1248 720 c 2
 1248 360 l 2
 1248 238 1306 122 1420 122 c 0
684 136 m 0
 757 136 808 205 808 280 c 0
 808 355 758 422 684 422 c 0
 608 422 556 355 556 280 c 0
 556 205 609 136 684 136 c 0
1378 -242 m 1
 396 -242 l 2
 376 -242 364 -254 364 -280 c 0
 364 -330 422 -372 538 -406 c 0
 630 -434 710 -448 780 -448 c 0
 1080 -448 1278 -380 1378 -242 c 1
EndSplineSet
EndChar

StartChar: ta_vu
Encoding: 65586 -1 122
Width: 1906
GlyphClass: 3
Flags: HMW
LayerCount: 2
Fore
SplineSet
952 272 m 0
 952 96 828 -26 652 -26 c 0
 516 -26 404 28 320 136 c 1
 240 236 200 356 200 496 c 0
 200 668 254 808 366 918 c 0
 478 1028 620 1082 792 1082 c 0
 964 1082 1110 1028 1224 916 c 0
 1338 804 1396 662 1396 490 c 0
 1396 374 1360 264 1288 160 c 1
 1732 160 l 1
 1732 1052 l 1
 1906 1052 l 1
 1906 -514 l 1
 1732 -514 l 1
 1732 -2 l 1
 1072 -2 l 1
 1062 110 l 1
 1172 206 1228 326 1228 472 c 0
 1228 725 1043 924 790 924 c 0
 670 924 568 880 486 796 c 0
 404 712 364 610 364 490 c 0
 364 408 384 330 428 256 c 1
 424 276 424 294 424 314 c 0
 424 463 524 574 672 574 c 0
 841 574 952 440 952 272 c 0
664 136 m 0
 737 136 788 204 788 280 c 0
 788 358 742 422 664 422 c 0
 583 422 536 360 536 280 c 0
 536 202 588 136 664 136 c 0
EndSplineSet
EndChar

StartChar: ta_zhu
Encoding: 65587 -1 123
Width: 2108
GlyphClass: 3
Flags: HMW
LayerCount: 2
Fore
SplineSet
1572 -218 m 0
 1493 -218 1418 -257 1418 -328 c 2
 1418 -394 l 1
 1256 -394 l 1
 1256 0 l 1
 640 0 l 1
 640 1052 l 1
 814 1052 l 1
 814 172 l 1
 1248 172 l 1
 1248 760 l 2
 1248 844 1280 922 1342 986 c 0
 1404 1050 1478 1082 1564 1082 c 0
 1720 1082 1850 1012 1958 872 c 0
 2058 742 2108 596 2108 434 c 0
 2108 177 1948 0 1692 0 c 2
 1418 0 l 1
 1418 -130 l 1
 1460 -78 1516 -50 1584 -50 c 0
 1747 -50 1864 -165 1864 -328 c 0
 1864 -576 1676 -700 1298 -700 c 0
 980 -700 718 -600 510 -400 c 0
 302 -200 200 58 200 374 c 0
 200 634 280 862 440 1054 c 1
 566 956 l 1
 432 788 364 592 364 370 c 0
 364 94 452 -126 626 -290 c 0
 800 -454 1028 -536 1312 -536 c 0
 1400 -536 1482 -524 1556 -500 c 1
 1658 -464 1708 -410 1708 -338 c 0
 1708 -264 1645 -218 1572 -218 c 0
1728 172 m 2
 1851 172 1912 286 1912 420 c 0
 1912 530 1884 636 1826 736 c 0
 1760 852 1676 912 1574 912 c 0
 1499 912 1432 844 1432 768 c 2
 1432 172 l 1
 1728 172 l 2
EndSplineSet
EndChar

StartChar: ta_llu
Encoding: 65588 -1 124
Width: 2634
GlyphClass: 3
Flags: HMW
LayerCount: 2
Fore
SplineSet
2248 656 m 0
 2485 656 2634 452 2634 208 c 0
 2634 -68 2502 -280 2238 -436 c 0
 2018 -566 1760 -632 1462 -632 c 0
 1112 -632 822 -550 590 -386 c 1
 330 -204 200 52 200 382 c 0
 200 676 278 904 434 1066 c 1
 546 944 l 1
 412 803 362 668 362 400 c 0
 362 112 470 -110 688 -266 c 0
 882 -406 1130 -478 1432 -478 c 0
 1676 -478 1900 -422 2102 -312 c 0
 2346 -178 2466 2 2466 228 c 0
 2466 381 2376 488 2226 488 c 0
 2157 488 2084 445 2084 380 c 2
 2084 14 l 1
 1922 14 l 1
 1918 892 l 1
 1590 892 l 1
 1590 2 l 1
 1424 2 l 1
 1424 638 l 2
 1424 805 1261 914 1090 914 c 0
 976 914 882 870 808 784 c 0
 734 698 698 598 698 482 c 0
 698 392 724 312 776 244 c 1
 766 266 762 290 762 314 c 0
 762 461 865 574 1012 574 c 0
 1177 574 1290 437 1290 272 c 0
 1290 101 1161 -26 990 -26 c 0
 850 -26 740 30 656 140 c 0
 580 240 542 362 542 504 c 0
 542 668 588 802 682 910 c 0
 782 1024 912 1080 1072 1080 c 0
 1236 1080 1354 1020 1424 898 c 1
 1424 1052 l 1
 2374 1052 l 1
 2374 892 l 1
 2090 892 l 1
 2086 852 2084 814 2084 776 c 2
 2084 566 l 1
 2122 626 2178 656 2248 656 c 0
1002 136 m 0
 1075 136 1126 205 1126 280 c 0
 1126 355 1076 422 1002 422 c 0
 926 422 874 355 874 280 c 0
 874 205 927 136 1002 136 c 0
EndSplineSet
EndChar

StartChar: ta_nnnu
Encoding: 65589 -1 125
Width: 2450
GlyphClass: 3
Flags: HMW
LayerCount: 2
Fore
SplineSet
948 272 m 0
 948 96 824 -26 648 -26 c 0
 520 -26 416 22 336 120 c 0
 262 210 226 320 226 452 c 0
 226 646 292 798 424 914 c 1
 552 1022 716 1078 912 1078 c 0
 1082 1078 1214 1042 1312 974 c 1
 1388 1042 1482 1078 1592 1078 c 0
 1764 1078 1900 1010 2000 874 c 0
 2090 750 2134 596 2134 412 c 0
 2134 226 2102 64 2038 -76 c 1
 2288 -76 l 1
 2288 1054 l 1
 2450 1054 l 1
 2450 -230 l 1
 1960 -230 l 1
 1762 -500 1434 -636 974 -636 c 0
 458 -636 200 -512 200 -264 c 0
 200 -166 298 -76 398 -76 c 2
 1844 -76 l 1
 1928 58 1968 220 1968 412 c 0
 1968 670 1839 908 1598 908 c 0
 1542 908 1498 898 1468 880 c 1
 1588 764 1648 604 1648 396 c 0
 1648 164 1562 -26 1348 -26 c 0
 1238 -26 1156 24 1102 124 c 0
 1058 204 1034 304 1034 422 c 0
 1034 600 1082 748 1180 864 c 1
 1096 900 1006 916 912 916 c 0
 772 916 652 878 552 800 c 0
 444 716 392 606 392 470 c 0
 392 386 408 316 440 264 c 1
 430 292 424 318 424 338 c 0
 424 474 534 574 670 574 c 0
 837 574 948 439 948 272 c 0
1472 408 m 0
 1472 592 1424 716 1330 776 c 1
 1244 682 1200 558 1200 408 c 0
 1200 236 1244 148 1334 148 c 0
 1426 148 1472 236 1472 408 c 0
660 136 m 0
 733 136 784 205 784 280 c 0
 784 355 734 422 660 422 c 0
 584 422 532 355 532 280 c 0
 532 205 585 136 660 136 c 0
1740 -230 m 1
 404 -230 l 2
 382 -230 370 -242 370 -268 c 0
 370 -340 458 -396 636 -434 c 0
 754 -460 866 -472 974 -472 c 0
 1271 -472 1584 -371 1740 -230 c 1
EndSplineSet
EndChar

StartChar: ta_su
Encoding: 65590 -1 126
Width: 3192
GlyphClass: 3
Flags: HMW
LayerCount: 2
Fore
SplineSet
1864 122 m 0
 2046 122 2116 321 2116 526 c 0
 2116 746 2040 902 1892 994 c 1
 2008 1114 l 1
 2012 1108 l 1
 2834 1108 l 2
 2934 1108 3016 1074 3086 1004 c 0
 3156 934 3192 850 3192 752 c 0
 3192 556 3031 394 2834 394 c 0
 2636 394 2476 554 2476 752 c 0
 2476 812 2492 868 2520 920 c 1
 2196 920 l 1
 2256 820 2284 698 2284 552 c 0
 2284 229 2170 -26 1872 -26 c 0
 1772 -26 1686 8 1622 78 c 0
 1558 148 1526 234 1526 336 c 2
 1526 794 l 2
 1526 863 1461 920 1392 920 c 1
 1390 920 1389 920 1387 920 c 0
 1293 920 1244 868 1244 770 c 2
 1244 0 l 1
 1080 0 l 1
 1080 676 l 2
 1080 838 980 920 784 920 c 0
 668 920 568 878 486 794 c 0
 404 710 364 608 364 490 c 0
 364 408 384 330 428 256 c 1
 424 276 422 294 422 314 c 0
 422 463 525 574 674 574 c 0
 841 574 952 439 952 272 c 0
 952 95 828 -26 650 -26 c 0
 516 -26 404 28 318 136 c 1
 240 236 200 356 200 496 c 0
 200 652 252 786 356 900 c 1
 466 1018 602 1078 762 1080 c 1
 767 1080 773 1080 778 1080 c 0
 931 1080 1082 1026 1130 926 c 1
 1140 970 1168 1008 1220 1036 c 0
 1272 1064 1326 1080 1386 1080 c 0
 1468 1080 1540 1056 1602 1010 c 0
 1664 964 1694 904 1694 830 c 2
 1694 336 l 2
 1694 194 1750 122 1864 122 c 0
2834 564 m 0
 2935 564 3018 651 3018 752 c 0
 3018 853 2935 936 2834 936 c 0
 2733 936 2646 853 2646 752 c 0
 2646 651 2733 564 2834 564 c 0
662 136 m 0
 737 136 786 200 786 280 c 0
 786 358 740 422 662 422 c 0
 584 422 536 356 536 280 c 0
 536 204 585 136 662 136 c 0
EndSplineSet
EndChar

StartChar: ta_ju
Encoding: 65591 -1 127
Width: 2618
GlyphClass: 3
Flags: HMW
LayerCount: 2
Fore
SplineSet
2260 1056 m 2
 2454 1056 2618 891 2618 698 c 0
 2618 504 2454 340 2260 340 c 0
 2064 340 1902 501 1902 698 c 0
 1902 758 1918 814 1946 866 c 1
 1686 866 l 1
 1730 794 1750 718 1750 634 c 0
 1750 362 1571 146 1304 146 c 2
 652 146 l 2
 496 146 366 19 366 -136 c 0
 366 -292 489 -416 646 -416 c 0
 744 -416 826 -368 894 -276 c 1
 986 -146 984 -146 1076 -16 c 1
 1164 76 1280 122 1426 122 c 0
 1604 122 1750 -41 1750 -220 c 0
 1750 -406 1622 -578 1442 -578 c 0
 1352 -578 1274 -554 1210 -502 c 0
 1142 -446 1108 -378 1108 -296 c 1
 1278 -296 l 1
 1278 -368 1353 -418 1426 -418 c 0
 1523 -418 1588 -326 1588 -228 c 0
 1588 -140 1512 -38 1426 -38 c 0
 1312 -38 1220 -86 1148 -178 c 1
 1088 -264 1030 -352 970 -440 c 1
 890 -532 782 -578 646 -578 c 0
 522 -578 420 -534 332 -446 c 0
 244 -358 200 -254 200 -130 c 0
 200 -8 244 96 332 182 c 0
 420 268 522 312 644 312 c 2
 1258 312 l 2
 1443 312 1582 443 1582 628 c 0
 1582 786 1489 908 1336 908 c 0
 1182 908 1106 836 1106 694 c 2
 1106 398 l 1
 926 398 l 1
 926 694 l 2
 926 840 834 912 652 912 c 0
 554 912 478 884 426 824 c 1
 456 842 488 850 520 850 c 0
 649 850 760 749 760 620 c 0
 760 467 641 368 488 368 c 0
 320 368 206 500 206 668 c 0
 206 788 250 886 340 962 c 1
 424 1036 528 1072 652 1072 c 0
 812 1072 928 1030 1004 946 c 1
 1072 1032 1180 1076 1324 1076 c 0
 1416 1076 1496 1048 1570 996 c 1
 1570 1056 l 1
 2260 1056 l 2
2260 512 m 0
 2362 512 2444 596 2444 698 c 0
 2444 800 2362 884 2260 884 c 0
 2157 884 2072 800 2072 698 c 0
 2072 596 2157 512 2260 512 c 0
484 520 m 0
 542 520 586 563 586 622 c 0
 586 679 534 724 478 724 c 0
 418 724 376 682 376 622 c 0
 376 563 425 520 484 520 c 0
EndSplineSet
EndChar

StartChar: ta_hu
Encoding: 65592 -1 128
Width: 3784
GlyphClass: 3
Flags: HMW
LayerCount: 2
Fore
SplineSet
3426 1056 m 2
 3620 1056 3784 891 3784 698 c 0
 3784 504 3620 340 3426 340 c 0
 3230 340 3068 501 3068 698 c 0
 3068 758 3084 814 3112 866 c 1
 2724 866 l 1
 2784 752 2814 612 2814 442 c 0
 2814 250 2770 90 2680 -40 c 1
 2576 -188 2432 -264 2250 -264 c 2
 472 -264 l 2
 414 -264 368 -307 368 -364 c 0
 368 -406 388 -434 426 -446 c 1
 312 -556 l 1
 236 -510 200 -442 200 -350 c 0
 200 -216 318 -108 452 -108 c 2
 2254 -108 l 2
 2386 -108 2488 -44 2560 82 c 0
 2620 188 2648 312 2648 454 c 0
 2648 676 2577 912 2382 912 c 0
 2298 912 2230 844 2230 760 c 2
 2230 -2 l 1
 2050 -2 l 1
 2050 760 l 2
 2050 839 1993 912 1914 912 c 0
 1839 912 1784 834 1784 760 c 2
 1784 -2 l 1
 1072 -2 l 1
 1060 116 l 1
 1172 210 1228 332 1228 484 c 0
 1228 743 1084 914 826 914 c 0
 704 914 602 874 516 794 c 0
 430 714 388 612 388 490 c 0
 388 408 408 330 452 256 c 1
 448 276 448 294 448 314 c 0
 448 463 548 574 696 574 c 0
 865 574 976 440 976 272 c 0
 976 96 852 -26 676 -26 c 0
 540 -26 428 28 344 136 c 1
 264 236 224 356 224 496 c 0
 224 668 284 808 400 916 c 0
 516 1024 658 1078 828 1078 c 0
 992 1078 1128 1024 1234 916 c 0
 1340 808 1392 670 1392 502 c 0
 1392 384 1358 272 1288 166 c 1
 1336 167 1386 168 1438 168 c 0
 1490 168 1546 167 1604 166 c 1
 1604 772 l 2
 1604 941 1749 1082 1918 1082 c 0
 2008 1082 2082 1048 2142 980 c 1
 2200 1048 2280 1082 2384 1082 c 0
 2476 1082 2552 1056 2616 1004 c 1
 2616 1056 l 1
 3426 1056 l 2
3426 512 m 0
 3528 512 3610 596 3610 698 c 0
 3610 800 3528 884 3426 884 c 0
 3323 884 3238 800 3238 698 c 0
 3238 596 3323 512 3426 512 c 0
688 136 m 0
 761 136 812 204 812 280 c 0
 812 358 766 422 688 422 c 0
 609 422 560 357 560 280 c 0
 560 203 610 136 688 136 c 0
EndSplineSet
EndChar

StartChar: ta_kshu
Encoding: 65593 -1 129
Width: 4028
GlyphClass: 3
Flags: HMW
LayerCount: 2
Fore
SplineSet
3670 1056 m 2
 3864 1056 4028 891 4028 698 c 0
 4028 504 3864 340 3670 340 c 0
 3474 340 3312 501 3312 698 c 0
 3312 758 3328 814 3356 866 c 1
 2758 866 l 1
 2762 842 2764 818 2764 790 c 2
 2764 484 l 1
 2884 506 3010 590 3010 718 c 1
 3146 718 l 1
 3146 -2 l 1
 2764 -2 l 1
 2764 -532 l 1
 2592 -532 l 1
 2592 -2 l 1
 2592 -2 2592 -2 1700 -2 c 1
 1690 116 l 1
 1784 196 1832 282 1832 376 c 0
 1832 522 1720 634 1574 634 c 0
 1494 634 1442 614 1416 578 c 1
 1482 570 1540 530 1588 460 c 0
 1636 390 1660 322 1660 254 c 0
 1660 182 1642 118 1606 64 c 1
 1562 4 1506 -26 1436 -26 c 0
 1350 -26 1276 10 1220 80 c 0
 1164 150 1134 230 1132 320 c 1
 1132 360 l 2
 1132 390 1136 418 1144 446 c 1
 1032 446 l 1
 1032 320 l 2
 1032 90 879 -28 648 -28 c 0
 540 -28 440 6 348 74 c 1
 248 150 200 240 200 348 c 0
 200 526 286 616 462 616 c 0
 464 616 466 616 468 616 c 1
 468 1052 l 1
 1340 1052 l 1
 1340 886 l 1
 1032 886 l 1
 1032 616 l 1
 1214 616 l 1
 1290 738 1410 800 1574 800 c 0
 1801 800 1994 609 1994 382 c 0
 1994 306 1972 234 1928 166 c 1
 2038 168 2118 168 2170 168 c 0
 2242 168 2240 168 2380 168 c 1
 2474 166 2546 166 2592 166 c 1
 2592 312 l 1
 2460 312 2344 348 2248 424 c 0
 2146 504 2096 610 2096 742 c 0
 2096 844 2130 926 2200 986 c 0
 2270 1046 2356 1078 2460 1078 c 0
 2558 1078 2634 1046 2692 986 c 1
 2692 1056 l 1
 3670 1056 l 2
3670 512 m 0
 3772 512 3854 596 3854 698 c 0
 3854 800 3772 884 3670 884 c 0
 3567 884 3482 800 3482 698 c 0
 3482 596 3567 512 3670 512 c 0
2974 166 m 1
 2974 410 l 1
 2910 354 2840 322 2764 316 c 1
 2764 166 l 1
 2974 166 l 1
2446 910 m 0
 2341 910 2264 842 2264 736 c 0
 2264 578 2424 478 2592 478 c 1
 2592 778 l 2
 2592 859 2527 910 2446 910 c 0
1420 118 m 0
 1477 118 1508 188 1508 250 c 0
 1508 313 1485 349 1436 390 c 0
 1398 422 1364 440 1330 440 c 0
 1324 440 1316 438 1312 436 c 1
 1300 408 1294 374 1294 336 c 0
 1294 259 1304 219 1344 166 c 0
 1368 134 1392 118 1420 118 c 0
868 616 m 1
 868 886 l 1
 634 886 l 1
 634 616 l 1
 868 616 l 1
868 312 m 1
 868 357 868 401 868 446 c 1
 512 446 l 2
 414 446 364 414 364 346 c 0
 364 284 398 232 464 188 c 0
 524 148 584 128 648 128 c 0
 788 128 860 188 868 312 c 1
EndSplineSet
EndChar

StartChar: ta_kuu
Encoding: 65594 -1 130
Width: 2316
GlyphClass: 3
Flags: HMW
LayerCount: 2
Fore
SplineSet
1032 320 m 2
 1032 90 879 -28 648 -28 c 0
 540 -28 440 6 348 74 c 1
 248 150 200 240 200 348 c 0
 200 526 286 616 462 616 c 0
 464 616 466 616 468 616 c 1
 468 1052 l 1
 1340 1052 l 1
 1340 886 l 1
 1032 886 l 1
 1032 616 l 1
 1214 616 l 1
 1292 740 1412 804 1574 804 c 0
 1688 804 1784 764 1864 680 c 0
 1942 598 1982 502 1982 390 c 0
 1982 387 1982 385 1982 382 c 1
 1982 304 1962 232 1920 166 c 1
 2316 166 l 1
 2316 -2 l 1
 1720 -2 l 1
 1720 158 l 1
 1786 213 1822 282 1822 368 c 0
 1822 373 1822 377 1822 382 c 1
 1814 519 1713 644 1570 644 c 0
 1498 644 1446 622 1416 578 c 1
 1482 570 1540 530 1588 460 c 0
 1636 390 1660 322 1660 254 c 0
 1660 182 1642 118 1606 64 c 1
 1562 4 1506 -26 1436 -26 c 0
 1350 -26 1276 10 1220 80 c 0
 1164 150 1134 230 1132 320 c 1
 1132 360 l 2
 1132 390 1136 418 1144 446 c 1
 1032 446 l 1
 1032 320 l 2
1420 118 m 0
 1477 118 1508 188 1508 250 c 0
 1508 313 1485 349 1436 390 c 0
 1398 422 1364 440 1330 440 c 0
 1324 440 1316 438 1312 436 c 1
 1300 408 1294 374 1294 336 c 0
 1294 259 1304 219 1344 166 c 0
 1368 134 1392 118 1420 118 c 0
868 616 m 1
 868 886 l 1
 634 886 l 1
 634 616 l 1
 868 616 l 1
868 312 m 1
 868 357 868 401 868 446 c 1
 512 446 l 2
 414 446 364 414 364 346 c 0
 364 284 398 232 464 188 c 0
 524 148 584 128 648 128 c 0
 788 128 860 188 868 312 c 1
EndSplineSet
EndChar

StartChar: ta_nhuu
Encoding: 65595 -1 131
Width: 2884
GlyphClass: 3
Flags: HMW
LayerCount: 2
Fore
SplineSet
984 272 m 0
 984 96 860 -26 684 -26 c 0
 546 -26 434 26 350 134 c 1
 274 234 236 354 236 494 c 0
 236 658 286 794 390 898 c 0
 494 1002 628 1054 792 1054 c 2
 1816 1054 l 1
 1816 888 l 1
 1382 888 l 1
 1382 566 l 1
 1416 626 1470 656 1546 656 c 0
 1668 656 1764 606 1836 506 c 0
 1900 416 1932 308 1932 182 c 0
 1932 94 1916 8 1884 -76 c 1
 2096 -76 l 1
 2096 1054 l 1
 2884 1052 l 1
 2884 892 l 1
 2636 892 l 1
 2636 -228 l 1
 2468 -228 l 1
 2468 892 l 1
 2246 892 l 1
 2246 -230 l 1
 1804 -230 l 1
 1632 -478 1332 -602 898 -602 c 0
 591 -602 200 -523 200 -264 c 0
 200 -167 277 -76 374 -76 c 2
 1696 -76 l 1
 1740 8 1762 94 1762 184 c 0
 1762 348 1679 488 1524 488 c 0
 1459 488 1382 446 1382 380 c 2
 1382 14 l 1
 1220 14 l 1
 1220 888 l 1
 790 888 l 2
 562 888 398 717 398 488 c 0
 398 406 418 328 460 256 c 1
 456 276 456 294 456 314 c 0
 456 462 559 574 706 574 c 0
 873 574 984 439 984 272 c 0
696 136 m 0
 769 136 820 205 820 280 c 0
 820 355 770 422 696 422 c 0
 620 422 568 355 568 280 c 0
 568 205 621 136 696 136 c 0
1588 -230 m 1
 396 -230 l 2
 376 -230 364 -242 364 -268 c 0
 364 -320 426 -364 550 -400 c 1
 660 -430 784 -446 924 -446 c 0
 1250 -446 1422 -392 1588 -230 c 1
EndSplineSet
EndChar

StartChar: ta_tuu
Encoding: 65596 -1 132
Width: 1664
GlyphClass: 3
Flags: HMW
LayerCount: 2
Fore
SplineSet
1136 656 m 0
 1406 656 1562 417 1562 134 c 0
 1562 -44 1512 -192 1410 -314 c 1
 1302 -446 1160 -512 986 -512 c 0
 728 -512 528 -386 382 -136 c 0
 260 72 200 314 200 592 c 0
 200 882 264 1130 394 1334 c 1
 548 1572 760 1692 1034 1692 c 0
 1238 1692 1408 1632 1544 1512 c 1
 1624 1440 1664 1348 1664 1234 c 0
 1664 1068 1556 902 1398 902 c 0
 1239 902 1130 1067 1130 1234 c 0
 1130 1352 1174 1432 1260 1474 c 1
 1182 1504 1106 1520 1030 1520 c 0
 810 1520 640 1416 522 1212 c 0
 424 1042 374 838 374 602 c 0
 374 374 420 168 510 -12 c 0
 624 -238 784 -350 990 -350 c 0
 1114 -350 1216 -300 1292 -200 c 0
 1362 -108 1398 2 1398 130 c 0
 1398 321 1296 488 1114 488 c 0
 1045 488 972 445 972 380 c 2
 972 2 l 1
 802 2 l 1
 802 1054 l 1
 974 1054 l 1
 972 566 l 1
 1012 626 1068 656 1136 656 c 0
1392 1076 m 0
 1464 1076 1508 1149 1508 1220 c 0
 1508 1289 1462 1364 1392 1364 c 0
 1325 1364 1278 1288 1278 1220 c 0
 1278 1151 1323 1076 1392 1076 c 0
EndSplineSet
EndChar

StartChar: ta_nnnuu
Encoding: 65597 -1 133
Width: 3806
GlyphClass: 3
Flags: HMW
LayerCount: 2
Fore
SplineSet
936 272 m 0
 936 101 807 -26 636 -26 c 0
 510 -26 406 22 324 120 c 1
 250 212 214 322 214 452 c 0
 214 646 282 798 416 914 c 0
 542 1022 704 1078 900 1078 c 0
 1056 1078 1194 1038 1312 956 c 1
 1434 1040 1558 1080 1682 1080 c 0
 1812 1080 1936 1048 2054 984 c 1
 2134 1046 2220 1078 2312 1078 c 0
 2476 1078 2606 1010 2702 872 c 1
 2788 752 2832 606 2832 434 c 0
 2832 252 2784 82 2690 -76 c 1
 2996 -76 l 1
 2996 1054 l 1
 3806 1052 l 1
 3806 892 l 1
 3556 892 l 1
 3556 -228 l 1
 3388 -228 l 1
 3388 892 l 1
 3146 892 l 1
 3146 -230 l 1
 2592 -230 l 1
 2307 -553 1942 -680 1334 -680 c 0
 578 -680 200 -540 200 -264 c 0
 200 -167 289 -76 386 -76 c 2
 2480 -76 l 1
 2602 82 2662 258 2662 454 c 0
 2662 574 2634 676 2580 760 c 0
 2516 860 2428 910 2312 910 c 0
 2278 910 2240 898 2200 878 c 1
 2330 732 2396 572 2396 396 c 0
 2396 168 2305 -26 2092 -26 c 0
 1896 -26 1800 122 1800 420 c 0
 1800 596 1844 744 1934 860 c 1
 1866 894 1792 910 1708 910 c 0
 1624 910 1540 890 1454 848 c 1
 1568 728 1624 576 1624 396 c 0
 1624 114 1528 -26 1336 -26 c 0
 1228 -26 1146 24 1090 124 c 1
 1046 206 1022 306 1022 422 c 0
 1022 578 1078 718 1188 842 c 1
 1096 892 1000 916 900 916 c 0
 762 916 642 878 542 800 c 0
 434 716 380 604 380 470 c 0
 380 390 396 322 428 264 c 1
 418 288 412 312 412 338 c 0
 412 473 524 574 658 574 c 0
 823 574 936 437 936 272 c 0
2230 386 m 0
 2230 544 2178 672 2072 764 c 1
 2004 680 1968 568 1968 428 c 0
 1968 242 2008 148 2090 148 c 0
 2182 148 2230 228 2230 386 c 0
1448 408 m 0
 1448 550 1408 664 1328 748 c 1
 1236 666 1190 554 1190 408 c 0
 1190 236 1234 148 1322 148 c 0
 1406 148 1448 236 1448 408 c 0
364 -268 m 0
 364 -463 970 -512 1260 -512 c 0
 1496 -512 1684 -498 1820 -470 c 1
 2032 -428 2206 -348 2344 -230 c 1
 408 -230 l 2
 380 -230 364 -242 364 -268 c 0
648 136 m 0
 721 136 772 205 772 280 c 0
 772 355 722 422 648 422 c 0
 572 422 520 355 520 280 c 0
 520 205 573 136 648 136 c 0
EndSplineSet
EndChar

StartChar: ta_thuu
Encoding: 65598 -1 134
Width: 2522
GlyphClass: 3
Flags: HMW
LayerCount: 2
Fore
SplineSet
1116 320 m 2
 1116 90 963 -28 732 -28 c 0
 624 -28 524 6 436 76 c 0
 342 150 296 240 296 348 c 0
 296 526 378 616 546 616 c 0
 548 616 550 616 552 616 c 1
 552 1052 l 1
 1424 1052 l 1
 1424 886 l 1
 1116 886 l 1
 1116 616 l 1
 1150 616 l 2
 1270 616 1368 564 1444 460 c 1
 1514 366 1550 258 1550 134 c 0
 1550 68 1542 0 1522 -76 c 1
 1712 -76 l 1
 1712 1054 l 1
 2522 1052 l 1
 2522 892 l 1
 2272 892 l 1
 2272 -228 l 1
 2104 -228 l 1
 2104 892 l 1
 1862 892 l 1
 1862 -230 l 1
 1456 -230 l 1
 1308 -468 1076 -588 754 -588 c 0
 652 -588 556 -576 470 -548 c 0
 362 -512 286 -456 240 -386 c 0
 212 -344 200 -304 200 -264 c 0
 200 -167 277 -76 374 -76 c 2
 1346 -76 l 1
 1376 -6 1392 60 1392 120 c 0
 1392 198 1372 270 1332 334 c 1
 1286 410 1226 446 1152 446 c 2
 1116 446 l 1
 1116 320 l 2
952 616 m 1
 952 886 l 1
 718 886 l 1
 718 616 l 1
 952 616 l 1
460 346 m 0
 460 225 606 128 732 128 c 0
 872 128 944 188 952 312 c 1
 952 357 952 401 952 446 c 1
 596 446 l 2
 506 446 460 414 460 346 c 0
1256 -230 m 1
 396 -230 l 2
 376 -230 364 -242 364 -268 c 0
 364 -338 525 -398 602 -414 c 0
 650 -424 702 -430 756 -430 c 0
 966 -430 1132 -362 1256 -230 c 1
EndSplineSet
EndChar

StartChar: ta_nuu
Encoding: 65599 -1 135
Width: 2438
GlyphClass: 3
Flags: HMW
LayerCount: 2
Fore
SplineSet
1046 488 m 0
 977 488 902 450 902 380 c 2
 902 8 l 1
 736 8 l 1
 736 886 l 1
 488 886 l 1
 488 8 l 1
 314 8 l 1
 314 1058 l 1
 1316 1058 l 1
 1316 886 l 1
 902 886 l 1
 902 572 l 1
 938 628 998 656 1076 656 c 0
 1186 656 1278 606 1352 508 c 1
 1418 418 1450 318 1450 202 c 0
 1450 104 1434 12 1406 -76 c 1
 1616 -76 l 1
 1616 1054 l 1
 1766 1054 l 1
 1766 1052 l 1
 2438 1052 l 1
 2438 892 l 1
 2188 892 l 1
 2188 -228 l 1
 2020 -228 l 1
 2020 892 l 1
 1766 892 l 1
 1766 -230 l 1
 1334 -230 l 1
 1196 -468 992 -588 716 -588 c 0
 546 -588 396 -532 300 -454 c 0
 232 -398 200 -334 200 -264 c 0
 200 -167 277 -76 374 -76 c 2
 1216 -76 l 1
 1254 16 1274 108 1274 208 c 0
 1274 355 1186 488 1046 488 c 0
1130 -230 m 1
 396 -230 l 2
 376 -230 364 -242 364 -268 c 0
 364 -340 500 -393 576 -410 c 0
 620 -420 666 -424 710 -424 c 0
 890 -424 1030 -360 1130 -230 c 1
EndSplineSet
EndChar

StartChar: ta_puu
Encoding: 65600 -1 136
Width: 1842
GlyphClass: 3
Flags: HMW
LayerCount: 2
Fore
SplineSet
1544 300 m 0
 1723 300 1842 171 1842 -8 c 0
 1842 -234 1730 -414 1508 -548 c 1
 1320 -660 1104 -716 862 -716 c 0
 690 -716 550 -692 436 -644 c 1
 280 -576 202 -468 202 -320 c 0
 202 -244 242 -184 322 -140 c 1
 390 -104 464 -84 544 -84 c 0
 730 -84 866 -144 952 -264 c 1
 826 -372 l 1
 742 -290 640 -250 524 -250 c 0
 474 -250 382 -282 382 -326 c 0
 382 -404 442 -464 558 -504 c 0
 642 -534 732 -550 832 -550 c 0
 1024 -550 1200 -510 1364 -430 c 0
 1568 -330 1670 -196 1670 -24 c 0
 1670 57 1611 116 1530 116 c 0
 1428 116 1376 68 1376 -24 c 2
 1376 -202 l 1
 1204 -202 l 1
 1204 -2 l 1
 200 -2 l 1
 200 1056 l 1
 368 1056 l 1
 368 166 l 1
 1202 166 l 1
 1202 1056 l 1
 1376 1056 l 1
 1376 194 l 1
 1412 264 1468 300 1544 300 c 0
EndSplineSet
EndChar

StartChar: ta_muu
Encoding: 65601 -1 137
Width: 2432
GlyphClass: 3
Flags: HMW
LayerCount: 2
Fore
SplineSet
1572 760 m 2
 1572 932 1715 1082 1888 1082 c 0
 2044 1082 2174 1012 2282 872 c 0
 2382 742 2432 596 2432 434 c 0
 2432 177 2273 0 2016 0 c 0
 1924 0 1924 0 1752 0 c 1
 1752 -2 1752 -5 1752 -7 c 0
 1752 -186 1680 -331 1538 -440 c 0
 1406 -542 1248 -592 1060 -592 c 0
 794 -592 582 -498 422 -308 c 1
 274 -128 200 98 200 370 c 0
 200 688 272 904 420 1018 c 0
 474 1060 534 1080 598 1080 c 0
 769 1080 886 926 886 756 c 0
 886 580 768 420 602 420 c 0
 500 420 428 476 388 592 c 1
 368 528 360 440 360 328 c 0
 360 116 424 -60 550 -208 c 0
 682 -362 854 -440 1064 -440 c 0
 1204 -440 1320 -402 1416 -326 c 1
 1520 -246 1572 -140 1572 -8 c 0
 1572 -6 1572 -3 1572 0 c 1
 964 0 l 1
 964 1052 l 1
 1138 1052 l 1
 1138 172 l 1
 1572 172 l 1
 1572 760 l 2
2052 172 m 2
 2179 172 2236 285 2236 420 c 0
 2236 528 2208 634 2150 736 c 1
 2082 852 1998 912 1898 912 c 0
 1823 912 1756 844 1756 768 c 2
 1756 172 l 1
 2052 172 l 2
580 600 m 0
 650 600 696 675 696 744 c 0
 696 813 650 888 580 888 c 0
 513 888 466 812 466 744 c 0
 466 676 513 600 580 600 c 0
EndSplineSet
EndChar

StartChar: ta_yuu
Encoding: 65602 -1 138
Width: 1936
GlyphClass: 3
Flags: HMW
LayerCount: 2
Fore
SplineSet
1638 300 m 0
 1817 300 1936 172 1936 -8 c 0
 1936 -260 1808 -444 1550 -566 c 0
 1352 -660 1110 -708 826 -708 c 0
 662 -708 528 -684 422 -638 c 1
 274 -576 200 -474 200 -332 c 0
 200 -174 373 -84 542 -84 c 0
 728 -84 864 -144 950 -264 c 1
 824 -372 l 1
 738 -290 638 -250 522 -250 c 0
 478 -250 376 -293 376 -338 c 0
 376 -412 440 -468 568 -508 c 0
 660 -536 756 -552 854 -552 c 0
 904 -552 976 -544 1074 -528 c 0
 1394 -475 1762 -335 1762 -24 c 0
 1762 68 1716 116 1624 116 c 0
 1522 116 1470 68 1470 -26 c 2
 1470 -202 l 1
 1298 -202 l 1
 1298 -8 l 1
 682 -8 l 1
 682 84 l 1
 644 12 592 -24 524 -24 c 0
 316 -24 212 76 212 272 c 2
 212 1054 l 1
 388 1054 l 1
 388 296 l 2
 388 216 440 142 520 142 c 0
 602 142 658 226 658 308 c 2
 658 1054 l 1
 832 1054 l 1
 832 144 l 1
 1298 144 l 1
 1298 1054 l 1
 1470 1054 l 1
 1470 194 l 1
 1506 264 1562 300 1638 300 c 0
EndSplineSet
EndChar

StartChar: ta_ruu
Encoding: 65603 -1 139
Width: 2138
GlyphClass: 3
Flags: HMW
LayerCount: 2
Fore
SplineSet
1702 488 m 0
 1632 488 1556 451 1556 380 c 2
 1556 2 l 1
 1394 2 l 1
 1394 888 l 1
 1156 888 l 1
 1156 2 l 1
 986 2 l 1
 986 1054 l 1
 1990 1054 l 1
 1990 888 l 1
 1556 888 l 1
 1556 566 l 1
 1596 628 1656 660 1734 660 c 0
 1862 660 1962 604 2038 494 c 0
 2104 398 2138 284 2138 152 c 0
 2138 -90 2042 -284 1852 -432 c 1
 1676 -566 1464 -634 1216 -634 c 0
 746 -634 434 -426 278 -14 c 1
 226 120 200 262 200 410 c 0
 200 708 280 912 440 1020 c 1
 496 1056 556 1076 616 1076 c 0
 784 1076 892 931 892 756 c 0
 892 670 866 594 814 528 c 1
 760 456 692 420 608 420 c 0
 500 420 430 476 394 592 c 1
 372 508 362 424 362 340 c 0
 362 98 442 -96 606 -248 c 0
 770 -400 972 -476 1216 -476 c 0
 1418 -476 1590 -424 1734 -320 c 0
 1894 -204 1974 -50 1974 144 c 0
 1974 323 1871 488 1702 488 c 0
586 600 m 0
 656 600 702 675 702 744 c 0
 702 813 656 888 586 888 c 0
 519 888 472 812 472 744 c 0
 472 676 519 600 586 600 c 0
EndSplineSet
EndChar

StartChar: ta_luu
Encoding: 65604 -1 140
Width: 2834
GlyphClass: 3
Flags: HMW
LayerCount: 2
Fore
SplineSet
1420 122 m 0
 1601 122 1670 322 1670 526 c 0
 1670 746 1598 902 1450 994 c 1
 1562 1114 l 1
 1754 990 1850 802 1850 552 c 0
 1850 264 1770 84 1610 12 c 1
 1610 4 l 2
 1610 -2 1606 -32 1598 -88 c 1
 2024 -88 l 1
 2024 1046 l 1
 2834 1046 l 1
 2834 892 l 1
 2584 892 l 1
 2584 -240 l 1
 2416 -240 l 1
 2416 892 l 1
 2174 892 l 1
 2174 -242 l 1
 1568 -242 l 1
 1458 -480 1194 -600 778 -600 c 0
 672 -600 574 -588 482 -560 c 0
 366 -524 286 -468 240 -398 c 0
 212 -356 200 -316 200 -276 c 0
 200 -179 277 -88 374 -88 c 2
 1420 -88 l 1
 1426 -60 1430 -42 1430 -34 c 0
 1430 -30 1430 -28 1428 -26 c 1
 1416 -26 l 1
 1414 -26 1411 -26 1409 -26 c 0
 1217 -26 1082 138 1082 336 c 2
 1082 688 l 2
 1082 834 966 916 814 916 c 0
 571 916 384 734 384 492 c 0
 384 398 408 318 454 254 c 1
 448 276 444 296 444 314 c 0
 444 462 547 574 694 574 c 0
 861 574 972 439 972 272 c 0
 972 96 848 -26 672 -26 c 0
 534 -26 422 26 338 134 c 1
 262 234 224 354 224 494 c 0
 224 666 278 806 390 916 c 0
 502 1026 642 1080 814 1080 c 0
 932 1080 1032 1048 1112 988 c 1
 1204 922 1248 834 1248 720 c 2
 1248 360 l 2
 1248 238 1306 122 1420 122 c 0
684 136 m 0
 757 136 808 205 808 280 c 0
 808 355 758 422 684 422 c 0
 608 422 556 355 556 280 c 0
 556 205 609 136 684 136 c 0
1378 -242 m 1
 396 -242 l 2
 376 -242 364 -254 364 -280 c 0
 364 -330 422 -372 538 -406 c 0
 630 -434 710 -448 780 -448 c 0
 1080 -448 1278 -380 1378 -242 c 1
EndSplineSet
EndChar

StartChar: ta_ki
Encoding: 65605 -1 141
Width: 1730
GlyphClass: 3
Flags: HMW
LayerCount: 2
Fore
SplineSet
812 1300 m 0
 812 1552 1014 1700 1274 1700 c 0
 1398 1700 1506 1658 1596 1576 c 0
 1686 1494 1730 1394 1730 1272 c 2
 1730 0 l 1
 1560 0 l 1
 1560 1260 l 2
 1560 1334 1532 1394 1474 1444 c 0
 1416 1494 1350 1520 1274 1520 c 0
 1109 1520 980 1448 980 1292 c 0
 980 1178 1030 1098 1132 1052 c 1
 1336 1052 l 1
 1336 886 l 1
 1030 886 l 1
 1030 616 l 1
 1168 616 l 2
 1260 616 1332 586 1384 524 c 1
 1428 466 1452 388 1452 292 c 0
 1452 78 1360 -28 1180 -28 c 0
 1124 -28 1074 -18 1030 2 c 1
 1092 144 l 1
 1120 128 1146 120 1174 120 c 0
 1250 120 1288 176 1288 286 c 0
 1288 368 1264 416 1214 436 c 1
 1194 442 1134 446 1030 446 c 1
 1030 320 l 2
 1030 91 878 -28 648 -28 c 0
 538 -28 438 6 346 74 c 1
 248 150 200 240 200 348 c 0
 200 526 286 616 460 616 c 0
 462 616 464 616 466 616 c 1
 466 1052 l 1
 920 1052 l 1
 848 1116 812 1198 812 1300 c 0
868 616 m 1
 868 886 l 1
 632 886 l 1
 632 616 l 1
 868 616 l 1
364 346 m 0
 364 226 521 128 648 128 c 0
 788 128 860 188 868 312 c 1
 868 357 868 401 868 446 c 1
 512 446 l 2
 414 446 364 414 364 346 c 0
EndSplineSet
EndChar

StartChar: ta_ngi
Encoding: 65606 -1 142
Width: 2164
GlyphClass: 3
Flags: HMW
LayerCount: 2
Fore
SplineSet
968 660 m 0
 1147 660 1270 536 1270 356 c 0
 1270 280 1242 212 1184 154 c 1
 1688 154 l 1
 1688 676 l 1
 1558 676 1446 728 1354 830 c 0
 1262 932 1216 1048 1216 1178 c 0
 1216 1328 1260 1454 1346 1550 c 0
 1432 1646 1550 1694 1698 1694 c 0
 1826 1694 1934 1654 2026 1574 c 0
 2118 1494 2164 1390 2164 1262 c 2
 2164 0 l 1
 1998 0 l 1
 1998 1224 l 2
 1998 1393 1867 1520 1698 1520 c 0
 1501 1520 1384 1366 1384 1168 c 0
 1384 1088 1414 1016 1476 948 c 0
 1538 880 1608 848 1688 848 c 1
 1688 1048 l 1
 1858 1048 l 1
 1858 0 l 1
 626 0 l 1
 626 154 l 1
 910 154 l 2
 1006 154 1090 240 1090 336 c 0
 1090 425 1027 494 938 494 c 0
 868 494 790 439 790 368 c 2
 790 250 l 1
 626 250 l 1
 626 878 l 1
 368 878 l 1
 368 0 l 1
 200 0 l 1
 200 1052 l 1
 1170 1052 l 1
 1170 878 l 1
 790 878 l 1
 790 580 l 1
 834 632 894 660 968 660 c 0
EndSplineSet
EndChar

StartChar: ta_chi
Encoding: 65607 -1 143
Width: 1580
GlyphClass: 3
Flags: HMW
LayerCount: 2
Fore
SplineSet
662 1300 m 0
 662 1555 866 1700 1130 1700 c 0
 1254 1700 1360 1658 1448 1576 c 0
 1536 1494 1580 1394 1580 1272 c 2
 1580 0 l 1
 1414 0 l 1
 1414 1260 l 2
 1414 1334 1386 1394 1328 1444 c 0
 1270 1494 1206 1520 1130 1520 c 0
 930 1520 830 1444 830 1292 c 0
 830 1182 880 1102 980 1052 c 1
 1314 1052 l 1
 1314 886 l 1
 1018 886 l 1
 1018 616 l 1
 1336 616 l 1
 1336 446 l 1
 1018 446 l 1
 1018 320 l 2
 1018 92 867 -28 638 -28 c 0
 528 -28 428 6 340 74 c 1
 248 150 200 240 200 348 c 0
 200 526 282 616 448 616 c 0
 450 616 452 616 454 616 c 1
 454 1052 l 1
 774 1052 l 1
 698 1120 662 1200 662 1300 c 0
856 616 m 1
 856 886 l 1
 620 886 l 1
 620 616 l 1
 856 616 l 1
364 346 m 0
 364 226 512 128 638 128 c 0
 778 128 850 188 858 312 c 1
 856 314 l 1
 856 446 l 1
 500 446 l 2
 408 446 364 414 364 346 c 0
EndSplineSet
EndChar

StartChar: ta_ji
Encoding: 65608 -1 144
Width: 2034
GlyphClass: 3
Flags: HMW
LayerCount: 2
Fore
SplineSet
1118 1300 m 0
 1118 1552 1320 1700 1580 1700 c 0
 1704 1700 1810 1658 1900 1576 c 0
 1990 1494 2034 1394 2034 1272 c 2
 2034 0 l 1
 1866 0 l 1
 1866 1260 l 2
 1866 1334 1838 1394 1780 1444 c 0
 1722 1494 1656 1520 1580 1520 c 0
 1415 1520 1286 1448 1286 1292 c 0
 1286 1182 1332 1106 1424 1064 c 1
 1450 1054 1488 1036 1540 1010 c 1
 1680 926 1750 800 1750 634 c 0
 1750 498 1710 384 1628 292 c 1
 1544 194 1436 146 1304 146 c 2
 652 146 l 2
 496 146 366 19 366 -136 c 0
 366 -292 489 -416 646 -416 c 0
 744 -416 826 -368 894 -276 c 1
 986 -146 984 -146 1076 -16 c 1
 1164 76 1280 122 1426 122 c 0
 1516 122 1592 88 1656 20 c 0
 1720 -48 1750 -128 1750 -220 c 0
 1750 -312 1722 -396 1666 -466 c 0
 1606 -542 1534 -578 1442 -578 c 0
 1270 -578 1108 -463 1108 -296 c 1
 1278 -296 l 1
 1278 -369 1353 -418 1426 -418 c 0
 1523 -418 1588 -326 1588 -228 c 0
 1588 -141 1513 -38 1426 -38 c 0
 1312 -38 1220 -86 1148 -178 c 1
 1088 -264 1030 -352 970 -440 c 1
 890 -532 782 -578 646 -578 c 0
 522 -578 420 -534 332 -446 c 0
 244 -358 200 -254 200 -130 c 0
 200 -8 244 96 332 182 c 0
 420 268 522 312 644 312 c 2
 1258 312 l 2
 1443 312 1582 443 1582 628 c 0
 1582 781 1489 908 1336 908 c 0
 1182 908 1106 836 1106 694 c 2
 1106 398 l 1
 926 398 l 1
 926 694 l 2
 926 840 834 912 652 912 c 0
 554 912 478 884 426 824 c 1
 454 842 486 850 520 850 c 0
 647 850 760 746 760 620 c 0
 760 467 641 368 488 368 c 0
 320 368 206 500 206 668 c 0
 206 788 250 886 340 962 c 1
 424 1036 528 1072 652 1072 c 0
 812 1072 928 1030 1004 946 c 1
 1056 1012 1124 1052 1210 1066 c 1
 1148 1130 1118 1208 1118 1300 c 0
484 520 m 0
 542 520 586 563 586 622 c 0
 586 679 534 724 478 724 c 0
 418 724 376 682 376 622 c 0
 376 563 425 520 484 520 c 0
EndSplineSet
EndChar

StartChar: ta_nhi
Encoding: 65609 -1 145
Width: 2516
GlyphClass: 3
Flags: HMW
LayerCount: 2
Fore
SplineSet
1596 1300 m 0
 1596 1554 1799 1700 2062 1700 c 0
 2186 1700 2292 1658 2382 1576 c 0
 2472 1494 2516 1394 2516 1272 c 2
 2516 0 l 1
 2348 0 l 1
 2348 1260 l 2
 2348 1334 2320 1394 2262 1444 c 0
 2204 1494 2138 1520 2062 1520 c 0
 1864 1520 1764 1444 1764 1292 c 0
 1764 1180 1816 1100 1918 1054 c 1
 2124 1054 l 1
 2124 888 l 1
 1690 888 l 1
 1690 566 l 1
 1724 626 1778 656 1854 656 c 0
 2095 656 2240 435 2240 182 c 0
 2240 72 2216 -34 2166 -136 c 0
 2090 -294 1966 -414 1800 -494 c 1
 1656 -562 1488 -596 1292 -596 c 0
 982 -596 726 -506 522 -328 c 0
 308 -140 200 104 200 412 c 0
 200 714 280 938 436 1078 c 1
 550 968 l 1
 420 848 356 664 356 420 c 0
 356 158 448 -54 630 -216 c 0
 806 -372 1026 -448 1292 -448 c 0
 1640 -448 1876 -328 2002 -84 c 1
 2046 4 2070 92 2070 184 c 0
 2070 348 1987 488 1832 488 c 0
 1767 488 1690 446 1690 380 c 2
 1690 14 l 1
 1528 14 l 1
 1528 888 l 1
 1098 888 l 2
 870 888 706 717 706 488 c 0
 706 406 726 328 768 256 c 1
 764 276 764 294 764 314 c 0
 764 462 867 574 1014 574 c 0
 1181 574 1292 439 1292 272 c 0
 1292 96 1168 -26 992 -26 c 0
 854 -26 742 26 658 134 c 1
 582 234 544 354 544 494 c 0
 544 658 594 794 698 898 c 0
 802 1002 936 1054 1100 1054 c 2
 1708 1054 l 1
 1634 1118 1596 1200 1596 1300 c 0
1004 136 m 0
 1077 136 1128 205 1128 280 c 0
 1128 355 1078 422 1004 422 c 0
 928 422 876 355 876 280 c 0
 876 205 929 136 1004 136 c 0
EndSplineSet
EndChar

StartChar: ta_ti
Encoding: 65610 -1 146
Width: 1636
GlyphClass: 3
Flags: HMW
LayerCount: 2
Fore
SplineSet
1050 818 m 0
 1256 818 1400 650 1400 444 c 2
 1400 166 l 1
 1636 166 l 1
 1636 -2 l 1
 1400 -2 l 1
 1400 -538 l 1
 1232 -538 l 1
 1232 -2 l 1
 200 -2 l 1
 200 1056 l 1
 368 1056 l 1
 368 166 l 1
 818 166 l 1
 738 234 698 320 698 424 c 0
 698 642 832 818 1050 818 c 0
1232 456 m 2
 1232 557 1149 656 1048 656 c 0
 926 656 866 576 866 416 c 0
 866 296 926 212 1048 166 c 1
 1232 166 l 1
 1232 456 l 2
EndSplineSet
EndChar

StartChar: ta_nnni
Encoding: 65611 -1 147
Width: 3240
GlyphClass: 3
Flags: HMW
LayerCount: 2
Fore
SplineSet
2322 1300 m 0
 2322 1556 2524 1700 2788 1700 c 0
 2912 1700 3016 1658 3106 1576 c 0
 3196 1494 3240 1394 3240 1272 c 2
 3240 0 l 1
 3072 0 l 1
 3072 1260 l 2
 3072 1334 3044 1394 2986 1444 c 0
 2928 1494 2864 1520 2788 1520 c 0
 2590 1520 2490 1444 2490 1292 c 0
 2490 1182 2538 1102 2638 1056 c 1
 2968 1056 l 1
 2968 892 l 1
 2722 892 l 1
 2722 -2 l 1
 2548 -2 l 1
 2548 892 l 1
 2340 892 l 2
 2280 892 2236 878 2200 848 c 1
 2314 724 2370 574 2370 396 c 0
 2370 114 2274 -26 2080 -26 c 0
 1972 -26 1888 22 1832 122 c 1
 1788 204 1764 304 1764 422 c 0
 1764 598 1820 742 1930 854 c 1
 1866 898 1784 922 1684 922 c 0
 1576 922 1494 898 1440 848 c 1
 1556 724 1614 574 1614 396 c 0
 1614 114 1518 -26 1324 -26 c 0
 1216 -26 1132 24 1078 124 c 0
 1034 204 1012 304 1012 422 c 0
 1012 588 1064 732 1168 850 c 1
 1084 894 990 916 888 916 c 0
 748 916 628 878 528 800 c 0
 420 716 366 606 366 470 c 0
 366 386 382 316 414 264 c 1
 406 292 402 316 402 338 c 0
 402 475 509 574 646 574 c 0
 813 574 924 439 924 272 c 0
 924 95 799 -26 622 -26 c 0
 494 -26 390 22 312 120 c 1
 236 212 200 322 200 452 c 0
 200 835 496 1078 888 1078 c 0
 1036 1078 1172 1038 1290 960 c 1
 1406 1040 1532 1080 1668 1080 c 0
 1814 1080 1944 1040 2058 964 c 1
 2060 964 l 1
 2164 1044 2242 1056 2430 1056 c 1
 2358 1118 2322 1200 2322 1300 c 0
2190 408 m 0
 2190 556 2150 674 2068 760 c 1
 1980 684 1936 566 1936 408 c 0
 1936 236 1980 148 2068 148 c 0
 2150 148 2190 236 2190 408 c 0
1436 408 m 0
 1436 550 1392 668 1304 760 c 1
 1220 686 1176 570 1176 408 c 0
 1176 236 1222 148 1312 148 c 0
 1396 148 1436 236 1436 408 c 0
634 136 m 0
 710 136 760 204 760 280 c 0
 760 356 711 422 634 422 c 0
 558 422 510 355 510 280 c 0
 510 205 559 136 634 136 c 0
EndSplineSet
EndChar

StartChar: ta_thi
Encoding: 65612 -1 148
Width: 1746
GlyphClass: 3
Flags: HMW
LayerCount: 2
Fore
SplineSet
826 1300 m 0
 826 1554 1029 1700 1292 1700 c 0
 1416 1700 1522 1658 1612 1576 c 0
 1702 1494 1746 1394 1746 1272 c 2
 1746 0 l 1
 1578 0 l 1
 1578 1260 l 2
 1578 1334 1550 1394 1492 1444 c 0
 1434 1494 1368 1520 1292 1520 c 0
 1094 1520 994 1444 994 1292 c 0
 994 1180 1046 1100 1150 1052 c 1
 1354 1052 l 1
 1354 886 l 1
 1048 886 l 1
 1048 616 l 1
 1126 616 l 2
 1234 616 1326 576 1394 494 c 0
 1456 418 1486 322 1486 208 c 0
 1486 64 1436 -50 1336 -136 c 0
 1236 -222 1114 -264 966 -264 c 2
 472 -264 l 2
 414 -264 368 -307 368 -364 c 0
 368 -406 388 -434 424 -446 c 1
 314 -554 l 1
 238 -508 200 -440 200 -350 c 0
 200 -217 319 -110 452 -110 c 2
 970 -110 l 2
 1064 -110 1146 -80 1214 -16 c 0
 1282 48 1314 126 1314 218 c 0
 1314 354 1221 446 1084 446 c 2
 1048 446 l 1
 1048 320 l 2
 1048 91 896 -28 666 -28 c 0
 558 -28 458 6 370 76 c 0
 276 150 230 240 230 348 c 0
 230 526 312 616 478 616 c 0
 480 616 482 616 484 616 c 1
 484 1052 l 1
 938 1052 l 1
 864 1118 826 1200 826 1300 c 0
886 616 m 1
 886 886 l 1
 650 886 l 1
 650 616 l 1
 886 616 l 1
394 346 m 0
 394 225 540 128 666 128 c 0
 806 128 878 188 886 312 c 1
 886 357 886 401 886 446 c 1
 530 446 l 2
 440 446 394 414 394 346 c 0
EndSplineSet
EndChar

StartChar: ta_ni
Encoding: 65613 -1 149
Width: 1662
GlyphClass: 3
Flags: HMW
LayerCount: 2
Fore
SplineSet
744 1300 m 0
 744 1553 947 1700 1208 1700 c 0
 1332 1700 1438 1658 1528 1576 c 0
 1618 1494 1662 1394 1662 1272 c 2
 1662 0 l 1
 1494 0 l 1
 1494 1260 l 2
 1494 1334 1466 1394 1408 1444 c 0
 1350 1494 1284 1520 1208 1520 c 0
 1010 1520 912 1444 912 1292 c 0
 912 1186 958 1108 1052 1058 c 1
 1286 1058 l 1
 1286 886 l 1
 870 886 l 1
 870 572 l 1
 906 628 966 656 1046 656 c 0
 1158 656 1250 606 1322 508 c 0
 1388 418 1420 318 1420 202 c 0
 1420 62 1368 -54 1260 -142 c 0
 1160 -224 1038 -264 894 -264 c 2
 472 -264 l 2
 412 -264 366 -306 366 -364 c 0
 366 -406 386 -434 424 -446 c 1
 312 -554 l 1
 238 -508 200 -440 200 -350 c 0
 200 -217 319 -110 452 -110 c 2
 900 -110 l 2
 988 -110 1066 -78 1138 -16 c 0
 1210 46 1244 120 1244 208 c 0
 1244 358 1156 488 1016 488 c 0
 946 488 870 446 870 380 c 2
 870 8 l 1
 708 8 l 1
 708 886 l 1
 456 886 l 1
 456 8 l 1
 282 8 l 1
 282 1058 l 1
 846 1058 l 1
 778 1122 744 1202 744 1300 c 0
EndSplineSet
EndChar

StartChar: ta_nni
Encoding: 65614 -1 150
Width: 2470
GlyphClass: 3
Flags: HMW
LayerCount: 2
Fore
SplineSet
1550 1300 m 0
 1550 1548 1759 1700 2016 1700 c 0
 2140 1700 2246 1658 2336 1576 c 0
 2426 1494 2470 1394 2470 1272 c 2
 2470 0 l 1
 2302 0 l 1
 2302 1260 l 2
 2302 1334 2274 1394 2216 1444 c 0
 2158 1494 2092 1520 2016 1520 c 0
 1852 1520 1718 1446 1718 1292 c 0
 1718 1180 1770 1100 1872 1054 c 1
 2172 1054 l 1
 2172 892 l 1
 1964 892 l 1
 1964 8 l 1
 1790 8 l 1
 1790 892 l 1
 1584 892 l 2
 1528 892 1484 878 1452 848 c 1
 1566 724 1622 572 1622 396 c 0
 1622 166 1535 -26 1322 -26 c 0
 1212 -26 1130 24 1076 124 c 0
 1032 204 1008 304 1008 422 c 0
 1008 588 1060 732 1166 850 c 1
 1080 894 986 916 886 916 c 0
 746 916 626 878 526 800 c 0
 418 716 366 606 366 470 c 0
 366 386 382 318 414 264 c 1
 404 298 398 322 398 338 c 0
 398 474 508 574 644 574 c 0
 811 574 922 439 922 272 c 0
 922 96 798 -26 622 -26 c 0
 494 -26 390 22 310 120 c 0
 236 210 200 320 200 452 c 0
 200 646 266 798 398 914 c 1
 524 1022 688 1078 886 1078 c 0
 1034 1078 1168 1038 1286 962 c 1
 1348 1006 1410 1032 1470 1044 c 0
 1502 1050 1566 1054 1662 1054 c 1
 1588 1118 1550 1200 1550 1300 c 0
1446 408 m 0
 1446 548 1402 664 1314 756 c 1
 1222 678 1176 562 1176 408 c 0
 1176 236 1220 148 1308 148 c 0
 1400 148 1446 236 1446 408 c 0
634 136 m 0
 707 136 758 205 758 280 c 0
 758 355 708 422 634 422 c 0
 558 422 506 355 506 280 c 0
 506 205 559 136 634 136 c 0
EndSplineSet
EndChar

StartChar: ta_pi
Encoding: 65615 -1 151
Width: 1676
GlyphClass: 3
Flags: HMW
LayerCount: 2
Fore
SplineSet
1214 1520 m 0
 1016 1520 898 1367 898 1168 c 0
 898 1088 930 1014 990 946 c 0
 1050 878 1122 844 1202 844 c 1
 1202 1056 l 1
 1370 1056 l 1
 1370 -2 l 1
 200 -2 l 1
 200 1056 l 1
 368 1056 l 1
 368 166 l 1
 1202 166 l 1
 1202 676 l 1
 1072 676 960 728 868 830 c 0
 776 932 730 1048 730 1178 c 0
 730 1328 774 1454 860 1550 c 0
 946 1646 1062 1694 1210 1694 c 0
 1340 1694 1450 1654 1540 1574 c 0
 1630 1494 1676 1390 1676 1262 c 2
 1676 -12 l 1
 1510 -12 l 1
 1510 1224 l 2
 1510 1393 1383 1520 1214 1520 c 0
EndSplineSet
EndChar

StartChar: ta_mi
Encoding: 65616 -1 152
Width: 1948
GlyphClass: 3
Flags: HMW
LayerCount: 2
Fore
SplineSet
1032 1300 m 0
 1032 1552 1234 1700 1494 1700 c 0
 1618 1700 1724 1658 1814 1576 c 0
 1904 1494 1948 1394 1948 1272 c 2
 1948 0 l 1
 1780 0 l 1
 1780 1260 l 2
 1780 1334 1752 1394 1694 1444 c 0
 1636 1494 1570 1520 1494 1520 c 0
 1296 1520 1196 1438 1196 1276 c 0
 1196 1164 1230 1086 1298 1042 c 0
 1302 1040 1310 1036 1322 1030 c 0
 1424 978 1506 894 1566 782 c 0
 1626 670 1656 552 1656 434 c 0
 1656 175 1499 0 1240 0 c 2
 200 0 l 1
 200 1052 l 1
 374 1052 l 1
 374 172 l 1
 796 172 l 1
 796 760 l 2
 796 930 923 1069 1084 1080 c 1
 1048 1138 1032 1210 1032 1300 c 0
1122 912 m 0
 1044 912 980 846 980 768 c 2
 980 172 l 1
 1276 172 l 2
 1400 172 1460 256 1460 420 c 0
 1460 528 1432 634 1374 734 c 0
 1306 852 1222 912 1122 912 c 0
EndSplineSet
EndChar

StartChar: ta_yi
Encoding: 65617 -1 153
Width: 1840
GlyphClass: 3
Flags: HMW
LayerCount: 2
Fore
SplineSet
508 142 m 0
 590 142 646 226 646 308 c 2
 646 1054 l 1
 820 1054 l 1
 820 144 l 1
 1364 144 l 1
 1364 680 l 1
 1234 680 1122 730 1030 830 c 0
 938 930 892 1046 892 1178 c 0
 892 1328 936 1454 1022 1550 c 0
 1108 1646 1226 1694 1374 1694 c 0
 1502 1694 1610 1654 1702 1574 c 0
 1794 1494 1840 1390 1840 1262 c 2
 1840 -12 l 1
 1674 -12 l 1
 1674 1224 l 2
 1674 1393 1543 1520 1374 1520 c 0
 1177 1520 1060 1366 1060 1168 c 0
 1060 1011 1207 850 1364 850 c 1
 1364 1054 l 1
 1528 1054 l 1
 1528 -8 l 1
 670 -8 l 1
 670 84 l 1
 632 12 580 -24 512 -24 c 0
 304 -24 200 76 200 272 c 2
 200 1054 l 1
 376 1054 l 1
 376 296 l 2
 376 216 428 142 508 142 c 0
EndSplineSet
EndChar

StartChar: ta_ri
Encoding: 65618 -1 154
Width: 1470
GlyphClass: 3
Flags: HMW
LayerCount: 2
Fore
SplineSet
550 1300 m 0
 550 1552 754 1700 1016 1700 c 0
 1140 1700 1246 1658 1336 1576 c 0
 1426 1494 1470 1394 1470 1272 c 2
 1470 0 l 1
 1302 0 l 1
 1302 1260 l 2
 1302 1334 1274 1394 1216 1444 c 0
 1158 1494 1092 1520 1016 1520 c 0
 856 1520 718 1444 718 1292 c 0
 718 1184 766 1106 862 1058 c 1
 1238 1058 l 1
 1238 892 l 1
 908 892 l 1
 908 -2 l 1
 690 -70 542 -210 462 -424 c 1
 318 -326 l 1
 402 -122 544 20 740 104 c 1
 740 892 l 1
 370 892 l 1
 370 2 l 1
 200 2 l 1
 200 1058 l 1
 654 1058 l 1
 586 1120 550 1200 550 1300 c 0
EndSplineSet
EndChar

StartChar: ta_rri
Encoding: 65619 -1 155
Width: 1796
GlyphClass: 3
Flags: HMW
LayerCount: 2
Fore
SplineSet
880 1300 m 0
 880 1552 1082 1700 1342 1700 c 0
 1466 1700 1572 1658 1662 1576 c 0
 1752 1494 1796 1394 1796 1272 c 2
 1796 0 l 1
 1628 0 l 1
 1628 1260 l 2
 1628 1334 1600 1394 1542 1444 c 0
 1484 1494 1418 1520 1342 1520 c 0
 1177 1520 1048 1448 1048 1292 c 0
 1048 1186 1092 1110 1184 1064 c 1
 1210 1054 1246 1034 1294 1006 c 1
 1426 898 1494 710 1494 442 c 0
 1494 250 1450 90 1360 -40 c 1
 1256 -188 1112 -264 930 -264 c 2
 472 -264 l 2
 414 -264 368 -307 368 -364 c 0
 368 -406 388 -434 426 -446 c 1
 312 -556 l 1
 236 -510 200 -442 200 -350 c 0
 200 -216 318 -108 452 -108 c 2
 934 -108 l 2
 1066 -108 1168 -44 1240 82 c 0
 1300 188 1328 312 1328 454 c 0
 1328 676 1257 912 1062 912 c 0
 978 912 910 844 910 760 c 2
 910 -2 l 1
 730 -2 l 1
 730 760 l 2
 730 839 673 912 594 912 c 0
 519 912 464 834 464 760 c 2
 464 -2 l 1
 284 -2 l 1
 284 772 l 2
 284 941 429 1082 598 1082 c 0
 688 1082 762 1048 822 980 c 1
 860 1024 910 1054 970 1070 c 1
 910 1132 880 1208 880 1300 c 0
EndSplineSet
EndChar

StartChar: ta_li
Encoding: 65620 -1 156
Width: 2148
GlyphClass: 3
Flags: HMW
LayerCount: 2
Fore
SplineSet
1244 1300 m 0
 1244 1552 1446 1700 1706 1700 c 0
 1830 1700 1934 1658 2020 1576 c 0
 2106 1494 2148 1394 2148 1272 c 2
 2148 0 l 1
 1980 0 l 1
 1980 1260 l 2
 1980 1407 1853 1520 1706 1520 c 0
 1510 1520 1412 1444 1412 1292 c 0
 1412 1210 1446 1136 1514 1070 c 0
 1636 954 1700 890 1708 878 c 0
 1776 784 1812 662 1812 514 c 0
 1812 213 1681 -26 1400 -26 c 0
 1194 -26 1058 129 1058 336 c 2
 1058 688 l 2
 1058 834 942 916 790 916 c 0
 547 916 360 734 360 492 c 0
 360 398 384 318 430 254 c 1
 424 276 420 296 420 314 c 0
 420 462 523 574 670 574 c 0
 837 574 948 439 948 272 c 0
 948 96 824 -26 648 -26 c 0
 510 -26 398 26 314 134 c 1
 238 234 200 354 200 494 c 0
 200 666 254 806 366 916 c 0
 478 1026 618 1080 790 1080 c 0
 908 1080 1008 1048 1088 988 c 1
 1180 922 1224 834 1224 720 c 2
 1224 360 l 2
 1224 202 1280 122 1392 122 c 0
 1478 122 1544 168 1588 260 c 1
 1624 332 1642 416 1642 512 c 0
 1642 636 1606 736 1538 820 c 1
 1474 884 1410 948 1346 1010 c 1
 1278 1088 1244 1184 1244 1300 c 0
660 136 m 0
 733 136 784 205 784 280 c 0
 784 355 734 422 660 422 c 0
 584 422 532 355 532 280 c 0
 532 205 585 136 660 136 c 0
EndSplineSet
EndChar

StartChar: ta_lli
Encoding: 65621 -1 157
Width: 2294
GlyphClass: 3
Flags: HMW
LayerCount: 2
Fore
SplineSet
1374 1300 m 0
 1374 1550 1581 1700 1840 1700 c 0
 1964 1700 2068 1658 2158 1576 c 0
 2248 1494 2294 1394 2294 1272 c 2
 2294 0 l 1
 2126 0 l 1
 2126 1260 l 2
 2126 1405 1985 1520 1840 1520 c 0
 1642 1520 1542 1444 1542 1292 c 0
 1542 1178 1594 1098 1702 1052 c 1
 2036 1052 l 1
 2036 892 l 1
 1748 892 l 1
 1748 2 l 1
 1578 2 l 1
 1578 892 l 1
 1250 892 l 1
 1250 2 l 1
 1084 2 l 1
 1084 638 l 2
 1084 805 923 914 750 914 c 0
 634 914 540 872 466 786 c 0
 392 700 356 598 356 482 c 0
 356 390 384 310 436 244 c 1
 426 280 422 304 422 314 c 0
 422 463 522 574 670 574 c 0
 836 574 950 438 950 272 c 0
 950 96 826 -26 650 -26 c 0
 510 -26 398 28 314 136 c 1
 238 236 200 360 200 504 c 0
 200 668 248 802 342 910 c 0
 440 1024 568 1080 730 1080 c 0
 900 1080 1018 1020 1084 898 c 1
 1084 1052 l 1
 1486 1052 l 1
 1410 1116 1374 1198 1374 1300 c 0
662 136 m 0
 735 136 786 205 786 280 c 0
 786 355 736 422 662 422 c 0
 583 422 534 360 534 280 c 0
 534 203 586 136 662 136 c 0
EndSplineSet
EndChar

StartChar: ta_zhi
Encoding: 65622 -1 158
Width: 1976
GlyphClass: 2
Flags: HMW
LayerCount: 2
Fore
SplineSet
1060 1300 m 0
 1060 1552 1262 1700 1522 1700 c 0
 1646 1700 1752 1658 1842 1576 c 0
 1932 1494 1976 1394 1976 1272 c 2
 1976 0 l 1
 1808 0 l 1
 1808 1260 l 2
 1808 1334 1780 1394 1722 1444 c 0
 1664 1494 1598 1520 1522 1520 c 0
 1324 1520 1224 1438 1224 1276 c 0
 1224 1164 1258 1086 1326 1042 c 0
 1330 1040 1338 1036 1350 1030 c 0
 1452 978 1534 894 1594 778 c 1
 1654 668 1684 552 1684 434 c 0
 1684 175 1527 0 1268 0 c 2
 1012 0 l 1
 1012 -26 l 2
 1012 -94 1062 -128 1164 -128 c 2
 1414 -128 l 1
 1414 -310 l 1
 1232 -310 l 2
 1180 -310 1126 -342 1066 -408 c 1
 974 -512 918 -572 894 -592 c 0
 810 -658 710 -692 594 -692 c 0
 496 -692 408 -664 332 -612 c 0
 244 -552 200 -476 200 -384 c 0
 200 -218 320 -104 486 -104 c 2
 688 -104 l 1
 688 -268 l 1
 478 -268 l 2
 408 -268 372 -302 372 -368 c 0
 372 -471 487 -530 598 -530 c 0
 666 -530 722 -514 768 -478 c 0
 794 -458 832 -418 880 -358 c 0
 924 -302 966 -262 1004 -236 c 1
 886 -224 826 -144 826 0 c 1
 228 0 l 1
 228 1052 l 1
 402 1052 l 1
 402 172 l 1
 824 172 l 1
 824 760 l 2
 824 927 953 1069 1112 1080 c 1
 1076 1138 1060 1210 1060 1300 c 0
1150 912 m 0
 1072 912 1008 846 1008 768 c 2
 1008 172 l 1
 1304 172 l 2
 1428 172 1488 256 1488 420 c 0
 1488 528 1460 634 1402 734 c 0
 1334 852 1250 912 1150 912 c 0
EndSplineSet
EndChar

StartChar: ta_vi
Encoding: 65623 -1 159
Width: 2274
GlyphClass: 3
Flags: HMW
LayerCount: 2
Fore
SplineSet
952 272 m 0
 952 96 828 -26 652 -26 c 0
 516 -26 404 28 320 136 c 1
 240 236 200 356 200 496 c 0
 200 668 254 808 366 916 c 0
 478 1024 620 1078 792 1078 c 0
 964 1078 1110 1024 1224 914 c 0
 1338 804 1396 662 1396 490 c 0
 1396 374 1360 264 1288 160 c 1
 1796 160 l 1
 1796 680 l 1
 1668 680 1556 730 1464 832 c 0
 1372 934 1326 1048 1326 1178 c 0
 1326 1328 1370 1454 1456 1550 c 0
 1542 1646 1660 1694 1808 1694 c 0
 1936 1694 2044 1654 2136 1574 c 0
 2228 1494 2274 1390 2274 1262 c 2
 2274 0 l 1
 2108 0 l 1
 2108 1224 l 2
 2108 1393 1977 1520 1808 1520 c 0
 1611 1520 1494 1366 1494 1168 c 0
 1494 1088 1524 1014 1584 946 c 0
 1644 878 1716 844 1796 844 c 1
 1796 1052 l 1
 1962 1052 l 1
 1962 -2 l 1
 1072 -2 l 1
 1062 110 l 1
 1172 206 1228 326 1228 472 c 0
 1228 725 1043 916 790 916 c 0
 670 916 568 876 486 794 c 0
 404 712 364 610 364 490 c 0
 364 408 384 330 428 256 c 1
 424 276 424 294 424 314 c 0
 424 463 524 574 672 574 c 0
 841 574 952 440 952 272 c 0
664 136 m 0
 737 136 788 204 788 280 c 0
 788 358 742 422 664 422 c 0
 583 422 536 360 536 280 c 0
 536 202 588 136 664 136 c 0
EndSplineSet
EndChar

StartChar: ta_shi
Encoding: 65624 -1 160
Width: 2764
GlyphClass: 3
Flags: HMW
LayerCount: 2
Fore
SplineSet
804 1078 m 0
 1135 1078 1368 833 1368 502 c 0
 1368 384 1334 272 1264 166 c 1
 1366 168 1446 168 1506 168 c 0
 1578 168 1576 168 1716 168 c 1
 1812 166 1884 166 1928 166 c 1
 1928 288 l 1
 1794 288 1678 324 1584 394 c 1
 1482 472 1432 576 1432 706 c 0
 1432 874 1518 978 1690 1018 c 1
 1642 1070 1618 1150 1618 1262 c 0
 1618 1402 1676 1514 1792 1594 c 0
 1894 1664 2018 1700 2164 1700 c 0
 2346 1700 2492 1638 2600 1514 c 0
 2708 1390 2764 1238 2764 1054 c 2
 2764 0 l 1
 2596 0 l 1
 2596 1030 l 2
 2596 1303 2417 1522 2154 1522 c 0
 1964 1522 1794 1431 1794 1252 c 0
 1794 1140 1830 1062 1902 1016 c 1
 1916 1012 1936 1000 1962 988 c 1
 2054 934 2100 856 2100 754 c 2
 2100 464 l 1
 2216 486 2334 567 2334 694 c 1
 2470 694 l 1
 2470 -2 l 1
 2100 -2 l 1
 2100 -532 l 1
 1928 -532 l 1
 1928 -2 l 1
 1926 -2 1926 -2 1048 -2 c 1
 1036 116 l 1
 1148 212 1204 334 1204 484 c 0
 1204 740 1058 914 802 914 c 0
 680 914 578 874 492 792 c 0
 406 710 364 610 364 490 c 0
 364 408 384 330 428 256 c 1
 424 276 424 294 424 314 c 0
 424 463 524 574 672 574 c 0
 838 574 952 438 952 272 c 0
 952 96 828 -26 652 -26 c 0
 516 -26 404 28 320 136 c 1
 240 236 200 356 200 496 c 0
 200 664 260 804 378 914 c 1
 492 1022 632 1078 804 1078 c 0
2298 166 m 1
 2298 386 l 1
 2234 328 2168 296 2100 292 c 1
 2100 166 l 1
 2298 166 l 1
1928 742 m 2
 1928 822 1880 862 1782 862 c 0
 1660 862 1600 808 1600 700 c 0
 1600 620 1636 558 1708 514 c 1
 1768 474 1842 454 1928 454 c 1
 1928 742 l 2
664 136 m 0
 737 136 788 205 788 280 c 0
 788 355 738 422 664 422 c 0
 587 422 536 357 536 280 c 0
 536 203 588 136 664 136 c 0
EndSplineSet
EndChar

StartChar: ta_si
Encoding: 65625 -1 161
Width: 2620
GlyphClass: 3
Flags: HMW
LayerCount: 2
Fore
SplineSet
1716 1300 m 0
 1716 1552 1918 1700 2178 1700 c 0
 2302 1700 2406 1658 2492 1576 c 0
 2578 1494 2620 1394 2620 1272 c 2
 2620 0 l 1
 2452 0 l 1
 2452 1260 l 2
 2452 1407 2325 1520 2178 1520 c 0
 1982 1520 1884 1444 1884 1292 c 0
 1884 1210 1918 1136 1986 1070 c 0
 2108 954 2172 890 2180 878 c 0
 2248 784 2284 662 2284 514 c 0
 2284 366 2252 242 2190 146 c 1
 2118 30 2012 -26 1872 -26 c 0
 1671 -26 1526 135 1526 336 c 2
 1526 794 l 2
 1526 861 1459 920 1392 920 c 0
 1294 920 1244 870 1244 770 c 2
 1244 0 l 1
 1080 0 l 1
 1080 676 l 2
 1080 838 980 920 784 920 c 0
 668 920 568 878 486 794 c 0
 404 710 364 608 364 490 c 0
 364 408 384 330 428 256 c 1
 424 276 422 294 422 314 c 0
 422 463 525 574 674 574 c 0
 841 574 952 439 952 272 c 0
 952 95 828 -26 650 -26 c 0
 516 -26 404 28 318 136 c 1
 240 236 200 356 200 496 c 0
 200 656 256 794 366 908 c 0
 476 1022 610 1080 770 1080 c 0
 958 1080 1078 1028 1130 926 c 1
 1142 974 1174 1014 1230 1042 c 1
 1278 1068 1330 1080 1386 1080 c 0
 1542 1080 1694 979 1694 830 c 2
 1694 336 l 2
 1694 216 1750 122 1864 122 c 0
 2040 122 2114 315 2114 512 c 0
 2114 636 2078 736 2010 820 c 1
 1946 884 1882 948 1818 1010 c 1
 1750 1088 1716 1184 1716 1300 c 0
662 136 m 0
 737 136 786 200 786 280 c 0
 786 358 740 422 662 422 c 0
 583 422 536 359 536 280 c 0
 536 201 588 136 662 136 c 0
EndSplineSet
EndChar

StartChar: ta_hi
Encoding: 65626 -1 162
Width: 3116
GlyphClass: 3
Flags: HMW
LayerCount: 2
Fore
SplineSet
2200 1300 m 0
 2200 1552 2402 1700 2662 1700 c 0
 2786 1700 2892 1658 2982 1576 c 0
 3072 1494 3116 1394 3116 1272 c 2
 3116 0 l 1
 2948 0 l 1
 2948 1260 l 2
 2948 1334 2920 1394 2862 1444 c 0
 2804 1494 2738 1520 2662 1520 c 0
 2497 1520 2368 1448 2368 1292 c 0
 2368 1190 2433 1100 2504 1064 c 1
 2530 1054 2570 1032 2622 998 c 1
 2750 890 2814 706 2814 442 c 0
 2814 250 2770 90 2680 -40 c 1
 2576 -188 2432 -264 2250 -264 c 2
 472 -264 l 2
 414 -264 368 -307 368 -364 c 0
 368 -406 388 -434 426 -446 c 1
 312 -556 l 1
 236 -510 200 -442 200 -350 c 0
 200 -216 318 -108 452 -108 c 2
 2254 -108 l 2
 2386 -108 2488 -44 2560 82 c 0
 2620 188 2648 312 2648 454 c 0
 2648 676 2577 912 2382 912 c 0
 2298 912 2230 844 2230 760 c 2
 2230 -2 l 1
 2050 -2 l 1
 2050 760 l 2
 2050 839 1993 912 1914 912 c 0
 1839 912 1784 834 1784 760 c 2
 1784 -2 l 1
 1072 -2 l 1
 1060 116 l 1
 1172 210 1228 332 1228 484 c 0
 1228 744 1082 914 826 914 c 0
 704 914 602 874 516 794 c 0
 430 714 388 612 388 490 c 0
 388 408 408 330 452 256 c 1
 448 276 448 294 448 314 c 0
 448 463 548 574 696 574 c 0
 865 574 976 440 976 272 c 0
 976 96 852 -26 676 -26 c 0
 540 -26 428 28 344 136 c 1
 264 236 224 356 224 496 c 0
 224 666 282 806 398 914 c 0
 514 1022 656 1078 828 1078 c 0
 1159 1078 1392 833 1392 502 c 0
 1392 384 1358 272 1288 166 c 1
 1336 167 1386 168 1438 168 c 0
 1490 168 1546 167 1604 166 c 1
 1604 772 l 2
 1604 941 1749 1082 1918 1082 c 0
 2008 1082 2082 1048 2142 980 c 1
 2180 1024 2230 1054 2290 1070 c 1
 2230 1132 2200 1208 2200 1300 c 0
688 136 m 0
 761 136 812 204 812 280 c 0
 812 358 766 422 688 422 c 0
 607 422 560 360 560 280 c 0
 560 202 612 136 688 136 c 0
EndSplineSet
LCarets2: 1 0
EndChar

StartChar: ta_kshi
Encoding: 65627 -1 163
Width: 3428
GlyphClass: 3
Flags: HMW
LayerCount: 2
Fore
SplineSet
1574 800 m 0
 1801 800 1994 609 1994 382 c 0
 1994 304 1972 232 1928 166 c 1
 2001 168 2093 169 2203 169 c 0
 2313 169 2443 168 2592 166 c 1
 2592 288 l 1
 2458 288 2342 324 2248 394 c 1
 2146 472 2096 576 2096 706 c 0
 2096 874 2182 978 2354 1018 c 1
 2306 1070 2282 1150 2282 1262 c 0
 2282 1402 2340 1514 2456 1594 c 0
 2558 1664 2682 1700 2828 1700 c 0
 3010 1700 3156 1638 3264 1514 c 0
 3372 1390 3428 1238 3428 1054 c 2
 3428 -2 l 1
 3260 -2 l 1
 3260 1030 l 2
 3260 1303 3081 1522 2818 1522 c 0
 2628 1522 2458 1431 2458 1252 c 0
 2458 1138 2494 1060 2566 1016 c 1
 2580 1012 2600 1000 2626 988 c 1
 2718 936 2764 858 2764 754 c 2
 2764 464 l 1
 2880 486 2998 567 2998 694 c 1
 3134 694 l 1
 3134 -2 l 1
 2764 -2 l 1
 2764 -532 l 1
 2592 -532 l 1
 2592 -2 l 1
 1700 -2 l 1
 1690 116 l 1
 1784 196 1832 282 1832 376 c 0
 1832 519 1717 634 1574 634 c 0
 1496 634 1444 614 1416 578 c 1
 1482 568 1540 528 1592 458 c 1
 1638 390 1660 322 1660 254 c 0
 1660 182 1642 118 1606 64 c 1
 1562 4 1506 -26 1436 -26 c 0
 1257 -26 1136 137 1132 320 c 1
 1132 360 l 2
 1132 390 1136 418 1144 446 c 1
 1032 446 l 1
 1032 320 l 2
 1032 90 879 -28 648 -28 c 0
 540 -28 440 6 348 74 c 1
 248 150 200 240 200 348 c 0
 200 526 286 616 462 616 c 0
 464 616 466 616 468 616 c 1
 468 1052 l 1
 1340 1052 l 1
 1340 886 l 1
 1032 886 l 1
 1032 616 l 1
 1214 616 l 1
 1290 738 1410 800 1574 800 c 0
2962 166 m 1
 2962 386 l 1
 2898 328 2832 296 2764 292 c 1
 2764 166 l 1
 2962 166 l 1
2592 742 m 2
 2592 822 2544 862 2446 862 c 0
 2324 862 2264 808 2264 700 c 0
 2264 620 2300 558 2372 514 c 1
 2432 474 2506 454 2592 454 c 1
 2592 742 l 2
1508 250 m 0
 1508 313 1485 351 1436 392 c 0
 1398 424 1364 440 1330 440 c 0
 1324 440 1316 438 1312 436 c 1
 1300 408 1294 374 1294 336 c 0
 1294 259 1303 218 1342 166 c 0
 1366 134 1392 118 1420 118 c 0
 1478 118 1508 162 1508 250 c 0
868 616 m 1
 868 886 l 1
 634 886 l 1
 634 616 l 1
 868 616 l 1
512 446 m 2
 440 446 364 411 364 346 c 0
 364 284 398 232 464 188 c 0
 524 148 584 128 648 128 c 0
 788 128 862 188 868 312 c 1
 868 357 868 401 868 446 c 1
 512 446 l 2
EndSplineSet
EndChar

StartChar: ta_kee
Encoding: 65628 -1 164
Width: 1454
GlyphClass: 3
Flags: HMW
LayerCount: 2
Fore
SplineSet
802 1308 m 0
 802 1195 872 1088 954 1052 c 1
 1374 1052 l 1
 1374 886 l 1
 1030 886 l 1
 1030 616 l 1
 1170 616 l 2
 1262 616 1334 586 1386 524 c 1
 1430 466 1454 388 1454 292 c 0
 1454 78 1362 -28 1182 -28 c 0
 1126 -28 1074 -18 1030 2 c 1
 1094 144 l 1
 1122 128 1146 120 1174 120 c 0
 1250 120 1290 176 1290 286 c 0
 1290 394 1246 446 1158 446 c 2
 1030 446 l 1
 1030 320 l 2
 1030 92 879 -28 650 -28 c 0
 540 -28 438 6 346 74 c 1
 248 150 200 240 200 348 c 0
 200 526 286 616 460 616 c 0
 462 616 464 616 466 616 c 1
 466 1052 l 1
 742 1052 l 1
 670 1116 634 1204 634 1318 c 0
 634 1450 680 1556 772 1634 c 0
 864 1712 976 1752 1110 1752 c 0
 1303 1752 1450 1632 1450 1444 c 0
 1450 1281 1346 1154 1184 1154 c 0
 1030 1154 916 1269 916 1424 c 0
 916 1466 924 1504 940 1540 c 1
 848 1490 802 1414 802 1308 c 0
1168 1304 m 0
 1233 1304 1278 1372 1278 1436 c 0
 1278 1500 1232 1570 1168 1570 c 0
 1101 1570 1058 1502 1058 1436 c 0
 1058 1369 1100 1304 1168 1304 c 0
870 616 m 1
 870 886 l 1
 632 886 l 1
 632 616 l 1
 870 616 l 1
870 312 m 1
 870 357 870 401 870 446 c 1
 512 446 l 2
 414 446 366 414 366 346 c 0
 366 284 398 232 464 188 c 1
 522 148 584 128 650 128 c 0
 790 128 862 188 870 312 c 1
EndSplineSet
EndChar

StartChar: ta_ngee
Encoding: 65629 -1 165
Width: 2068
GlyphClass: 3
Flags: HMW
LayerCount: 2
Fore
SplineSet
1220 1238 m 0
 1220 1533 1415 1752 1710 1752 c 0
 1810 1752 1894 1724 1964 1668 c 0
 2034 1612 2068 1536 2068 1438 c 0
 2068 1358 2042 1290 1992 1234 c 0
 1942 1178 1876 1152 1798 1152 c 0
 1648 1152 1532 1271 1532 1420 c 0
 1532 1460 1540 1500 1554 1538 c 1
 1438 1472 1378 1372 1378 1238 c 0
 1378 1031 1537 844 1743 844 c 0
 1745 844 1748 844 1750 844 c 1
 1772 848 l 1
 1772 1048 l 1
 1942 1048 l 1
 1942 0 l 1
 626 0 l 1
 626 154 l 1
 910 154 l 2
 1006 154 1090 240 1090 336 c 0
 1090 422 1024 494 938 494 c 0
 866 494 790 441 790 368 c 2
 790 250 l 1
 626 250 l 1
 626 878 l 1
 368 878 l 1
 368 0 l 1
 200 0 l 1
 200 1052 l 1
 1170 1052 l 1
 1170 878 l 1
 790 878 l 1
 790 580 l 1
 836 632 896 660 968 660 c 0
 1144 660 1270 533 1270 356 c 0
 1270 278 1242 210 1184 154 c 1
 1772 154 l 1
 1772 676 l 1
 1769 676 1767 676 1764 676 c 0
 1443 676 1220 918 1220 1238 c 0
1782 1300 m 0
 1847 1300 1892 1367 1892 1432 c 0
 1892 1499 1849 1568 1782 1568 c 0
 1715 1568 1672 1499 1672 1432 c 0
 1672 1367 1717 1300 1782 1300 c 0
EndSplineSet
EndChar

StartChar: ta_chee
Encoding: 65630 -1 166
Width: 1396
GlyphClass: 3
Flags: HMW
LayerCount: 2
Fore
SplineSet
746 1310 m 0
 746 1199 831 1090 908 1052 c 1
 1374 1052 l 1
 1374 886 l 1
 1018 886 l 1
 1018 616 l 1
 1396 616 l 1
 1396 446 l 1
 1018 446 l 1
 1018 282 998 168 954 100 c 1
 896 14 792 -28 638 -28 c 0
 528 -28 428 6 340 74 c 1
 248 150 200 240 200 348 c 0
 200 526 280 616 443 616 c 0
 447 616 450 616 454 616 c 1
 454 1052 l 1
 702 1052 l 1
 618 1126 578 1214 578 1320 c 0
 578 1452 624 1558 718 1640 c 0
 806 1716 918 1752 1052 1752 c 0
 1243 1752 1394 1638 1394 1448 c 0
 1394 1282 1291 1154 1126 1154 c 0
 975 1154 860 1273 860 1424 c 0
 860 1468 868 1508 882 1544 c 1
 790 1492 746 1414 746 1310 c 0
1110 1304 m 0
 1176 1304 1220 1372 1220 1438 c 0
 1220 1502 1175 1570 1110 1570 c 0
 1045 1570 1000 1502 1000 1438 c 0
 1000 1372 1044 1304 1110 1304 c 0
856 616 m 1
 856 886 l 1
 620 886 l 1
 620 616 l 1
 856 616 l 1
364 346 m 0
 364 226 510 128 638 128 c 0
 778 128 850 188 858 312 c 1
 856 314 l 1
 856 446 l 1
 500 446 l 2
 408 446 364 414 364 346 c 0
EndSplineSet
EndChar

StartChar: ta_jee
Encoding: 65631 -1 167
Width: 1910
GlyphClass: 3
Flags: HMW
LayerCount: 2
Fore
SplineSet
1568 1752 m 0
 1762 1752 1910 1631 1910 1444 c 0
 1910 1277 1804 1154 1642 1154 c 0
 1489 1154 1376 1270 1376 1424 c 0
 1376 1466 1384 1504 1398 1540 c 1
 1306 1490 1262 1414 1262 1308 c 0
 1262 1214 1312 1134 1412 1066 c 1
 1512 1046 1596 994 1658 912 c 0
 1720 830 1750 738 1750 634 c 0
 1750 362 1571 146 1304 146 c 2
 652 146 l 2
 496 146 366 19 366 -136 c 0
 366 -290 492 -416 646 -416 c 0
 744 -416 826 -368 894 -276 c 1
 986 -146 984 -146 1076 -16 c 1
 1164 76 1280 122 1426 122 c 0
 1516 122 1592 88 1656 20 c 0
 1720 -48 1750 -128 1750 -220 c 0
 1750 -312 1722 -396 1666 -466 c 0
 1606 -542 1534 -578 1442 -578 c 0
 1270 -578 1108 -463 1108 -296 c 1
 1278 -296 l 1
 1278 -369 1353 -418 1426 -418 c 0
 1523 -418 1588 -326 1588 -228 c 0
 1588 -141 1513 -38 1426 -38 c 0
 1312 -38 1220 -86 1148 -178 c 1
 1088 -264 1030 -352 970 -440 c 1
 890 -532 782 -578 646 -578 c 0
 522 -578 420 -534 332 -446 c 0
 244 -358 200 -254 200 -130 c 0
 200 -8 244 96 332 182 c 0
 420 268 522 312 644 312 c 2
 1258 312 l 2
 1443 312 1582 443 1582 628 c 0
 1582 781 1489 908 1336 908 c 0
 1182 908 1106 836 1106 694 c 2
 1106 398 l 1
 926 398 l 1
 926 694 l 2
 926 840 834 912 652 912 c 0
 554 912 478 884 426 824 c 1
 454 842 486 850 520 850 c 0
 647 850 760 746 760 620 c 0
 760 467 641 368 488 368 c 0
 320 368 206 500 206 668 c 0
 206 788 250 886 340 962 c 1
 424 1036 528 1072 652 1072 c 0
 812 1072 928 1030 1004 946 c 1
 1056 1012 1126 1052 1216 1068 c 1
 1134 1150 1094 1234 1094 1318 c 0
 1094 1450 1140 1556 1234 1636 c 0
 1322 1712 1434 1752 1568 1752 c 0
1626 1304 m 0
 1693 1304 1736 1369 1736 1436 c 0
 1736 1502 1692 1570 1626 1570 c 0
 1560 1570 1516 1502 1516 1436 c 0
 1516 1369 1559 1304 1626 1304 c 0
484 520 m 0
 542 520 586 563 586 622 c 0
 586 679 534 724 478 724 c 0
 418 724 376 682 376 622 c 0
 376 563 425 520 484 520 c 0
EndSplineSet
EndChar

StartChar: ta_nhee
Encoding: 65632 -1 168
Width: 2240
GlyphClass: 3
Flags: HMW
LayerCount: 2
Fore
SplineSet
1854 656 m 0
 2095 656 2240 435 2240 182 c 0
 2240 72 2216 -34 2166 -136 c 0
 2027 -425 1721 -596 1292 -596 c 0
 982 -596 726 -506 522 -328 c 0
 308 -140 200 104 200 412 c 0
 200 714 280 938 436 1078 c 1
 550 968 l 1
 420 848 356 664 356 420 c 0
 356 158 448 -54 630 -216 c 0
 806 -372 1026 -448 1292 -448 c 0
 1638 -448 1874 -328 2002 -84 c 1
 2046 4 2070 92 2070 184 c 0
 2070 348 1987 488 1832 488 c 0
 1767 488 1690 446 1690 380 c 2
 1690 14 l 1
 1528 14 l 1
 1528 888 l 1
 1098 888 l 2
 870 888 706 717 706 488 c 0
 706 406 726 328 768 256 c 1
 764 276 764 294 764 314 c 0
 764 462 867 574 1014 574 c 0
 1181 574 1292 439 1292 272 c 0
 1292 96 1168 -26 992 -26 c 0
 854 -26 742 26 658 134 c 1
 582 234 544 354 544 494 c 0
 544 658 594 794 698 898 c 0
 802 1002 936 1054 1100 1054 c 2
 1472 1054 l 1
 1388 1128 1348 1216 1348 1324 c 0
 1348 1456 1394 1562 1488 1644 c 0
 1576 1720 1688 1756 1822 1756 c 0
 2015 1756 2164 1643 2164 1452 c 0
 2164 1287 2060 1160 1896 1160 c 0
 1744 1160 1630 1276 1630 1428 c 0
 1630 1472 1638 1512 1652 1548 c 1
 1560 1496 1516 1420 1516 1316 c 0
 1516 1205 1599 1093 1676 1054 c 1
 2124 1054 l 1
 2124 888 l 1
 1690 888 l 1
 1690 566 l 1
 1724 626 1778 656 1854 656 c 0
1880 1308 m 0
 1946 1308 1990 1376 1990 1442 c 0
 1990 1506 1945 1574 1880 1574 c 0
 1815 1574 1770 1506 1770 1442 c 0
 1770 1376 1814 1308 1880 1308 c 0
1004 136 m 0
 1077 136 1128 205 1128 280 c 0
 1128 355 1078 422 1004 422 c 0
 928 422 876 355 876 280 c 0
 876 205 929 136 1004 136 c 0
EndSplineSet
EndChar

StartChar: ta_tee
Encoding: 65633 -1 169
Width: 1638
GlyphClass: 3
Flags: HMW
LayerCount: 2
Fore
SplineSet
1238 272 m 0
 1086 272 968 388 968 540 c 0
 968 584 976 624 992 660 c 1
 906 612 862 536 862 434 c 0
 862 306 926 218 1050 166 c 1
 1638 166 l 1
 1638 -2 l 1
 200 -2 l 1
 200 1056 l 1
 368 1056 l 1
 368 166 l 1
 818 166 l 1
 738 236 698 328 698 444 c 0
 698 568 742 672 834 752 c 1
 920 830 1028 868 1154 868 c 0
 1350 868 1504 755 1504 564 c 0
 1504 400 1401 272 1238 272 c 0
1220 420 m 0
 1286 420 1330 488 1330 554 c 0
 1330 618 1285 686 1220 686 c 0
 1154 686 1110 618 1110 554 c 0
 1110 488 1153 420 1220 420 c 0
EndSplineSet
EndChar

StartChar: ta_nnnee
Encoding: 65634 -1 170
Width: 3150
GlyphClass: 3
Flags: HMW
LayerCount: 2
Fore
SplineSet
2808 1756 m 0
 3001 1756 3150 1643 3150 1452 c 0
 3150 1287 3046 1160 2882 1160 c 0
 2730 1160 2616 1276 2616 1428 c 0
 2616 1472 2624 1512 2638 1548 c 1
 2546 1496 2502 1420 2502 1316 c 0
 2502 1207 2584 1094 2660 1056 c 1
 3060 1056 l 1
 3060 892 l 1
 2720 892 l 1
 2720 -2 l 1
 2544 -2 l 1
 2544 892 l 1
 2340 892 l 2
 2280 892 2232 878 2196 848 c 1
 2312 724 2370 574 2370 396 c 0
 2370 114 2272 -26 2078 -26 c 0
 1968 -26 1886 22 1832 122 c 0
 1788 204 1764 304 1764 422 c 0
 1764 598 1820 742 1930 854 c 1
 1864 898 1782 922 1682 922 c 0
 1574 922 1492 898 1440 848 c 1
 1554 724 1610 574 1610 396 c 0
 1610 114 1514 -26 1322 -26 c 0
 1108 -26 1008 188 1008 422 c 0
 1008 588 1060 732 1166 850 c 1
 1082 894 988 916 886 916 c 0
 746 916 626 878 526 800 c 0
 418 716 366 606 366 470 c 0
 366 386 382 316 414 264 c 1
 404 292 398 316 398 338 c 0
 398 474 508 574 644 574 c 0
 811 574 922 439 922 272 c 0
 922 96 798 -26 622 -26 c 0
 494 -26 390 22 310 120 c 0
 236 212 200 322 200 452 c 0
 200 646 266 798 398 914 c 1
 526 1022 690 1078 886 1078 c 0
 1034 1078 1168 1038 1286 960 c 1
 1402 1040 1530 1080 1668 1080 c 0
 1812 1080 1942 1040 2058 964 c 1
 2060 964 l 1
 2116 1008 2180 1034 2250 1046 c 0
 2286 1052 2356 1056 2456 1056 c 1
 2374 1130 2334 1218 2334 1324 c 0
 2334 1456 2380 1562 2474 1644 c 0
 2562 1720 2674 1756 2808 1756 c 0
2866 1308 m 0
 2932 1308 2976 1376 2976 1442 c 0
 2976 1506 2931 1574 2866 1574 c 0
 2801 1574 2756 1506 2756 1442 c 0
 2756 1376 2800 1308 2866 1308 c 0
2190 408 m 0
 2190 556 2148 674 2064 760 c 1
 1976 684 1932 566 1932 408 c 0
 1932 236 1976 148 2064 148 c 0
 2148 148 2190 236 2190 408 c 0
1434 408 m 0
 1434 550 1390 668 1302 760 c 1
 1218 686 1176 570 1176 408 c 0
 1176 236 1220 148 1308 148 c 0
 1392 148 1434 236 1434 408 c 0
634 136 m 0
 707 136 758 205 758 280 c 0
 758 355 708 422 634 422 c 0
 558 422 506 355 506 280 c 0
 506 205 559 136 634 136 c 0
EndSplineSet
EndChar

